999
Inkscape export via OpenSCAD DXF Export
  0
SECTION
  2
HEADER
  9
$ACADVER
  1
AC1014
  9
$HANDSEED
  5
FFFF
  9
$MEASUREMENT
 70
     1
  0
ENDSEC
  0
SECTION
  2
TABLES
  0
TABLE
  2
VPORT
  5
8
330
0
100
AcDbSymbolTable
 70
     4
  0
VPORT
  5
2E
330
8
100
AcDbSymbolTableRecord
100
AcDbViewportTableRecord
  2
*ACTIVE
 70
     0
 10
0.0
 20
0.0
 11
1.0
 21
1.0
 12
210.0
 22
148.5
 13
0.0
 23
0.0
 14
10.0
 24
10.0
 15
10.0
 25
10.0
 16
0.0
 26
0.0
 36
1.0
 17
0.0
 27
0.0
 37
0.0
 40
341.0
 41
1.24
 42
50.0
 43
0.0
 44
0.0
 50
0.0
 51
0.0
 71
     0
 72
   100
 73
     1
 74
     3
 75
     0
 76
     0
 77
     0
 78
     0
  0
ENDTAB
  0
TABLE
  2
LTYPE
  5
5
330
0
100
AcDbSymbolTable
 70
     1
  0
LTYPE
  5
14
330
5
100
AcDbSymbolTableRecord
100
AcDbLinetypeTableRecord
  2
BYBLOCK
 70
     0
  3

 72
    65
 73
     0
 40
0.0
  0
LTYPE
  5
15
330
5
100
AcDbSymbolTableRecord
100
AcDbLinetypeTableRecord
  2
BYLAYER
 70
     0
  3

 72
    65
 73
     0
 40
0.0
  0
LTYPE
  5
16
330
5
100
AcDbSymbolTableRecord
100
AcDbLinetypeTableRecord
  2
CONTINUOUS
 70
     0
  3
Solid line
 72
    65
 73
     0
 40
0.0
  0
ENDTAB
  0
TABLE
0
TABLE
2
LAYER
5
2
330
0
100
AcDbSymbolTable
70
1
0
LAYER
5
10
330
2
100
AcDbSymbolTableRecord
100
AcDbLayerTableRecord
2
Layer_1
70
0
62
7
6
CONTINUOUS
0
ENDTAB
0
ENDSEC
  0
ENDTAB
  0
TABLE
  2
STYLE
  5
3
330
0
100
AcDbSymbolTable
 70
     1
  0
STYLE
  5
11
330
3
100
AcDbSymbolTableRecord
100
AcDbTextStyleTableRecord
  2
STANDARD
 70
     0
 40
0.0
 41
1.0
 50
0.0
 71
     0
 42
2.5
  3
txt
  4

  0
ENDTAB
  0
TABLE
  2
VIEW
  5
6
330
0
100
AcDbSymbolTable
 70
     0
  0
ENDTAB
  0
TABLE
  2
UCS
  5
7
330
0
100
AcDbSymbolTable
 70
     0
  0
ENDTAB
  0
TABLE
  2
APPID
  5
9
330
0
100
AcDbSymbolTable
 70
     2
  0
APPID
  5
12
330
9
100
AcDbSymbolTableRecord
100
AcDbRegAppTableRecord
  2
ACAD
 70
     0
  0
ENDTAB
  0
TABLE
  2
DIMSTYLE
  5
A
330
0
100
AcDbSymbolTable
 70
     1
  0
DIMSTYLE
105
27
330
A
100
AcDbSymbolTableRecord
100
AcDbDimStyleTableRecord
  2
ISO-25
 70
     0
  3

  4

  5

  6

  7

 40
1.0
 41
2.5
 42
0.625
 43
3.75
 44
1.25
 45
0.0
 46
0.0
 47
0.0
 48
0.0
140
2.5
141
2.5
142
0.0
143
0.03937007874016
144
1.0
145
0.0
146
1.0
147
0.625
 71
     0
 72
     0
 73
     0
 74
     0
 75
     0
 76
     0
 77
     1
 78
     8
170
     0
171
     3
172
     1
173
     0
174
     0
175
     0
176
     0
177
     0
178
     0
270
     2
271
     2
272
     2
273
     2
274
     3
340
11
275
     0
280
     0
281
     0
282
     0
283
     0
284
     8
285
     0
286
     0
287
     3
288
     0
  0
ENDTAB
  0
TABLE
  2
BLOCK_RECORD
  5
1
330
0
100
AcDbSymbolTable
 70
     1
  0
BLOCK_RECORD
  5
1F
330
1
100
AcDbSymbolTableRecord
100
AcDbBlockTableRecord
  2
*MODEL_SPACE
  0
BLOCK_RECORD
  5
1B
330
1
100
AcDbSymbolTableRecord
100
AcDbBlockTableRecord
  2
*PAPER_SPACE
  0
ENDTAB
  0
ENDSEC
  0
SECTION
  2
BLOCKS
  0
BLOCK
  5
20
330
1F
100
AcDbEntity
  8
0
100
AcDbBlockBegin
  2
*MODEL_SPACE
 70
     0
 10
0.0
 20
0.0
 30
0.0
  3
*MODEL_SPACE
  1

  0
ENDBLK
  5
21
330
1F
100
AcDbEntity
  8
0
100
AcDbBlockEnd
  0
BLOCK
  5
1C
330
1B
100
AcDbEntity
 67
     1
  8
0
100
AcDbBlockBegin
  2
*PAPER_SPACE
  1

  0
ENDBLK
  5
1D
330
1B
100
AcDbEntity
 67
     1
  8
0
100
AcDbBlockEnd
  0
ENDSEC
  0
SECTION
  2
ENTITIES
0
DIMENSION
5
83
100
AcDbEntity
62
256
370
-1
6
ByLayer
1
total_width
3
Standard
70
0
71
5
72
1
41
1.0
100
AcDbAlignedDimension
13
32.177595
23
0.000000
33
0.0
14
388.107315
24
0.000000
34
0.0
50
0.000000
100
AcDbRotatedDimension
0
DIMENSION
5
83
100
AcDbEntity
62
256
370
-1
6
ByLayer
1
total_minx
3
Standard
70
0
71
5
72
1
41
1.0
100
AcDbAlignedDimension
13
32.177595
23
0.000000
33
0.0
14
0.000000
24
0.000000
34
0.0
50
0.000000
100
AcDbRotatedDimension
0
DIMENSION
5
83
100
AcDbEntity
62
256
370
-1
6
ByLayer
1
total_maxx
3
Standard
70
0
71
5
72
1
41
1.0
100
AcDbAlignedDimension
13
0.000000
23
0.000000
33
0.0
14
388.107315
24
0.000000
34
0.0
50
0.000000
100
AcDbRotatedDimension
0
DIMENSION
5
83
100
AcDbEntity
62
256
370
-1
6
ByLayer
1
total_height
3
Standard
70
0
71
5
72
1
41
1.0
100
AcDbAlignedDimension
13
0.000000
23
34.256164
33
0.0
14
0.000000
24
282.047066
34
0.0
50
90.000000
100
AcDbRotatedDimension
0
DIMENSION
5
83
100
AcDbEntity
62
256
370
-1
6
ByLayer
1
total_miny
3
Standard
70
0
71
5
72
1
41
1.0
100
AcDbAlignedDimension
13
34.256164
23
0.000000
33
0.0
14
0.000000
24
0.000000
34
0.0
50
0.000000
100
AcDbRotatedDimension
0
DIMENSION
5
83
100
AcDbEntity
62
256
370
-1
6
ByLayer
1
total_maxy
3
Standard
70
0
71
5
72
1
41
1.0
100
AcDbAlignedDimension
13
0.000000
23
0.000000
33
0.0
14
282.047066
24
0.000000
34
0.0
50
0.000000
100
AcDbRotatedDimension
0
DIMENSION
8
Layer_1
5
83
100
AcDbEntity
62
256
370
-1
6
ByLayer
1
Layer_1_width
3
Standard
70
0
71
5
72
1
41
1.0
100
AcDbAlignedDimension
13
32.177595
23
0.000000
33
0.0
14
388.107315
24
0.000000
34
0.0
50
0.000000
100
AcDbRotatedDimension
0
DIMENSION
8
Layer_1
5
83
100
AcDbEntity
62
256
370
-1
6
ByLayer
1
Layer_1_minx
3
Standard
70
0
71
5
72
1
41
1.0
100
AcDbAlignedDimension
13
32.177595
23
0.000000
33
0.0
14
0.000000
24
0.000000
34
0.0
50
0.000000
100
AcDbRotatedDimension
0
DIMENSION
8
Layer_1
5
83
100
AcDbEntity
62
256
370
-1
6
ByLayer
1
Layer_1_maxx
3
Standard
70
0
71
5
72
1
41
1.0
100
AcDbAlignedDimension
13
0.000000
23
0.000000
33
0.0
14
388.107315
24
0.000000
34
0.0
50
0.000000
100
AcDbRotatedDimension
0
DIMENSION
8
Layer_1
5
83
100
AcDbEntity
62
256
370
-1
6
ByLayer
1
Layer_1_height
3
Standard
70
0
71
5
72
1
41
1.0
100
AcDbAlignedDimension
13
0.000000
23
34.256164
33
0.0
14
0.000000
24
282.047066
34
0.0
50
90.000000
100
AcDbRotatedDimension
0
DIMENSION
8
Layer_1
5
83
100
AcDbEntity
62
256
370
-1
6
ByLayer
1
Layer_1_miny
3
Standard
70
0
71
5
72
1
41
1.0
100
AcDbAlignedDimension
13
34.256164
23
0.000000
33
0.0
14
0.000000
24
0.000000
34
0.0
50
0.000000
100
AcDbRotatedDimension
0
DIMENSION
8
Layer_1
5
83
100
AcDbEntity
62
256
370
-1
6
ByLayer
1
Layer_1_maxy
3
Standard
70
0
71
5
72
1
41
1.0
100
AcDbAlignedDimension
13
0.000000
23
0.000000
33
0.0
14
282.047066
24
0.000000
34
0.0
50
0.000000
100
AcDbRotatedDimension
62
0
0
LWPOLYLINE
100
AcDbPolyline
8
Layer_1
90
275
70
0
10
47.880953
20
35.963880
30
0.0
10
46.501485
20
37.775402
30
0.0
10
45.278209
20
39.824682
30
0.0
10
44.151344
20
42.301495
30
0.0
10
43.061108
20
45.395616
30
0.0
10
41.947719
20
49.296819
30
0.0
10
40.751396
20
54.194880
30
0.0
10
37.870819
20
67.740674
30
0.0
10
35.189552
20
81.331144
30
0.0
10
34.348275
20
86.319935
30
0.0
10
33.758556
20
90.861558
30
0.0
10
33.359383
20
95.523859
30
0.0
10
33.089745
20
100.874684
30
0.0
10
32.695032
20
115.913292
30
0.0
10
32.177595
20
139.382006
30
0.0
10
34.006660
20
148.645967
30
0.0
10
35.560597
20
155.872638
30
0.0
10
36.728180
20
160.238429
30
0.0
10
37.358473
20
162.364779
30
0.0
10
37.620631
20
164.207277
30
0.0
10
37.745111
20
164.852994
30
0.0
10
38.100528
20
165.625715
30
0.0
10
39.396039
20
167.459083
30
0.0
10
41.290902
20
169.521199
30
0.0
10
43.568849
20
171.625883
30
0.0
10
46.013617
20
173.586953
30
0.0
10
48.408939
20
175.218227
30
0.0
10
50.538551
20
176.333525
30
0.0
10
51.436133
20
176.639501
30
0.0
10
52.186188
20
176.746665
30
0.0
10
54.446772
20
177.044592
30
0.0
10
57.603407
20
177.760884
30
0.0
10
59.887105
20
178.223845
30
0.0
10
62.856074
20
178.561974
30
0.0
10
71.279704
20
178.899518
30
0.0
10
77.866429
20
179.096686
30
0.0
10
83.683255
20
179.498736
30
0.0
10
88.470685
20
180.081569
30
0.0
10
91.969226
20
180.821082
30
0.0
10
94.388312
20
181.822501
30
0.0
10
96.614127
20
183.285236
30
0.0
10
98.439955
20
185.044879
30
0.0
10
99.138276
20
185.984665
30
0.0
10
99.659082
20
186.937026
30
0.0
10
100.541892
20
189.161198
30
0.0
10
100.944738
20
191.325468
30
0.0
10
100.942142
20
194.406459
30
0.0
10
100.608627
20
199.380791
30
0.0
10
100.193711
20
205.834465
30
0.0
10
99.992949
20
211.292137
30
0.0
10
100.011974
20
215.455645
30
0.0
10
100.256416
20
218.026824
30
0.0
10
101.292392
20
227.290788
30
0.0
10
101.959220
20
233.225233
30
0.0
10
102.542484
20
236.513483
30
0.0
10
102.819612
20
237.056384
30
0.0
10
103.206615
20
237.414567
30
0.0
10
103.745499
20
237.581453
30
0.0
10
104.478270
20
237.550466
30
0.0
10
106.693501
20
236.868561
30
0.0
10
110.188355
20
235.316228
30
0.0
10
113.366822
20
234.080428
30
0.0
10
114.770625
20
233.704381
30
0.0
10
115.805074
20
233.566137
30
0.0
10
116.686712
20
233.464694
30
0.0
10
117.580643
20
233.182802
30
0.0
10
119.238763
20
232.209759
30
0.0
10
120.446192
20
230.911188
30
0.0
10
120.776760
20
230.222385
30
0.0
10
120.869690
20
229.551267
30
0.0
10
121.062282
20
226.766525
30
0.0
10
121.731966
20
222.966061
30
0.0
10
122.662170
20
219.177211
30
0.0
10
123.636323
20
216.427315
30
0.0
10
124.561722
20
214.753920
30
0.0
10
125.291527
20
213.953883
30
0.0
10
125.595388
20
213.874298
30
0.0
10
125.865118
20
214.004563
30
0.0
10
126.321874
20
214.883320
30
0.0
10
130.597570
20
225.723992
30
0.0
10
133.197201
20
231.941272
30
0.0
10
134.506581
20
234.800846
30
0.0
10
135.505428
20
236.470289
30
0.0
10
137.356274
20
240.050422
30
0.0
10
139.729725
20
244.248740
30
0.0
10
141.985038
20
247.404450
30
0.0
10
145.462244
20
251.264434
30
0.0
10
146.590588
20
252.286197
30
0.0
10
147.469437
20
252.711179
30
0.0
10
147.964641
20
252.989001
30
0.0
10
148.170612
20
253.656959
30
0.0
10
148.442741
20
254.429340
30
0.0
10
149.097009
20
254.958229
30
0.0
10
149.751277
20
255.540563
30
0.0
10
150.023407
20
256.441440
30
0.0
10
150.431968
20
257.269715
30
0.0
10
151.524322
20
258.677362
30
0.0
10
154.960424
20
262.415301
30
0.0
10
158.731749
20
266.024319
30
0.0
10
160.243130
20
267.270815
30
0.0
10
161.238331
20
267.873477
30
0.0
10
162.041358
20
268.297543
30
0.0
10
162.375359
20
268.810336
30
0.0
10
162.647488
20
269.217122
30
0.0
10
163.301756
20
269.386315
30
0.0
10
163.956024
20
269.567734
30
0.0
10
164.228153
20
270.003913
30
0.0
10
164.491267
20
270.440091
30
0.0
10
165.123859
20
270.621512
30
0.0
10
165.901534
20
270.848286
30
0.0
10
166.513456
20
271.393508
30
0.0
10
167.039975
20
271.912652
30
0.0
10
167.984440
20
272.538560
30
0.0
10
170.797722
20
273.962791
30
0.0
10
174.294332
20
275.370456
30
0.0
10
177.815302
20
276.465806
30
0.0
10
181.194718
20
277.434006
30
0.0
10
183.682479
20
278.331684
30
0.0
10
188.623259
20
280.613103
30
0.0
10
190.502643
20
281.368322
30
0.0
10
192.502124
20
281.802228
30
0.0
10
195.264163
20
282.000063
30
0.0
10
199.431219
20
282.047066
30
0.0
10
204.545436
20
281.876560
30
0.0
10
208.660638
20
281.407591
30
0.0
10
211.403518
20
280.703988
30
0.0
10
212.143679
20
280.284143
30
0.0
10
212.400769
20
279.829576
30
0.0
10
212.788613
20
279.435576
30
0.0
10
213.721089
20
279.156433
30
0.0
10
214.312310
20
278.933250
30
0.0
10
214.946045
20
278.471466
30
0.0
10
215.546299
20
277.838500
30
0.0
10
216.037081
20
277.101771
30
0.0
10
217.361751
20
275.099857
30
0.0
10
219.116182
20
272.981592
30
0.0
10
220.801384
20
271.298450
30
0.0
10
221.462091
20
270.792384
30
0.0
10
221.918369
20
270.601900
30
0.0
10
223.019743
20
269.958845
30
0.0
10
224.722992
20
268.440309
30
0.0
10
226.373420
20
266.927534
30
0.0
10
227.347783
20
266.298327
30
0.0
10
228.043891
20
265.933297
30
0.0
10
229.036633
20
265.090974
30
0.0
10
229.925780
20
264.150512
30
0.0
10
230.311102
20
263.491066
30
0.0
10
230.788822
20
262.724293
30
0.0
10
231.885562
20
261.593010
30
0.0
10
233.096694
20
260.568576
30
0.0
10
233.917589
20
260.122351
30
0.0
10
234.649695
20
259.623448
30
0.0
10
235.602927
20
258.423958
30
0.0
10
237.323904
20
256.141248
30
0.0
10
238.027747
20
255.440123
30
0.0
10
238.494223
20
255.181568
30
0.0
10
243.860114
20
250.240786
30
0.0
10
247.665359
20
246.751359
30
0.0
10
248.968356
20
245.689862
30
0.0
10
249.619620
20
245.300003
30
0.0
10
250.876652
20
244.617716
30
0.0
10
253.007529
20
243.056854
30
0.0
10
255.076366
20
241.346414
30
0.0
10
256.147279
20
240.215395
30
0.0
10
256.504326
20
239.879928
30
0.0
10
257.073674
20
239.738673
30
0.0
10
258.271577
20
239.103732
30
0.0
10
260.139849
20
237.581406
30
0.0
10
262.241290
20
235.948273
30
0.0
10
263.999830
20
235.047014
30
0.0
10
265.069340
20
234.636500
30
0.0
10
265.514178
20
234.183245
30
0.0
10
265.967717
20
233.727804
30
0.0
10
267.058160
20
233.312036
30
0.0
10
268.148617
20
232.860387
30
0.0
10
268.480338
20
232.584497
30
0.0
10
268.602169
20
232.318687
30
0.0
10
268.711813
20
232.082370
30
0.0
10
269.010351
20
231.886783
30
0.0
10
269.991747
20
231.699122
30
0.0
10
271.370118
20
231.394964
30
0.0
10
272.732982
20
230.542419
30
0.0
10
274.020953
20
229.190862
30
0.0
10
275.174645
20
227.389670
30
0.0
10
275.766701
20
225.866051
30
0.0
10
276.162941
20
223.586880
30
0.0
10
276.429107
20
219.966717
30
0.0
10
276.630940
20
214.420120
30
0.0
10
276.939719
20
203.612160
30
0.0
10
288.519672
20
203.444131
30
0.0
10
300.099645
20
203.276107
30
0.0
10
300.099645
20
195.002675
30
0.0
10
300.209761
20
188.872601
30
0.0
10
300.474521
20
185.752342
30
0.0
10
300.956913
20
185.255003
30
0.0
10
302.185850
20
184.957490
30
0.0
10
304.539398
20
184.813176
30
0.0
10
308.395624
20
184.775433
30
0.0
10
312.576819
20
184.740649
30
0.0
10
314.998001
20
184.566877
30
0.0
10
316.318876
20
184.149984
30
0.0
10
317.199151
20
183.385838
30
0.0
10
318.275409
20
181.840159
30
0.0
10
319.097434
20
180.075298
30
0.0
10
319.975150
20
178.043166
30
0.0
10
321.306666
20
175.741967
30
0.0
10
322.981289
20
173.344712
30
0.0
10
324.888324
20
171.024409
30
0.0
10
326.965141
20
168.698946
30
0.0
10
337.773095
20
168.072960
30
0.0
10
347.582081
20
167.356342
30
0.0
10
355.988225
20
166.512452
30
0.0
10
359.962406
20
165.950127
30
0.0
10
362.787671
20
165.351115
30
0.0
10
365.069598
20
164.549315
30
0.0
10
367.413766
20
163.378631
30
0.0
10
370.482407
20
161.573446
30
0.0
10
373.278611
20
159.658989
30
0.0
10
375.823889
20
157.613010
30
0.0
10
378.139752
20
155.413261
30
0.0
10
380.247712
20
153.037492
30
0.0
10
382.169281
20
150.463456
30
0.0
10
383.925970
20
147.668903
30
0.0
10
385.539290
20
144.631585
30
0.0
10
387.020155
20
141.489922
30
0.0
10
387.782957
20
139.147990
30
0.0
10
388.065932
20
136.459868
30
0.0
10
388.107315
20
132.279630
30
0.0
10
387.874529
20
126.886120
30
0.0
10
387.549629
20
124.502743
30
0.0
10
387.055579
20
122.211291
30
0.0
10
386.369766
20
119.924017
30
0.0
10
385.469581
20
117.553177
30
0.0
10
382.935649
20
112.209817
30
0.0
10
381.154488
20
109.082244
30
0.0
10
378.955602
20
105.721802
30
0.0
10
376.433785
20
102.243730
30
0.0
10
373.683830
20
98.763265
30
0.0
10
370.800532
20
95.395643
30
0.0
10
367.878684
20
92.256102
30
0.0
10
365.013081
20
89.459879
30
0.0
10
362.298516
20
87.122212
30
0.0
10
360.183455
20
85.743980
30
0.0
10
356.954418
20
84.235123
30
0.0
10
352.144795
20
82.453233
30
0.0
10
345.287974
20
80.255904
30
0.0
10
323.566294
20
74.045301
30
0.0
10
288.056489
20
64.464060
30
0.0
10
269.377302
20
59.522080
30
0.0
10
258.031639
20
56.680574
30
0.0
10
251.353636
20
55.317671
30
0.0
10
246.677426
20
54.811501
30
0.0
10
232.445672
20
54.525048
30
0.0
10
207.768788
20
54.432273
30
0.0
10
181.613767
20
54.271030
30
0.0
10
172.972776
20
54.036254
30
0.0
10
167.316142
20
53.699190
30
0.0
10
160.203623
20
53.275312
30
0.0
10
149.974116
20
53.050316
30
0.0
10
136.449667
20
53.022309
30
0.0
10
119.452322
20
53.189395
30
0.0
10
114.408068
20
53.201885
30
0.0
10
110.629234
20
52.940586
30
0.0
10
106.629961
20
52.217466
30
0.0
10
100.924391
20
50.844487
30
0.0
10
91.140373
20
48.243474
30
0.0
10
81.572005
20
45.373206
30
0.0
10
72.107066
20
42.198041
30
0.0
10
62.633335
20
38.682335
30
0.0
10
50.844061
20
34.288936
30
0.0
10
50.160087
20
34.256164
30
0.0
10
49.465192
20
34.509166
30
0.0
10
48.718953
20
35.070789
30
0.0
10
47.880953
20
35.963880
30
0.0
10
47.880953
20
35.963880
30
0.0
  0
ENDSEC
  0
SECTION
  2
OBJECTS
  0
DICTIONARY
  5
C
330
0
100
AcDbDictionary
  3
ACAD_GROUP
350
D
  3
ACAD_MLINESTYLE
350
17
  0
DICTIONARY
  5
D
330
C
100
AcDbDictionary
  0
DICTIONARY
  5
1A
330
C
100
AcDbDictionary
  0
DICTIONARY
  5
17
330
C
100
AcDbDictionary
  3
STANDARD
350
18
  0
DICTIONARY
  5
19
330
C
100
AcDbDictionary
  0
ENDSEC
  0
EOF
