<?xml version="1.0" encoding="UTF-8" standalone="no"?>
<!-- Created with Inkscape (http://www.inkscape.org/) -->

<svg
   xmlns:dc="http://purl.org/dc/elements/1.1/"
   xmlns:cc="http://creativecommons.org/ns#"
   xmlns:rdf="http://www.w3.org/1999/02/22-rdf-syntax-ns#"
   xmlns:svg="http://www.w3.org/2000/svg"
   xmlns="http://www.w3.org/2000/svg"
   version="1.1"
   width="2160"
   height="1080"
   id="svg2">
  <defs
     id="defs4" />
  <metadata
     id="metadata7">
    <rdf:RDF>
      <cc:Work
         rdf:about="">
        <dc:format>image/svg+xml</dc:format>
        <dc:type
           rdf:resource="http://purl.org/dc/dcmitype/StillImage" />
        <dc:title></dc:title>
      </cc:Work>
    </rdf:RDF>
  </metadata>
  <g
     transform="translate(0,27.64025)"
     id="layer1">
    <rect
       width="1259.875"
       height="1079.8749"
       x="0.062546529"
       y="-27.577702"
       id="rect3002"
       style="fill:none;stroke:#000000;stroke-width:0.09006847;stroke-miterlimit:4;stroke-opacity:1;stroke-dasharray:none" />
    <path
       d="m 1285.7143,48.92857 a 380,380 0 1 1 -760.00001,0 380,380 0 1 1 760.00001,0 z"
       transform="matrix(1.0656248,0,0,1.0656248,-425.15162,460.22025)"
       id="path3775"
       style="fill:none;stroke:#000000;stroke-width:0.08455555;stroke-miterlimit:4;stroke-opacity:1;stroke-dasharray:none" />
    <path
       d="m 1285.7143,48.92857 a 380,380 0 1 1 -760.00001,0 380,380 0 1 1 760.00001,0 z"
       transform="matrix(0.94720376,0,0,0.94720383,-317.89599,464.01439)"
       id="path3775-8"
       style="fill:none;stroke:#000000;stroke-width:0.095125;stroke-miterlimit:4;stroke-opacity:1;stroke-dasharray:none" />
    <path
       d="m 1285.7143,48.92857 a 380,380 0 1 1 -760.00001,0 380,380 0 1 1 760.00001,0 z"
       transform="matrix(0.82878271,0,0,0.82878278,-210.64035,471.80857)"
       id="path3775-8-3"
       style="fill:none;stroke:#000000;stroke-width:0.10871429;stroke-miterlimit:4;stroke-opacity:1;stroke-dasharray:none" />
    <g
       id="g3865">
      <path
         d="m 1285.7143,48.92857 a 380,380 0 1 1 -760.00001,0 380,380 0 1 1 760.00001,0 z"
         transform="matrix(1.1840459,0,0,1.1840458,637.59269,544.42608)"
         id="path3775-4"
         style="fill:none;stroke:#000000;stroke-width:0.0761;stroke-miterlimit:4;stroke-opacity:1;stroke-dasharray:none" />
      <path
         d="m 900.22869,-264.85388 a 57.636593,63.125793 0 1 1 -115.27318,0 57.636593,63.125793 0 1 1 115.27318,0 z"
         transform="matrix(0.38928668,0,0,0.35543761,1381.9898,696.49866)"
         id="path3831"
         style="fill:none;stroke:#000000;stroke-width:0.24327514;stroke-miterlimit:4;stroke-opacity:1;stroke-dasharray:none" />
    </g>
    <path
       d="m 900.22869,-264.85388 a 57.636593,63.125793 0 1 1 -115.27318,0 57.636593,63.125793 0 1 1 115.27318,0 z"
       transform="matrix(0.38928668,0,0,0.35543761,211.98978,606.499)"
       id="path3831-4"
       style="fill:none;stroke:#000000;stroke-width:0.24327514;stroke-miterlimit:4;stroke-opacity:1;stroke-dasharray:none" />
    <path
       d="m 1285.7143,48.92857 a 380,380 0 1 1 -760.00001,0 380,380 0 1 1 760.00001,0 z"
       transform="matrix(0.71038534,0,0,0.7103854,-103.39723,477.59266)"
       id="path3775-8-3-7"
       style="fill:none;stroke:#000000;stroke-width:0.10871429;stroke-miterlimit:4;stroke-opacity:1;stroke-dasharray:none" />
    <path
       d="m 1285.7143,48.92857 a 380,380 0 1 1 -760.00001,0 380,380 0 1 1 760.00001,0 z"
       transform="matrix(0.47357457,0,0,0.47357461,111.09758,489.16757)"
       id="path3775-8-3-7-5"
       style="fill:none;stroke:#000000;stroke-width:0.10871429;stroke-miterlimit:4;stroke-opacity:1;stroke-dasharray:none" />
    <path
       d="m 900.22869,-264.85388 a 57.636593,63.125793 0 1 1 -115.27318,0 57.636593,63.125793 0 1 1 115.27318,0 z"
       transform="matrix(1.5583654,0,0,1.4228632,-773.06638,889.2101)"
       id="path3831-4-3"
       style="fill:none;stroke:#000000;stroke-width:0.24327514;stroke-miterlimit:4;stroke-opacity:1;stroke-dasharray:none" />
    <path
       d="M 1285.7143,48.92857 A 380,380 0 0 1 1149.9736,340.02546 L 905.71429,48.92857 z"
       transform="matrix(0.47357457,0,0,0.47357461,111.09758,489.16757)"
       id="path3775-8-3-7-5-1"
       style="fill:none;stroke:#000000;stroke-width:0.10871429;stroke-miterlimit:4;stroke-opacity:1;stroke-dasharray:none" />
  </g>
</svg>
