  0
SECTION
  2
HEADER
  9
$ACADVER
  1
AC1014
  9
$HANDSEED
  5
FFFF
  9
$MEASUREMENT
 70
     1
  0
ENDSEC
  0
SECTION
  2
TABLES
  0
TABLE
  2
VPORT
  5
8
330
0
100
AcDbSymbolTable
 70
     4
  0
VPORT
  5
2E
330
8
100
AcDbSymbolTableRecord
100
AcDbViewportTableRecord
  2
*ACTIVE
 70
     0
 10
0.0
 20
0.0
 11
1.0
 21
1.0
 12
210.0
 22
148.5
 13
0.0
 23
0.0
 14
10.0
 24
10.0
 15
10.0
 25
10.0
 16
0.0
 26
0.0
 36
1.0
 17
0.0
 27
0.0
 37
0.0
 40
341.0
 41
1.24
 42
50.0
 43
0.0
 44
0.0
 50
0.0
 51
0.0
 71
     0
 72
   100
 73
     1
 74
     3
 75
     0
 76
     0
 77
     0
 78
     0
  0
ENDTAB
  0
TABLE
  2
LTYPE
  5
5
330
0
100
AcDbSymbolTable
 70
     1
  0
LTYPE
  5
14
330
5
100
AcDbSymbolTableRecord
100
AcDbLinetypeTableRecord
  2
BYBLOCK
 70
     0
  3

 72
    65
 73
     0
 40
0.0
  0
LTYPE
  5
15
330
5
100
AcDbSymbolTableRecord
100
AcDbLinetypeTableRecord
  2
BYLAYER
 70
     0
  3

 72
    65
 73
     0
 40
0.0
  0
LTYPE
  5
16
330
5
100
AcDbSymbolTableRecord
100
AcDbLinetypeTableRecord
  2
CONTINUOUS
 70
     0
  3
Solid line
 72
    65
 73
     0
 40
0.0
  0
ENDTAB
  0
TABLE
  2
LAYER
  5
2
100
AcDbSymbolTable
 70
2
  0
LAYER
  5
50
100
AcDbSymbolTableRecord
100
AcDbLayerTableRecord
  2
0
 70
0
  6
CONTINUOUS
  0
LAYER
  5
51
100
AcDbSymbolTableRecord
100
AcDbLayerTableRecord
  2
Layer_1
 70
0
  6
CONTINUOUS
  0
ENDTAB
  0
TABLE
  2
STYLE
  5
3
330
0
100
AcDbSymbolTable
 70
     1
  0
STYLE
  5
11
330
3
100
AcDbSymbolTableRecord
100
AcDbTextStyleTableRecord
  2
STANDARD
 70
     0
 40
0.0
 41
1.0
 50
0.0
 71
     0
 42
2.5
  3
txt
  4

  0
ENDTAB
  0
TABLE
  2
VIEW
  5
6
330
0
100
AcDbSymbolTable
 70
     0
  0
ENDTAB
  0
TABLE
  2
UCS
  5
7
330
0
100
AcDbSymbolTable
 70
     0
  0
ENDTAB
  0
TABLE
  2
APPID
  5
9
330
0
100
AcDbSymbolTable
 70
     2
  0
APPID
  5
12
330
9
100
AcDbSymbolTableRecord
100
AcDbRegAppTableRecord
  2
ACAD
 70
     0
  0
ENDTAB
  0
TABLE
  2
DIMSTYLE
  5
A
330
0
100
AcDbSymbolTable
 70
     1
  0
DIMSTYLE
105
27
330
A
100
AcDbSymbolTableRecord
100
AcDbDimStyleTableRecord
  2
ISO-25
 70
     0
  3

  4

  5

  6

  7

 40
1.0
 41
2.5
 42
0.625
 43
3.75
 44
1.25
 45
0.0
 46
0.0
 47
0.0
 48
0.0
140
2.5
141
2.5
142
0.0
143
0.03937007874016
144
1.0
145
0.0
146
1.0
147
0.625
 71
     0
 72
     0
 73
     0
 74
     0
 75
     0
 76
     0
 77
     1
 78
     8
170
     0
171
     3
172
     1
173
     0
174
     0
175
     0
176
     0
177
     0
178
     0
270
     2
271
     2
272
     2
273
     2
274
     3
340
11
275
     0
280
     0
281
     0
282
     0
283
     0
284
     8
285
     0
286
     0
287
     3
288
     0
  0
ENDTAB
  0
TABLE
  2
BLOCK_RECORD
  5
1
330
0
100
AcDbSymbolTable
 70
     1
  0
BLOCK_RECORD
  5
1F
330
1
100
AcDbSymbolTableRecord
100
AcDbBlockTableRecord
  2
*MODEL_SPACE
  0
BLOCK_RECORD
  5
1B
330
1
100
AcDbSymbolTableRecord
100
AcDbBlockTableRecord
  2
*PAPER_SPACE
  0
ENDTAB
  0
ENDSEC
  0
SECTION
  2
BLOCKS
  0
BLOCK
  5
20
330
1F
100
AcDbEntity
  8
0
100
AcDbBlockBegin
  2
*MODEL_SPACE
 70
     0
 10
0.0
 20
0.0
 30
0.0
  3
*MODEL_SPACE
  1

  0
ENDBLK
  5
21
330
1F
100
AcDbEntity
  8
0
100
AcDbBlockEnd
  0
BLOCK
  5
1C
330
1B
100
AcDbEntity
 67
     1
  8
0
100
AcDbBlockBegin
  2
*PAPER_SPACE
  1

  0
ENDBLK
  5
1D
330
1B
100
AcDbEntity
 67
     1
  8
0
100
AcDbBlockEnd
  0
ENDSEC
  0
SECTION
  2
ENTITIES
  0
LWPOLYLINE
  5
100
100
AcDbEntity
  8
Layer_1
 62
7
100
AcDbPolyline
 90
2
 70
0
 10
200.057103
 20
125.580912
 30
0.0
 10
204.025762
 20
125.580912
 30
0.0
  0
LWPOLYLINE
  5
101
100
AcDbEntity
  8
Layer_1
 62
7
100
AcDbPolyline
 90
10
 70
0
 10
204.025762
 20
131.429124
 30
0.0
 10
200.057103
 20
131.468705
 30
0.0
 10
180.275583
 20
131.666331
 30
0.0
 10
180.275583
 20
161.244312
 30
0.0
 10
159.505613
 20
161.244312
 30
0.0
 10
159.479621
 20
144.763206
 30
0.0
 10
170.221210
 20
144.763206
 30
0.0
 10
170.221210
 20
125.580912
 30
0.0
 10
200.057108
 20
125.580912
 30
0.0
 10
200.057103
 20
125.580912
 30
0.0
  0
LWPOLYLINE
  5
102
100
AcDbEntity
  8
Layer_1
 62
7
100
AcDbPolyline
 90
5
 70
0
 10
200.057103
 20
123.861123
 30
0.0
 10
192.578603
 20
123.861123
 30
0.0
 10
192.578603
 20
120.919131
 30
0.0
 10
200.057103
 20
120.919131
 30
0.0
 10
204.025762
 20
120.919131
 30
0.0
  0
LWPOLYLINE
  5
103
100
AcDbEntity
  8
Layer_1
 62
7
100
AcDbPolyline
 90
3
 70
0
 10
204.025762
 20
123.861123
 30
0.0
 10
200.057103
 20
123.861123
 30
0.0
 10
200.057103
 20
123.861123
 30
0.0
  0
LWPOLYLINE
  5
104
100
AcDbEntity
  8
Layer_1
 62
7
100
AcDbPolyline
 90
145
 70
0
 10
283.695027
 20
185.351911
 30
0.0
 10
266.496588
 20
185.351911
 30
0.0
 10
241.294991
 20
239.723927
 30
0.0
 10
239.360408
 20
243.257799
 30
0.0
 10
237.201350
 20
246.214306
 30
0.0
 10
234.817817
 20
248.593447
 30
0.0
 10
233.541871
 20
249.566504
 30
0.0
 10
232.209807
 20
250.395220
 30
0.0
 10
230.821624
 20
251.079593
 30
0.0
 10
229.377322
 20
251.619625
 30
0.0
 10
227.876901
 20
252.015313
 30
0.0
 10
226.320361
 20
252.266659
 30
0.0
 10
223.038925
 20
252.336322
 30
0.0
 10
219.533013
 20
251.828613
 30
0.0
 10
194.552889
 20
245.676911
 30
0.0
 10
190.716984
 20
249.754226
 30
0.0
 10
186.955226
 20
253.176551
 30
0.0
 10
183.267615
 20
255.943887
 30
0.0
 10
179.654152
 20
258.056234
 30
0.0
 10
176.114836
 20
259.513592
 30
0.0
 10
174.372983
 20
259.996651
 30
0.0
 10
172.649668
 20
260.315962
 30
0.0
 10
170.944889
 20
260.471527
 30
0.0
 10
169.258648
 20
260.463345
 30
0.0
 10
167.590944
 20
260.291416
 30
0.0
 10
165.941777
 20
259.955741
 30
0.0
 10
164.311147
 20
259.456319
 30
0.0
 10
162.699055
 20
258.793150
 30
0.0
 10
161.105500
 20
257.966234
 30
0.0
 10
159.530482
 20
256.975572
 30
0.0
 10
156.436059
 20
254.503008
 30
0.0
 10
153.415787
 20
251.375459
 30
0.0
 10
150.469664
 20
247.592925
 30
0.0
 10
147.597693
 20
243.155406
 30
0.0
 10
144.799873
 20
238.062903
 30
0.0
 10
142.076204
 20
232.315416
 30
0.0
 10
116.213184
 20
179.530937
 30
0.0
 10
115.389224
 20
177.811582
 30
0.0
 10
114.401733
 20
176.264551
 30
0.0
 10
113.250712
 20
174.889844
 30
0.0
 10
111.936160
 20
173.687464
 30
0.0
 10
110.458075
 20
172.657410
 30
0.0
 10
108.816457
 20
171.799683
 30
0.0
 10
107.011305
 20
171.114284
 30
0.0
 10
105.042617
 20
170.601214
 30
0.0
 10
82.677212
 20
168.947603
 30
0.0
 10
80.211491
 20
168.591383
 30
0.0
 10
77.883295
 20
167.994396
 30
0.0
 10
75.692625
 20
167.156643
 30
0.0
 10
73.639482
 20
166.078126
 30
0.0
 10
71.723868
 20
164.758844
 30
0.0
 10
69.945784
 20
163.198800
 30
0.0
 10
68.305232
 20
161.397993
 30
0.0
 10
66.802212
 20
159.356425
 30
0.0
 10
63.998061
 20
154.854506
 30
0.0
 10
62.875349
 20
152.626700
 30
0.0
 10
61.938874
 20
150.414331
 30
0.0
 10
61.188635
 20
148.217399
 30
0.0
 10
60.624628
 20
146.035904
 30
0.0
 10
60.246851
 20
143.869846
 30
0.0
 10
60.055300
 20
141.719227
 30
0.0
 10
60.370022
 20
137.969337
 30
0.0
 10
61.204308
 20
134.564750
 30
0.0
 10
61.816287
 20
132.991946
 30
0.0
 10
62.558157
 20
131.505469
 30
0.0
 10
63.429918
 20
130.105318
 30
0.0
 10
64.431571
 20
128.791495
 30
0.0
 10
65.563115
 20
127.563999
 30
0.0
 10
66.824550
 20
126.422831
 30
0.0
 10
69.737096
 20
124.399479
 30
0.0
 10
73.169209
 20
122.721440
 30
0.0
 10
77.120891
 20
121.388717
 30
0.0
 10
88.270890
 20
120.769411
 30
0.0
 10
89.674025
 20
120.256451
 30
0.0
 10
90.892264
 20
119.623264
 30
0.0
 10
91.925606
 20
118.869847
 30
0.0
 10
92.774054
 20
117.996201
 30
0.0
 10
93.437608
 20
117.002325
 30
0.0
 10
93.916268
 20
115.888218
 30
0.0
 10
94.210036
 20
114.653879
 30
0.0
 10
94.318912
 20
113.299308
 30
0.0
 10
94.943295
 20
93.354734
 30
0.0
 10
101.409712
 20
93.354734
 30
0.0
 10
101.610089
 20
84.741134
 30
0.0
 10
109.003287
 20
84.741134
 30
0.0
 10
108.341795
 20
110.276107
 30
0.0
 10
115.154817
 20
112.459025
 30
0.0
 10
117.668393
 20
108.533703
 30
0.0
 10
117.668393
 20
84.479232
 30
0.0
 10
117.233886
 20
81.258094
 30
0.0
 10
116.580978
 20
78.350154
 30
0.0
 10
115.709670
 20
75.755413
 30
0.0
 10
114.619965
 20
73.473871
 30
0.0
 10
113.311864
 20
71.505530
 30
0.0
 10
111.785370
 20
69.850390
 30
0.0
 10
110.040485
 20
68.508452
 30
0.0
 10
108.077212
 20
67.479717
 30
0.0
 10
86.145901
 20
58.965002
 30
0.0
 10
86.145901
 20
57.900530
 30
0.0
 10
83.404004
 20
57.900530
 30
0.0
 10
76.687011
 20
55.292727
 30
0.0
 10
76.687011
 20
54.527024
 30
0.0
 10
74.714913
 20
54.527024
 30
0.0
 10
66.963502
 20
51.517618
 30
0.0
 10
66.963502
 20
50.756710
 30
0.0
 10
65.003717
 20
50.756710
 30
0.0
 10
57.306210
 20
47.768225
 30
0.0
 10
57.306210
 20
45.928136
 30
0.0
 10
47.185899
 20
45.928136
 30
0.0
 10
46.935991
 20
62.468616
 30
0.0
 10
46.635817
 20
57.745223
 30
0.0
 10
46.282762
 20
55.558546
 30
0.0
 10
45.794392
 20
53.488542
 30
0.0
 10
45.170704
 20
51.535210
 30
0.0
 10
44.411695
 20
49.698547
 30
0.0
 10
43.517365
 20
47.978548
 30
0.0
 10
42.487709
 20
46.375210
 30
0.0
 10
43.075066
 20
44.508716
 30
0.0
 10
43.408213
 20
42.421031
 30
0.0
 10
46.450885
 20
37.013405
 30
0.0
 10
51.324016
 20
37.013405
 30
0.0
 10
102.520998
 20
55.044337
 30
0.0
 10
140.819505
 20
54.184406
 30
0.0
 10
145.449713
 20
55.771906
 30
0.0
 10
152.858013
 20
56.499509
 30
0.0
 10
235.540409
 20
56.499509
 30
0.0
 10
244.419200
 20
57.521260
 30
0.0
 10
252.571259
 20
58.831966
 30
0.0
 10
259.996594
 20
60.431644
 30
0.0
 10
266.695216
 20
62.320308
 30
0.0
 10
272.286611
 20
64.400050
 30
0.0
 10
278.142161
 20
66.400574
 30
0.0
 10
284.261864
 20
68.321881
 30
0.0
 10
290.645719
 20
70.163973
 30
0.0
 10
304.205881
 20
73.610513
 30
0.0
 10
318.822634
 20
76.740204
 30
0.0
 10
358.264629
 20
86.982932
 30
0.0
 10
358.326605
 20
150.973609
 30
0.0
 10
318.822634
 20
167.889233
 30
0.0
 10
314.121715
 20
171.395034
 30
0.0
 10
312.931133
 20
184.955036
 30
0.0
 10
304.418915
 20
185.100908
 30
0.0
 10
304.413271
 20
185.101016
 30
0.0
 10
301.355562
 20
185.153402
 30
0.0
 10
289.779964
 20
185.351911
 30
0.0
  0
LWPOLYLINE
  5
105
100
AcDbEntity
  8
Layer_1
 62
7
100
AcDbPolyline
 90
24
 70
0
 10
289.583961
 20
168.754809
 30
0.0
 10
301.255571
 20
168.616909
 30
0.0
 10
300.461878
 20
143.977532
 30
0.0
 10
290.275772
 20
143.977532
 30
0.0
 10
290.275772
 20
137.726733
 30
0.0
 10
314.154481
 20
137.726733
 30
0.0
 10
314.154481
 20
127.209406
 30
0.0
 10
314.154481
 20
107.233328
 30
0.0
 10
290.871063
 20
107.233328
 30
0.0
 10
290.871063
 20
103.859925
 30
0.0
 10
286.474577
 20
103.859925
 30
0.0
 10
278.916604
 20
95.611500
 30
0.0
 10
273.662660
 20
90.127412
 30
0.0
 10
270.712748
 20
87.407656
 30
0.0
 10
270.101804
 20
87.084402
 30
0.0
 10
270.012336
 20
87.181931
 30
0.0
 10
270.066869
 20
87.452231
 30
0.0
 10
268.893872
 20
87.037375
 30
0.0
 10
267.974279
 20
87.030781
 30
0.0
 10
267.308099
 20
87.432432
 30
0.0
 10
266.895340
 20
88.242312
 30
0.0
 10
269.011950
 20
168.980728
 30
0.0
 10
270.464661
 20
168.980728
 30
0.0
 10
283.694971
 20
168.824306
 30
0.0
  0
LWPOLYLINE
  5
106
100
AcDbEntity
  8
Layer_1
 62
7
100
AcDbPolyline
 90
22
 70
0
 10
262.207347
 20
172.729134
 30
0.0
 10
262.550046
 20
169.156734
 30
0.0
 10
262.726269
 20
165.441908
 30
0.0
 10
261.866366
 20
124.497534
 30
0.0
 10
261.519148
 20
123.265422
 30
0.0
 10
260.932041
 20
122.860326
 30
0.0
 10
259.997744
 20
122.860326
 30
0.0
 10
257.363570
 20
124.306413
 30
0.0
 10
255.040511
 20
125.870277
 30
0.0
 10
253.028566
 20
127.551918
 30
0.0
 10
251.327734
 20
129.351336
 30
0.0
 10
249.938018
 20
131.268525
 30
0.0
 10
248.859415
 20
133.303491
 30
0.0
 10
248.091926
 20
135.456226
 30
0.0
 10
247.635550
 20
137.726732
 30
0.0
 10
247.635550
 20
143.638723
 30
0.0
 10
242.182452
 20
143.693937
 30
0.0
 10
242.125937
 20
138.113026
 30
0.0
 10
233.262255
 20
138.113026
 30
0.0
 10
233.262255
 20
132.755108
 30
0.0
 10
233.262255
 20
131.137128
 30
0.0
 10
204.025762
 20
131.429124
 30
0.0
  0
LWPOLYLINE
  5
107
100
AcDbEntity
  8
Layer_1
 62
7
100
AcDbPolyline
 90
4
 70
0
 10
204.025762
 20
125.580912
 30
0.0
 10
233.192159
 20
125.580912
 30
0.0
 10
233.192159
 20
123.861123
 30
0.0
 10
204.025762
 20
123.861123
 30
0.0
  0
LWPOLYLINE
  5
108
100
AcDbEntity
  8
Layer_1
 62
7
100
AcDbPolyline
 90
132
 70
0
 10
204.025762
 20
120.919131
 30
0.0
 10
233.853547
 20
120.919131
 30
0.0
 10
233.853547
 20
111.425706
 30
0.0
 10
246.818130
 20
111.425706
 30
0.0
 10
246.818130
 20
120.157027
 30
0.0
 10
248.149231
 20
121.488128
 30
0.0
 10
250.806303
 20
119.978346
 30
0.0
 10
253.165779
 20
118.322038
 30
0.0
 10
255.227661
 20
116.519199
 30
0.0
 10
256.991942
 20
114.569837
 30
0.0
 10
258.458626
 20
112.473945
 30
0.0
 10
259.627703
 20
110.231531
 30
0.0
 10
260.499177
 20
107.842590
 30
0.0
 10
261.073039
 20
105.307126
 30
0.0
 10
260.885099
 20
88.816359
 30
0.0
 10
260.932086
 20
84.232622
 30
0.0
 10
261.073039
 20
82.090010
 30
0.0
 10
260.748216
 20
80.064199
 30
0.0
 10
260.274816
 20
78.147544
 30
0.0
 10
259.652838
 20
76.340040
 30
0.0
 10
258.882281
 20
74.641692
 30
0.0
 10
257.963148
 20
73.052495
 30
0.0
 10
256.895436
 20
71.572449
 30
0.0
 10
255.679149
 20
70.201560
 30
0.0
 10
254.314280
 20
68.939821
 30
0.0
 10
252.800838
 20
67.787236
 30
0.0
 10
251.138814
 20
66.743804
 30
0.0
 10
249.328215
 20
65.809525
 30
0.0
 10
247.369039
 20
64.984400
 30
0.0
 10
243.004952
 20
63.661607
 30
0.0
 10
238.046556
 20
62.775424
 30
0.0
 10
166.111857
 20
62.775424
 30
0.0
 10
150.066381
 20
62.775424
 30
0.0
 10
147.024104
 20
62.775424
 30
0.0
 10
146.748079
 20
62.775424
 30
0.0
 10
147.302130
 20
62.775424
 30
0.0
 10
146.736506
 20
92.572912
 30
0.0
 10
145.960259
 20
93.442701
 30
0.0
 10
145.137056
 20
93.732631
 30
0.0
 10
144.266903
 20
93.442701
 30
0.0
 10
143.349805
 20
92.572912
 30
0.0
 10
134.337603
 20
71.407614
 30
0.0
 10
133.104306
 20
71.011583
 30
0.0
 10
132.064805
 20
71.047778
 30
0.0
 10
131.219098
 20
71.516216
 30
0.0
 10
130.567184
 20
72.416914
 30
0.0
 10
124.944787
 20
94.955604
 30
0.0
 10
131.966089
 20
99.387410
 30
0.0
 10
131.966089
 20
105.937119
 30
0.0
 10
131.966089
 20
116.421426
 30
0.0
 10
130.302601
 20
116.685905
 30
0.0
 10
130.302601
 20
127.764008
 30
0.0
 10
83.190893
 20
128.293104
 30
0.0
 10
82.150481
 20
128.638445
 30
0.0
 10
81.347496
 20
129.209759
 30
0.0
 10
80.781960
 20
130.007045
 30
0.0
 10
80.453902
 20
131.030307
 30
0.0
 10
77.637287
 20
131.286813
 30
0.0
 10
76.124410
 20
130.548469
 30
0.0
 10
74.586047
 20
130.244101
 30
0.0
 10
73.022183
 20
130.373714
 30
0.0
 10
71.432809
 20
130.937317
 30
0.0
 10
69.931283
 20
132.010050
 30
0.0
 10
68.650798
 20
133.649490
 30
0.0
 10
67.591342
 20
135.855641
 30
0.0
 10
66.752893
 20
138.628508
 30
0.0
 10
66.898029
 20
142.831347
 30
0.0
 10
67.346048
 20
146.478544
 30
0.0
 10
68.096940
 20
149.570103
 30
0.0
 10
69.150690
 20
152.106030
 30
0.0
 10
70.783848
 20
154.734529
 30
0.0
 10
72.631853
 20
156.914338
 30
0.0
 10
74.694731
 20
158.645435
 30
0.0
 10
76.972513
 20
159.927816
 30
0.0
 10
78.378832
 20
160.177927
 30
0.0
 10
79.884005
 20
160.197909
 30
0.0
 10
81.488029
 20
159.987769
 30
0.0
 10
83.190893
 20
159.547516
 30
0.0
 10
88.270893
 20
155.578735
 30
0.0
 10
89.871886
 20
154.721550
 30
0.0
 10
91.602252
 20
154.047220
 30
0.0
 10
93.461987
 20
153.555741
 30
0.0
 10
95.451083
 20
153.247120
 30
0.0
 10
105.042617
 20
153.247120
 30
0.0
 10
105.042617
 20
155.297605
 30
0.0
 10
107.671907
 20
155.297605
 30
0.0
 10
107.671907
 20
153.247120
 30
0.0
 10
109.407889
 20
153.247120
 30
0.0
 10
109.407889
 20
158.952205
 30
0.0
 10
108.177014
 20
158.952205
 30
0.0
 10
108.177014
 20
165.169916
 30
0.0
 10
110.092287
 20
165.320448
 30
0.0
 10
111.877297
 20
165.717362
 30
0.0
 10
113.532042
 20
166.360657
 30
0.0
 10
115.056525
 20
167.250334
 30
0.0
 10
116.450739
 20
168.386386
 30
0.0
 10
117.714694
 20
169.768823
 30
0.0
 10
118.848381
 20
171.397638
 30
0.0
 10
119.851805
 20
173.272832
 30
0.0
 10
141.183995
 20
214.978114
 30
0.0
 10
142.569246
 20
217.926961
 30
0.0
 10
144.047735
 20
220.502210
 30
0.0
 10
145.619462
 20
222.703863
 30
0.0
 10
147.284426
 20
224.531915
 30
0.0
 10
149.042634
 20
225.986367
 30
0.0
 10
150.894082
 20
227.067219
 30
0.0
 10
152.838774
 20
227.774470
 30
0.0
 10
154.876712
 20
228.108116
 30
0.0
 10
169.925012
 20
232.176104
 30
0.0
 10
171.043388
 20
227.967324
 30
0.0
 10
177.284309
 20
229.625625
 30
0.0
 10
176.149389
 20
233.968709
 30
0.0
 10
196.020196
 20
239.051421
 30
0.0
 10
197.359693
 20
234.487326
 30
0.0
 10
203.311585
 20
236.022722
 30
0.0
 10
202.136587
 20
240.650001
 30
0.0
 10
220.458984
 20
245.280210
 30
0.0
 10
222.582799
 20
245.400030
 30
0.0
 10
224.586453
 20
245.265912
 30
0.0
 10
226.469948
 20
244.877857
 30
0.0
 10
228.233283
 20
244.235866
 30
0.0
 10
229.876466
 20
243.339946
 30
0.0
 10
231.399492
 20
242.190096
 30
0.0
 10
232.802368
 20
240.786317
 30
0.0
 10
234.085096
 20
239.128609
 30
0.0
 10
256.773186
 20
190.952926
 30
0.0
 10
258.015788
 20
188.413273
 30
0.0
 10
259.113802
 20
185.750001
 30
0.0
 10
260.067242
 20
182.963088
 30
0.0
 10
260.876105
 20
180.052513
 30
0.0
 10
262.207403
 20
172.729131
 30
0.0
 10
262.207347
 20
172.729131
 30
0.0
  0
LWPOLYLINE
  5
109
100
AcDbEntity
  8
Layer_1
 62
7
100
AcDbPolyline
 90
18
 70
0
 10
168.139288
 20
238.988913
 30
0.0
 10
152.727307
 20
234.954019
 30
0.0
 10
153.064173
 20
236.818962
 30
0.0
 10
153.580003
 20
238.488883
 30
0.0
 10
154.274797
 20
239.963782
 30
0.0
 10
155.148558
 20
241.243658
 30
0.0
 10
156.201289
 20
242.328509
 30
0.0
 10
157.432990
 20
243.218335
 30
0.0
 10
158.843665
 20
243.913135
 30
0.0
 10
160.433314
 20
244.412908
 30
0.0
 10
162.067592
 20
244.449497
 30
0.0
 10
163.510838
 20
244.274266
 30
0.0
 10
164.763048
 20
243.887236
 30
0.0
 10
165.824219
 20
243.288428
 30
0.0
 10
166.791555
 20
242.737840
 30
0.0
 10
167.499847
 20
241.837740
 30
0.0
 10
167.949092
 20
240.588105
 30
0.0
 10
168.139288
 20
238.988913
 30
0.0
  0
LWPOLYLINE
  5
10a
100
AcDbEntity
  8
Layer_1
 62
7
100
AcDbPolyline
 90
3
 70
1
 10
200.027416
 20
131.479170
 30
0.0
 10
200.027416
 20
131.479170
 30
0.0
 10
200.027416
 20
131.479170
 30
0.0
  0
ENDSEC
  0
SECTION
  2
OBJECTS
  0
DICTIONARY
  5
C
330
0
100
AcDbDictionary
  3
ACAD_GROUP
350
D
  3
ACAD_MLINESTYLE
350
17
  0
DICTIONARY
  5
D
330
C
100
AcDbDictionary
  0
DICTIONARY
  5
1A
330
C
100
AcDbDictionary
  0
DICTIONARY
  5
17
330
C
100
AcDbDictionary
  3
STANDARD
350
18
  0
DICTIONARY
  5
19
330
C
100
AcDbDictionary
  0
ENDSEC
  0
EOF
