  0
SECTION
  2
HEADER
  9
$ACADVER
  1
AC1004
  9
$INSBASE
 10
0.0
 20
0.0
  9
$EXTMIN
 10
-11.8765
 20
-5.938011811023622
  9
$EXTMAX
 10
-0.7457716535433071
 20
5.8865
  9
$LIMMIN
 10
0.0
 20
0.0
  9
$LIMMAX
 10
12.0
 20
9.0
  9
$ORTHOMODE
 70
     0
  9
$REGENMODE
 70
     1
  9
$FILLMODE
 70
     1
  9
$QTEXTMODE
 70
     0
  9
$DRAGMODE
 70
     2
  9
$LTSCALE
 40
1.0
  9
$OSMODE
 70
    37
  9
$ATTMODE
 70
     1
  9
$TEXTSIZE
 40
0.2
  9
$TRACEWID
 40
0.05
  9
$TEXTSTYLE
  7
STANDARD
  9
$CLAYER
  8
0
  9
$CELTYPE
  6
BYLAYER
  9
$CECOLOR
 62
   256
  9
$DIMSCALE
 40
1.0
  9
$DIMASZ
 40
0.18
  9
$DIMEXO
 40
0.0625
  9
$DIMDLI
 40
0.38
  9
$DIMRND
 40
0.0
  9
$DIMDLE
 40
0.0
  9
$DIMEXE
 40
0.18
  9
$DIMTP
 40
0.0
  9
$DIMTM
 40
0.0
  9
$DIMTXT
 40
0.18
  9
$DIMCEN
 40
0.09
  9
$DIMTSZ
 40
0.0
  9
$DIMTOL
 70
     0
  9
$DIMLIM
 70
     0
  9
$DIMTIH
 70
     1
  9
$DIMTOH
 70
     1
  9
$DIMSE1
 70
     0
  9
$DIMSE2
 70
     0
  9
$DIMTAD
 70
     0
  9
$DIMZIN
 70
     0
  9
$DIMBLK
  1

  9
$DIMASO
 70
     1
  9
$DIMSHO
 70
     1
  9
$DIMPOST
  1

  9
$DIMAPOST
  1

  9
$DIMALT
 70
     0
  9
$DIMALTD
 70
     2
  9
$DIMALTF
 40
25.4
  9
$DIMLFAC
 40
1.0
  9
$DIMTOFL
 70
     0
  9
$DIMTVP
 40
0.0
  9
$DIMTIX
 70
     0
  9
$DIMSOXD
 70
     0
  9
$DIMSAH
 70
     0
  9
$DIMBLK1
  1

  9
$DIMBLK2
  1

  9
$LUNITS
 70
     2
  9
$LUPREC
 70
     4
  9
$SKETCHINC
 40
0.1
  9
$FILLETRAD
 40
0.5
  9
$AUNITS
 70
     0
  9
$AUPREC
 70
     0
  9
$MENU
  1
.
  9
$ELEVATION
 40
0.0
  9
$THICKNESS
 40
0.0
  9
$LIMCHECK
 70
     0
  9
$CHAMFERA
 40
0.0
  9
$CHAMFERB
 40
0.0
  9
$SKPOLY
 70
     0
  9
$TDCREATE
 40
2457632.083500532
  9
$TDUPDATE
 40
2457632.083500532
  9
$TDINDWG
 40
0.0000000116
  9
$TDUSRTIMER
 40
0.0000000116
  9
$USRTIMER
 70
     1
  9
$ANGBASE
 50
0.0
  9
$ANGDIR
 70
     0
  9
$PDMODE
 70
     0
  9
$PDSIZE
 40
0.0
  9
$PLINEWID
 40
0.0
  9
$COORDS
 70
     1
  9
$SPLFRAME
 70
     0
  9
$SPLINETYPE
 70
     6
  9
$SPLINESEGS
 70
     8
  9
$ATTDIA
 70
     0
  9
$ATTREQ
 70
     1
  9
$SURFTAB1
 70
     6
  9
$SURFTAB2
 70
     6
  9
$SURFTYPE
 70
     6
  9
$SURFU
 70
     6
  9
$SURFV
 70
     6
  9
$UCSNAME
  2

  9
$UCSORG
 10
0.0
 20
0.0
 30
0.0
  9
$UCSXDIR
 10
1.0
 20
0.0
 30
0.0
  9
$UCSYDIR
 10
0.0
 20
1.0
 30
0.0
  9
$USERI1
 70
     0
  9
$USERI2
 70
     0
  9
$USERI3
 70
     0
  9
$USERI4
 70
     0
  9
$USERI5
 70
     0
  9
$USERR1
 40
0.0
  9
$USERR2
 40
0.0
  9
$USERR3
 40
0.0
  9
$USERR4
 40
0.0
  9
$USERR5
 40
0.0
  9
$WORLDVIEW
 70
     1
  0
ENDSEC
  0
SECTION
  2
TABLES
  0
TABLE
  2
LTYPE
 70
     1
  0
LTYPE
  2
CONTINUOUS
 70
     0
  3
Solid line
 72
    65
 73
     0
 40
0.0
  0
ENDTAB
  0
TABLE
  2
LAYER
 70
     2
  0
LAYER
  2
0
 70
     0
 62
     7
  6
CONTINUOUS
  0
LAYER
  2
LAYER_1
 70
     0
 62
     7
  6
CONTINUOUS
  0
ENDTAB
  0
TABLE
  2
STYLE
 70
     1
  0
STYLE
  2
STANDARD
 70
     0
 40
0.0
 41
1.0
 50
0.0
 71
     0
 42
0.2
  3
txt
  4

  0
ENDTAB
  0
TABLE
  2
VIEW
 70
     0
  0
ENDTAB
  0
ENDSEC
  0
SECTION
  2
BLOCKS
  0
ENDSEC
  0
SECTION
  2
ENTITIES
  0
POLYLINE
  8
LAYER_1
 62
     1
 66
     1
 70
     1
  0
VERTEX
  8
LAYER_1
 62
     1
 10
-11.875
 20
5.115
  0
VERTEX
  8
LAYER_1
 62
     1
 10
-0.875
 20
5.115
  0
VERTEX
  8
LAYER_1
 62
     1
 10
-0.875
 20
5.885
  0
VERTEX
  8
LAYER_1
 62
     1
 10
-11.875
 20
5.885
  0
VERTEX
  8
LAYER_1
 62
     1
 10
-11.875
 20
5.115
  0
SEQEND
  8
LAYER_1
 62
     1
  0
POLYLINE
  8
LAYER_1
 62
     1
 66
     1
 70
     1
  0
VERTEX
  8
LAYER_1
 62
     1
 10
-11.875
 20
4.345
  0
VERTEX
  8
LAYER_1
 62
     1
 10
-0.875
 20
4.345
  0
VERTEX
  8
LAYER_1
 62
     1
 10
-0.875
 20
5.115
  0
VERTEX
  8
LAYER_1
 62
     1
 10
-11.875
 20
5.115
  0
VERTEX
  8
LAYER_1
 62
     1
 10
-11.875
 20
4.345
  0
SEQEND
  8
LAYER_1
 62
     1
  0
POLYLINE
  8
LAYER_1
 62
     1
 66
     1
 70
     1
  0
VERTEX
  8
LAYER_1
 62
     1
 10
-11.875
 20
3.575
  0
VERTEX
  8
LAYER_1
 62
     1
 10
-0.875
 20
3.575
  0
VERTEX
  8
LAYER_1
 62
     1
 10
-0.875
 20
4.345
  0
VERTEX
  8
LAYER_1
 62
     1
 10
-11.875
 20
4.345
  0
VERTEX
  8
LAYER_1
 62
     1
 10
-11.875
 20
3.575
  0
SEQEND
  8
LAYER_1
 62
     1
  0
POLYLINE
  8
LAYER_1
 62
     1
 66
     1
 70
     1
  0
VERTEX
  8
LAYER_1
 62
     1
 10
-11.875
 20
2.805
  0
VERTEX
  8
LAYER_1
 62
     1
 10
-0.875
 20
2.805
  0
VERTEX
  8
LAYER_1
 62
     1
 10
-0.875
 20
3.575
  0
VERTEX
  8
LAYER_1
 62
     1
 10
-11.875
 20
3.575
  0
VERTEX
  8
LAYER_1
 62
     1
 10
-11.875
 20
2.805
  0
SEQEND
  8
LAYER_1
 62
     1
  0
POLYLINE
  8
LAYER_1
 62
     1
 66
     1
 70
     1
  0
VERTEX
  8
LAYER_1
 62
     1
 10
-11.875
 20
2.035
  0
VERTEX
  8
LAYER_1
 62
     1
 10
-0.875
 20
2.035
  0
VERTEX
  8
LAYER_1
 62
     1
 10
-0.875
 20
2.805
  0
VERTEX
  8
LAYER_1
 62
     1
 10
-11.875
 20
2.805
  0
VERTEX
  8
LAYER_1
 62
     1
 10
-11.875
 20
2.035
  0
SEQEND
  8
LAYER_1
 62
     1
  0
POLYLINE
  8
LAYER_1
 62
     1
 66
     1
 70
     1
  0
VERTEX
  8
LAYER_1
 62
     1
 10
-11.875
 20
1.265
  0
VERTEX
  8
LAYER_1
 62
     1
 10
-0.875
 20
1.265
  0
VERTEX
  8
LAYER_1
 62
     1
 10
-0.875
 20
2.035
  0
VERTEX
  8
LAYER_1
 62
     1
 10
-11.875
 20
2.035
  0
VERTEX
  8
LAYER_1
 62
     1
 10
-11.875
 20
1.265
  0
SEQEND
  8
LAYER_1
 62
     1
  0
POLYLINE
  8
LAYER_1
 62
     1
 66
     1
 70
     1
  0
VERTEX
  8
LAYER_1
 62
     1
 10
-11.875
 20
0.495
  0
VERTEX
  8
LAYER_1
 62
     1
 10
-0.875
 20
0.495
  0
VERTEX
  8
LAYER_1
 62
     1
 10
-0.875
 20
1.265
  0
VERTEX
  8
LAYER_1
 62
     1
 10
-11.875
 20
1.265
  0
VERTEX
  8
LAYER_1
 62
     1
 10
-11.875
 20
0.495
  0
SEQEND
  8
LAYER_1
 62
     1
  0
POLYLINE
  8
LAYER_1
 62
     1
 66
     1
 70
     1
  0
VERTEX
  8
LAYER_1
 62
     1
 10
-11.875
 20
-0.275
  0
VERTEX
  8
LAYER_1
 62
     1
 10
-0.875
 20
-0.275
  0
VERTEX
  8
LAYER_1
 62
     1
 10
-0.875
 20
0.495
  0
VERTEX
  8
LAYER_1
 62
     1
 10
-11.875
 20
0.495
  0
VERTEX
  8
LAYER_1
 62
     1
 10
-11.875
 20
-0.275
  0
SEQEND
  8
LAYER_1
 62
     1
  0
POLYLINE
  8
LAYER_1
 62
     4
 66
     1
 70
     1
  0
VERTEX
  8
LAYER_1
 62
     4
 10
-8.120287401574803
 20
3.44
  0
VERTEX
  8
LAYER_1
 62
     4
 10
-6.870287401574803
 20
3.44
  0
VERTEX
  8
LAYER_1
 62
     4
 10
-6.870287401574803
 20
2.94
  0
VERTEX
  8
LAYER_1
 62
     4
 10
-8.120287401574803
 20
2.94
  0
VERTEX
  8
LAYER_1
 62
     4
 10
-8.120287401574803
 20
3.44
  0
SEQEND
  8
LAYER_1
 62
     4
  0
POLYLINE
  8
LAYER_1
 62
     4
 66
     1
 70
     1
  0
VERTEX
  8
LAYER_1
 62
     4
 10
-6.831948818897637
 20
2.8775
  0
VERTEX
  8
LAYER_1
 62
     4
 10
-8.215287401574804
 20
2.8775
  0
VERTEX
  8
LAYER_1
 62
     4
 10
-8.215287401574804
 20
3.5025
  0
VERTEX
  8
LAYER_1
 62
     4
 10
-6.831948818897637
 20
3.5025
  0
VERTEX
  8
LAYER_1
 62
     4
 10
-6.780909448818898
 20
3.424374015748032
  0
VERTEX
  8
LAYER_1
 62
     4
 10
-6.744452755905511
 20
3.346248031496063
  0
VERTEX
  8
LAYER_1
 62
     4
 10
-6.722578740157481
 20
3.268122047244094
  0
VERTEX
  8
LAYER_1
 62
     4
 10
-6.715287401574803
 20
3.19
  0
VERTEX
  8
LAYER_1
 62
     4
 10
-6.722578740157481
 20
3.111874015748032
  0
VERTEX
  8
LAYER_1
 62
     4
 10
-6.744452755905511
 20
3.033748031496063
  0
VERTEX
  8
LAYER_1
 62
     4
 10
-6.780909448818898
 20
2.955625984251968
  0
VERTEX
  8
LAYER_1
 62
     4
 10
-6.831948818897637
 20
2.8775
  0
SEQEND
  8
LAYER_1
 62
     4
  0
POLYLINE
  8
LAYER_1
 62
     4
 66
     1
 70
     1
  0
VERTEX
  8
LAYER_1
 62
     4
 10
-5.626507874015748
 20
1.899996062992126
  0
VERTEX
  8
LAYER_1
 62
     4
 10
-4.376507874015748
 20
1.899996062992126
  0
VERTEX
  8
LAYER_1
 62
     4
 10
-4.376507874015748
 20
1.399996062992126
  0
VERTEX
  8
LAYER_1
 62
     4
 10
-5.626507874015748
 20
1.399996062992126
  0
VERTEX
  8
LAYER_1
 62
     4
 10
-5.626507874015748
 20
1.899996062992126
  0
SEQEND
  8
LAYER_1
 62
     4
  0
POLYLINE
  8
LAYER_1
 62
     4
 66
     1
 70
     1
  0
VERTEX
  8
LAYER_1
 62
     4
 10
-4.338169291338582
 20
1.337496062992126
  0
VERTEX
  8
LAYER_1
 62
     4
 10
-5.721507874015748
 20
1.337496062992126
  0
VERTEX
  8
LAYER_1
 62
     4
 10
-5.721507874015748
 20
1.962496062992126
  0
VERTEX
  8
LAYER_1
 62
     4
 10
-4.338169291338582
 20
1.962496062992126
  0
VERTEX
  8
LAYER_1
 62
     4
 10
-4.287129921259843
 20
1.884370078740157
  0
VERTEX
  8
LAYER_1
 62
     4
 10
-4.250673228346456
 20
1.806244094488189
  0
VERTEX
  8
LAYER_1
 62
     4
 10
-4.228799212598426
 20
1.72811811023622
  0
VERTEX
  8
LAYER_1
 62
     4
 10
-4.221507874015748
 20
1.649996062992126
  0
VERTEX
  8
LAYER_1
 62
     4
 10
-4.228799212598426
 20
1.571870078740157
  0
VERTEX
  8
LAYER_1
 62
     4
 10
-4.250673228346456
 20
1.493744094488189
  0
VERTEX
  8
LAYER_1
 62
     4
 10
-4.287129921259843
 20
1.415622047244095
  0
VERTEX
  8
LAYER_1
 62
     4
 10
-4.338169291338582
 20
1.337496062992126
  0
SEQEND
  8
LAYER_1
 62
     4
  0
POLYLINE
  8
LAYER_1
 62
     4
 66
     1
 70
     1
  0
VERTEX
  8
LAYER_1
 62
     4
 10
-3.129996062992126
 20
5.8125
  0
VERTEX
  8
LAYER_1
 62
     4
 10
-1.879996062992126
 20
5.8125
  0
VERTEX
  8
LAYER_1
 62
     4
 10
-1.879996062992126
 20
5.1875
  0
VERTEX
  8
LAYER_1
 62
     4
 10
-3.129996062992126
 20
5.1875
  0
VERTEX
  8
LAYER_1
 62
     4
 10
-3.129996062992126
 20
5.8125
  0
SEQEND
  8
LAYER_1
 62
     4
  0
POLYLINE
  8
LAYER_1
 62
     4
 66
     1
  0
VERTEX
  8
LAYER_1
 62
     4
 10
-3.129996062992126
 20
5.75
  0
VERTEX
  8
LAYER_1
 62
     4
 10
-1.93655905511811
 20
5.75
  0
VERTEX
  8
LAYER_1
 62
     4
 10
-1.93655905511811
 20
5.25
  0
VERTEX
  8
LAYER_1
 62
     4
 10
-3.129996062992126
 20
5.25
  0
SEQEND
  8
LAYER_1
 62
     4
  0
POLYLINE
  8
LAYER_1
 62
     4
 66
     1
 70
     1
  0
VERTEX
  8
LAYER_1
 62
     4
 10
-3.129996062992126
 20
4.4175
  0
VERTEX
  8
LAYER_1
 62
     4
 10
-1.879996062992126
 20
4.4175
  0
VERTEX
  8
LAYER_1
 62
     4
 10
-1.879996062992126
 20
5.0425
  0
VERTEX
  8
LAYER_1
 62
     4
 10
-3.129996062992126
 20
5.0425
  0
VERTEX
  8
LAYER_1
 62
     4
 10
-3.129996062992126
 20
4.4175
  0
SEQEND
  8
LAYER_1
 62
     4
  0
POLYLINE
  8
LAYER_1
 62
     4
 66
     1
  0
VERTEX
  8
LAYER_1
 62
     4
 10
-3.129996062992126
 20
4.98
  0
VERTEX
  8
LAYER_1
 62
     4
 10
-1.93655905511811
 20
4.98
  0
VERTEX
  8
LAYER_1
 62
     4
 10
-1.93655905511811
 20
4.48
  0
VERTEX
  8
LAYER_1
 62
     4
 10
-3.129996062992126
 20
4.48
  0
SEQEND
  8
LAYER_1
 62
     4
  0
POLYLINE
  8
LAYER_1
 62
     4
 66
     1
 70
     1
  0
VERTEX
  8
LAYER_1
 62
     4
 10
-3.129996062992126
 20
3.6475
  0
VERTEX
  8
LAYER_1
 62
     4
 10
-1.879996062992126
 20
3.6475
  0
VERTEX
  8
LAYER_1
 62
     4
 10
-1.879996062992126
 20
4.2725
  0
VERTEX
  8
LAYER_1
 62
     4
 10
-3.129996062992126
 20
4.2725
  0
VERTEX
  8
LAYER_1
 62
     4
 10
-3.129996062992126
 20
3.6475
  0
SEQEND
  8
LAYER_1
 62
     4
  0
POLYLINE
  8
LAYER_1
 62
     4
 66
     1
  0
VERTEX
  8
LAYER_1
 62
     4
 10
-3.129996062992126
 20
4.21
  0
VERTEX
  8
LAYER_1
 62
     4
 10
-1.93655905511811
 20
4.21
  0
VERTEX
  8
LAYER_1
 62
     4
 10
-1.93655905511811
 20
3.71
  0
VERTEX
  8
LAYER_1
 62
     4
 10
-3.129996062992126
 20
3.71
  0
SEQEND
  8
LAYER_1
 62
     4
  0
POLYLINE
  8
LAYER_1
 62
     4
 66
     1
 70
     1
  0
VERTEX
  8
LAYER_1
 62
     4
 10
-3.129996062992126
 20
2.8775
  0
VERTEX
  8
LAYER_1
 62
     4
 10
-1.879996062992126
 20
2.8775
  0
VERTEX
  8
LAYER_1
 62
     4
 10
-1.879996062992126
 20
3.5025
  0
VERTEX
  8
LAYER_1
 62
     4
 10
-3.129996062992126
 20
3.5025
  0
VERTEX
  8
LAYER_1
 62
     4
 10
-3.129996062992126
 20
2.8775
  0
SEQEND
  8
LAYER_1
 62
     4
  0
POLYLINE
  8
LAYER_1
 62
     4
 66
     1
  0
VERTEX
  8
LAYER_1
 62
     4
 10
-3.129996062992126
 20
3.44
  0
VERTEX
  8
LAYER_1
 62
     4
 10
-1.93655905511811
 20
3.44
  0
VERTEX
  8
LAYER_1
 62
     4
 10
-1.93655905511811
 20
2.94
  0
VERTEX
  8
LAYER_1
 62
     4
 10
-3.129996062992126
 20
2.94
  0
SEQEND
  8
LAYER_1
 62
     4
  0
POLYLINE
  8
LAYER_1
 62
     4
 66
     1
 70
     1
  0
VERTEX
  8
LAYER_1
 62
     4
 10
-3.129996062992126
 20
2.1075
  0
VERTEX
  8
LAYER_1
 62
     4
 10
-1.879996062992126
 20
2.1075
  0
VERTEX
  8
LAYER_1
 62
     4
 10
-1.879996062992126
 20
2.7325
  0
VERTEX
  8
LAYER_1
 62
     4
 10
-3.129996062992126
 20
2.7325
  0
VERTEX
  8
LAYER_1
 62
     4
 10
-3.129996062992126
 20
2.1075
  0
SEQEND
  8
LAYER_1
 62
     4
  0
POLYLINE
  8
LAYER_1
 62
     4
 66
     1
  0
VERTEX
  8
LAYER_1
 62
     4
 10
-3.129996062992126
 20
2.67
  0
VERTEX
  8
LAYER_1
 62
     4
 10
-1.93655905511811
 20
2.67
  0
VERTEX
  8
LAYER_1
 62
     4
 10
-1.93655905511811
 20
2.17
  0
VERTEX
  8
LAYER_1
 62
     4
 10
-3.129996062992126
 20
2.17
  0
SEQEND
  8
LAYER_1
 62
     4
  0
POLYLINE
  8
LAYER_1
 62
     4
 66
     1
 70
     1
  0
VERTEX
  8
LAYER_1
 62
     4
 10
-3.129996062992126
 20
1.3375
  0
VERTEX
  8
LAYER_1
 62
     4
 10
-1.879996062992126
 20
1.3375
  0
VERTEX
  8
LAYER_1
 62
     4
 10
-1.879996062992126
 20
1.9625
  0
VERTEX
  8
LAYER_1
 62
     4
 10
-3.129996062992126
 20
1.9625
  0
VERTEX
  8
LAYER_1
 62
     4
 10
-3.129996062992126
 20
1.3375
  0
SEQEND
  8
LAYER_1
 62
     4
  0
POLYLINE
  8
LAYER_1
 62
     4
 66
     1
  0
VERTEX
  8
LAYER_1
 62
     4
 10
-3.129996062992126
 20
1.9
  0
VERTEX
  8
LAYER_1
 62
     4
 10
-1.93655905511811
 20
1.9
  0
VERTEX
  8
LAYER_1
 62
     4
 10
-1.93655905511811
 20
1.4
  0
VERTEX
  8
LAYER_1
 62
     4
 10
-3.129996062992126
 20
1.4
  0
SEQEND
  8
LAYER_1
 62
     4
  0
POLYLINE
  8
LAYER_1
 62
     4
 66
     1
 70
     1
  0
VERTEX
  8
LAYER_1
 62
     4
 10
-3.129996062992126
 20
0.5675
  0
VERTEX
  8
LAYER_1
 62
     4
 10
-1.879996062992126
 20
0.5675
  0
VERTEX
  8
LAYER_1
 62
     4
 10
-1.879996062992126
 20
1.1925
  0
VERTEX
  8
LAYER_1
 62
     4
 10
-3.129996062992126
 20
1.1925
  0
VERTEX
  8
LAYER_1
 62
     4
 10
-3.129996062992126
 20
0.5675
  0
SEQEND
  8
LAYER_1
 62
     4
  0
POLYLINE
  8
LAYER_1
 62
     4
 66
     1
  0
VERTEX
  8
LAYER_1
 62
     4
 10
-3.129996062992126
 20
1.13
  0
VERTEX
  8
LAYER_1
 62
     4
 10
-1.93655905511811
 20
1.13
  0
VERTEX
  8
LAYER_1
 62
     4
 10
-1.93655905511811
 20
0.63
  0
VERTEX
  8
LAYER_1
 62
     4
 10
-3.129996062992126
 20
0.63
  0
SEQEND
  8
LAYER_1
 62
     4
  0
POLYLINE
  8
LAYER_1
 62
     4
 66
     1
 70
     1
  0
VERTEX
  8
LAYER_1
 62
     4
 10
-3.129996062992126
 20
-0.2025
  0
VERTEX
  8
LAYER_1
 62
     4
 10
-1.879996062992126
 20
-0.2025
  0
VERTEX
  8
LAYER_1
 62
     4
 10
-1.879996062992126
 20
0.4225
  0
VERTEX
  8
LAYER_1
 62
     4
 10
-3.129996062992126
 20
0.4225
  0
VERTEX
  8
LAYER_1
 62
     4
 10
-3.129996062992126
 20
-0.2025
  0
SEQEND
  8
LAYER_1
 62
     4
  0
POLYLINE
  8
LAYER_1
 62
     4
 66
     1
  0
VERTEX
  8
LAYER_1
 62
     4
 10
-3.129996062992126
 20
0.36
  0
VERTEX
  8
LAYER_1
 62
     4
 10
-1.93655905511811
 20
0.36
  0
VERTEX
  8
LAYER_1
 62
     4
 10
-1.93655905511811
 20
-0.14
  0
VERTEX
  8
LAYER_1
 62
     4
 10
-3.129996062992126
 20
-0.14
  0
SEQEND
  8
LAYER_1
 62
     4
  0
POLYLINE
  8
LAYER_1
 66
     1
  0
VERTEX
  8
LAYER_1
 10
-3.275
 20
5.065003937007874
  0
VERTEX
  8
LAYER_1
 10
-11.875
 20
5.065003937007874
  0
SEQEND
  8
LAYER_1
  0
POLYLINE
  8
LAYER_1
 66
     1
  0
VERTEX
  8
LAYER_1
 10
-3.275
 20
4.295003937007874
  0
VERTEX
  8
LAYER_1
 10
-11.875
 20
4.295003937007874
  0
SEQEND
  8
LAYER_1
  0
POLYLINE
  8
LAYER_1
 66
     1
  0
VERTEX
  8
LAYER_1
 10
-3.275
 20
3.525003937007874
  0
VERTEX
  8
LAYER_1
 10
-11.875
 20
3.525003937007874
  0
SEQEND
  8
LAYER_1
  0
POLYLINE
  8
LAYER_1
 66
     1
  0
VERTEX
  8
LAYER_1
 10
-3.275
 20
2.755003937007874
  0
VERTEX
  8
LAYER_1
 10
-11.875
 20
2.755003937007874
  0
SEQEND
  8
LAYER_1
  0
POLYLINE
  8
LAYER_1
 66
     1
  0
VERTEX
  8
LAYER_1
 10
-3.275
 20
1.985003937007874
  0
VERTEX
  8
LAYER_1
 10
-11.875
 20
1.985003937007874
  0
SEQEND
  8
LAYER_1
  0
POLYLINE
  8
LAYER_1
 66
     1
  0
VERTEX
  8
LAYER_1
 10
-3.275
 20
1.215003937007874
  0
VERTEX
  8
LAYER_1
 10
-11.875
 20
1.215003937007874
  0
SEQEND
  8
LAYER_1
  0
POLYLINE
  8
LAYER_1
 66
     1
  0
VERTEX
  8
LAYER_1
 10
-3.275
 20
0.445003937007874
  0
VERTEX
  8
LAYER_1
 10
-11.875
 20
0.445003937007874
  0
SEQEND
  8
LAYER_1
  0
POLYLINE
  8
LAYER_1
 62
     1
 66
     1
 70
     1
  0
VERTEX
  8
LAYER_1
 62
     1
 10
-6.50405905511811
 20
5.225
  0
VERTEX
  8
LAYER_1
 62
     1
 10
-5.043980314960629
 20
5.225
  0
VERTEX
  8
LAYER_1
 62
     1
 10
-4.983826771653543
 20
5.293748031496063
  0
VERTEX
  8
LAYER_1
 62
     1
 10
-4.940858267716536
 20
5.3625
  0
VERTEX
  8
LAYER_1
 62
     1
 10
-4.91507874015748
 20
5.431248031496063
  0
VERTEX
  8
LAYER_1
 62
     1
 10
-4.906484251968504
 20
5.5
  0
VERTEX
  8
LAYER_1
 62
     1
 10
-4.91507874015748
 20
5.568748031496063
  0
VERTEX
  8
LAYER_1
 62
     1
 10
-4.940858267716536
 20
5.6375
  0
VERTEX
  8
LAYER_1
 62
     1
 10
-4.983826771653543
 20
5.706248031496063
  0
VERTEX
  8
LAYER_1
 62
     1
 10
-5.043980314960629
 20
5.775
  0
VERTEX
  8
LAYER_1
 62
     1
 10
-6.50405905511811
 20
5.775
  0
VERTEX
  8
LAYER_1
 62
     1
 10
-6.50405905511811
 20
5.225
  0
SEQEND
  8
LAYER_1
 62
     1
  0
POLYLINE
  8
LAYER_1
 62
     1
 66
     1
 70
     1
  0
VERTEX
  8
LAYER_1
 62
     1
 10
-8.87905905511811
 20
5.225
  0
VERTEX
  8
LAYER_1
 62
     1
 10
-7.418980314960629
 20
5.225
  0
VERTEX
  8
LAYER_1
 62
     1
 10
-7.358826771653543
 20
5.293748031496063
  0
VERTEX
  8
LAYER_1
 62
     1
 10
-7.315858267716536
 20
5.3625
  0
VERTEX
  8
LAYER_1
 62
     1
 10
-7.29007874015748
 20
5.431248031496063
  0
VERTEX
  8
LAYER_1
 62
     1
 10
-7.281484251968504
 20
5.5
  0
VERTEX
  8
LAYER_1
 62
     1
 10
-7.29007874015748
 20
5.568748031496063
  0
VERTEX
  8
LAYER_1
 62
     1
 10
-7.315858267716536
 20
5.6375
  0
VERTEX
  8
LAYER_1
 62
     1
 10
-7.358826771653543
 20
5.706248031496063
  0
VERTEX
  8
LAYER_1
 62
     1
 10
-7.418980314960629
 20
5.775
  0
VERTEX
  8
LAYER_1
 62
     1
 10
-8.87905905511811
 20
5.775
  0
VERTEX
  8
LAYER_1
 62
     1
 10
-8.87905905511811
 20
5.225
  0
SEQEND
  8
LAYER_1
 62
     1
  0
POLYLINE
  8
LAYER_1
 62
     1
 66
     1
 70
     1
  0
VERTEX
  8
LAYER_1
 62
     1
 10
-11.875
 20
5.225
  0
VERTEX
  8
LAYER_1
 62
     1
 10
-10.41492125984252
 20
5.225
  0
VERTEX
  8
LAYER_1
 62
     1
 10
-10.35476771653543
 20
5.293748031496063
  0
VERTEX
  8
LAYER_1
 62
     1
 10
-10.31179921259842
 20
5.3625
  0
VERTEX
  8
LAYER_1
 62
     1
 10
-10.28601968503937
 20
5.431248031496063
  0
VERTEX
  8
LAYER_1
 62
     1
 10
-10.27742519685039
 20
5.5
  0
VERTEX
  8
LAYER_1
 62
     1
 10
-10.28601968503937
 20
5.568748031496063
  0
VERTEX
  8
LAYER_1
 62
     1
 10
-10.31179921259842
 20
5.6375
  0
VERTEX
  8
LAYER_1
 62
     1
 10
-10.35476771653543
 20
5.706248031496063
  0
VERTEX
  8
LAYER_1
 62
     1
 10
-10.41492125984252
 20
5.775
  0
VERTEX
  8
LAYER_1
 62
     1
 10
-11.875
 20
5.775
  0
VERTEX
  8
LAYER_1
 62
     1
 10
-11.875
 20
5.225
  0
SEQEND
  8
LAYER_1
 62
     1
  0
POLYLINE
  8
LAYER_1
 62
     1
 66
     1
 70
     1
  0
VERTEX
  8
LAYER_1
 62
     1
 10
-9.343929133858268
 20
-1.775
  0
VERTEX
  8
LAYER_1
 62
     1
 10
-8.99038188976378
 20
-1.921444881889764
  0
VERTEX
  8
LAYER_1
 62
     1
 10
-8.636822834645669
 20
-2.067893700787402
  0
VERTEX
  8
LAYER_1
 62
     1
 10
-8.490374015748031
 20
-2.421452755905512
  0
VERTEX
  8
LAYER_1
 62
     1
 10
-8.343929133858268
 20
-2.775
  0
VERTEX
  8
LAYER_1
 62
     1
 10
-8.490374015748031
 20
-3.128547244094488
  0
VERTEX
  8
LAYER_1
 62
     1
 10
-8.636822834645669
 20
-3.482106299212599
  0
VERTEX
  8
LAYER_1
 62
     1
 10
-8.99038188976378
 20
-3.628555118110236
  0
VERTEX
  8
LAYER_1
 62
     1
 10
-9.343929133858268
 20
-3.775
  0
VERTEX
  8
LAYER_1
 62
     1
 10
-9.697476377952755
 20
-3.628555118110236
  0
VERTEX
  8
LAYER_1
 62
     1
 10
-10.05103543307087
 20
-3.482106299212599
  0
VERTEX
  8
LAYER_1
 62
     1
 10
-10.1974842519685
 20
-3.128547244094488
  0
VERTEX
  8
LAYER_1
 62
     1
 10
-10.34392913385827
 20
-2.775
  0
VERTEX
  8
LAYER_1
 62
     1
 10
-10.1974842519685
 20
-2.421452755905512
  0
VERTEX
  8
LAYER_1
 62
     1
 10
-10.05103543307087
 20
-2.067893700787402
  0
VERTEX
  8
LAYER_1
 62
     1
 10
-9.697476377952755
 20
-1.921444881889764
  0
VERTEX
  8
LAYER_1
 62
     1
 10
-9.343929133858268
 20
-1.775
  0
SEQEND
  8
LAYER_1
 62
     1
  0
POLYLINE
  8
LAYER_1
 62
     1
 66
     1
  0
VERTEX
  8
LAYER_1
 62
     1
 10
-8.636822834645669
 20
-2.067893700787402
  0
VERTEX
  8
LAYER_1
 62
     1
 10
-8.410625984251968
 20
-1.974204724409449
  0
SEQEND
  8
LAYER_1
 62
     1
  0
POLYLINE
  8
LAYER_1
 62
     1
 66
     1
  0
VERTEX
  8
LAYER_1
 62
     1
 10
-8.117736220472441
 20
-2.868692913385827
  0
VERTEX
  8
LAYER_1
 62
     1
 10
-8.343929133858268
 20
-2.775
  0
VERTEX
  8
LAYER_1
 62
     1
 10
-8.117736220472441
 20
-2.681311023622047
  0
SEQEND
  8
LAYER_1
 62
     1
  0
POLYLINE
  8
LAYER_1
 62
     1
 66
     1
  0
VERTEX
  8
LAYER_1
 62
     1
 10
-8.636822834645669
 20
-2.067893700787402
  0
VERTEX
  8
LAYER_1
 62
     1
 10
-8.543129921259842
 20
-1.841700787401575
  0
SEQEND
  8
LAYER_1
 62
     1
  0
POLYLINE
  8
LAYER_1
 62
     1
 66
     1
  0
VERTEX
  8
LAYER_1
 62
     1
 10
-9.250236220472441
 20
-1.548811023622047
  0
VERTEX
  8
LAYER_1
 62
     1
 10
-9.343929133858268
 20
-1.775
  0
VERTEX
  8
LAYER_1
 62
     1
 10
-9.43761811023622
 20
-1.548811023622047
  0
SEQEND
  8
LAYER_1
 62
     1
  0
POLYLINE
  8
LAYER_1
 62
     1
 66
     1
  0
VERTEX
  8
LAYER_1
 62
     1
 10
-10.14472440944882
 20
-1.841700787401575
  0
VERTEX
  8
LAYER_1
 62
     1
 10
-10.05103543307087
 20
-2.067893700787402
  0
VERTEX
  8
LAYER_1
 62
     1
 10
-10.27722834645669
 20
-1.974204724409449
  0
SEQEND
  8
LAYER_1
 62
     1
  0
POLYLINE
  8
LAYER_1
 62
     1
 66
     1
  0
VERTEX
  8
LAYER_1
 62
     1
 10
-10.57011811023622
 20
-2.681311023622047
  0
VERTEX
  8
LAYER_1
 62
     1
 10
-10.34392913385827
 20
-2.775
  0
VERTEX
  8
LAYER_1
 62
     1
 10
-10.57011811023622
 20
-2.868692913385827
  0
SEQEND
  8
LAYER_1
 62
     1
  0
POLYLINE
  8
LAYER_1
 62
     1
 66
     1
  0
VERTEX
  8
LAYER_1
 62
     1
 10
-10.14472440944882
 20
-3.708303149606299
  0
VERTEX
  8
LAYER_1
 62
     1
 10
-10.05103543307087
 20
-3.482106299212599
  0
VERTEX
  8
LAYER_1
 62
     1
 10
-10.27722834645669
 20
-3.575799212598425
  0
SEQEND
  8
LAYER_1
 62
     1
  0
POLYLINE
  8
LAYER_1
 62
     1
 66
     1
  0
VERTEX
  8
LAYER_1
 62
     1
 10
-9.43761811023622
 20
-4.001192913385827
  0
VERTEX
  8
LAYER_1
 62
     1
 10
-9.343929133858268
 20
-3.775
  0
VERTEX
  8
LAYER_1
 62
     1
 10
-9.250236220472441
 20
-4.001192913385827
  0
SEQEND
  8
LAYER_1
 62
     1
  0
POLYLINE
  8
LAYER_1
 62
     1
 66
     1
  0
VERTEX
  8
LAYER_1
 62
     1
 10
-8.543129921259842
 20
-3.708303149606299
  0
VERTEX
  8
LAYER_1
 62
     1
 10
-8.636822834645669
 20
-3.482106299212599
  0
VERTEX
  8
LAYER_1
 62
     1
 10
-8.410625984251968
 20
-3.575799212598425
  0
SEQEND
  8
LAYER_1
 62
     1
  0
POLYLINE
  8
LAYER_1
 62
     1
 66
     1
 70
     1
  0
VERTEX
  8
LAYER_1
 62
     1
 10
-9.343929133858268
 20
-0.275
  0
VERTEX
  8
LAYER_1
 62
     1
 10
-8.46005905511811
 20
-0.6411141732283464
  0
VERTEX
  8
LAYER_1
 62
     1
 10
-7.576161417322835
 20
-1.007232283464567
  0
VERTEX
  8
LAYER_1
 62
     1
 10
-7.210043307086615
 20
-1.891129921259842
  0
VERTEX
  8
LAYER_1
 62
     1
 10
-6.843929133858268
 20
-2.775
  0
VERTEX
  8
LAYER_1
 62
     1
 10
-7.210043307086615
 20
-3.658870078740157
  0
VERTEX
  8
LAYER_1
 62
     1
 10
-7.576161417322835
 20
-4.542767716535433
  0
VERTEX
  8
LAYER_1
 62
     1
 10
-8.46005905511811
 20
-4.908885826771654
  0
VERTEX
  8
LAYER_1
 62
     1
 10
-9.343929133858268
 20
-5.275
  0
VERTEX
  8
LAYER_1
 62
     1
 10
-10.22779921259843
 20
-4.908885826771654
  0
VERTEX
  8
LAYER_1
 62
     1
 10
-11.1116968503937
 20
-4.542767716535433
  0
VERTEX
  8
LAYER_1
 62
     1
 10
-11.47781496062992
 20
-3.658870078740157
  0
VERTEX
  8
LAYER_1
 62
     1
 10
-11.84392913385827
 20
-2.775
  0
VERTEX
  8
LAYER_1
 62
     1
 10
-11.47781496062992
 20
-1.891129921259842
  0
VERTEX
  8
LAYER_1
 62
     1
 10
-11.1116968503937
 20
-1.007232283464567
  0
VERTEX
  8
LAYER_1
 62
     1
 10
-10.22779921259843
 20
-0.6411141732283464
  0
VERTEX
  8
LAYER_1
 62
     1
 10
-9.343929133858268
 20
-0.275
  0
SEQEND
  8
LAYER_1
 62
     1
  0
POLYLINE
  8
LAYER_1
 62
     1
 66
     1
  0
VERTEX
  8
LAYER_1
 62
     1
 10
-9.250236220472441
 20
-1.548811023622047
  0
VERTEX
  8
LAYER_1
 62
     1
 10
-8.543129921259842
 20
-1.841700787401575
  0
SEQEND
  8
LAYER_1
 62
     1
  0
POLYLINE
  8
LAYER_1
 62
     1
 66
     1
  0
VERTEX
  8
LAYER_1
 62
     1
 10
-8.410625984251968
 20
-1.974204724409449
  0
VERTEX
  8
LAYER_1
 62
     1
 10
-8.117736220472441
 20
-2.681311023622047
  0
SEQEND
  8
LAYER_1
 62
     1
  0
POLYLINE
  8
LAYER_1
 62
     1
 66
     1
  0
VERTEX
  8
LAYER_1
 62
     1
 10
-8.117736220472441
 20
-2.868692913385827
  0
VERTEX
  8
LAYER_1
 62
     1
 10
-8.410625984251968
 20
-3.575799212598425
  0
SEQEND
  8
LAYER_1
 62
     1
  0
POLYLINE
  8
LAYER_1
 62
     1
 66
     1
  0
VERTEX
  8
LAYER_1
 62
     1
 10
-8.543129921259842
 20
-3.708303149606299
  0
VERTEX
  8
LAYER_1
 62
     1
 10
-9.250236220472441
 20
-4.001192913385827
  0
SEQEND
  8
LAYER_1
 62
     1
  0
POLYLINE
  8
LAYER_1
 62
     1
 66
     1
  0
VERTEX
  8
LAYER_1
 62
     1
 10
-9.43761811023622
 20
-4.001192913385827
  0
VERTEX
  8
LAYER_1
 62
     1
 10
-10.14472440944882
 20
-3.708303149606299
  0
SEQEND
  8
LAYER_1
 62
     1
  0
POLYLINE
  8
LAYER_1
 62
     1
 66
     1
  0
VERTEX
  8
LAYER_1
 62
     1
 10
-10.27722834645669
 20
-3.575799212598425
  0
VERTEX
  8
LAYER_1
 62
     1
 10
-10.57011811023622
 20
-2.868692913385827
  0
SEQEND
  8
LAYER_1
 62
     1
  0
POLYLINE
  8
LAYER_1
 62
     1
 66
     1
  0
VERTEX
  8
LAYER_1
 62
     1
 10
-10.57011811023622
 20
-2.681311023622047
  0
VERTEX
  8
LAYER_1
 62
     1
 10
-10.27722834645669
 20
-1.974204724409449
  0
SEQEND
  8
LAYER_1
 62
     1
  0
POLYLINE
  8
LAYER_1
 62
     1
 66
     1
  0
VERTEX
  8
LAYER_1
 62
     1
 10
-10.14472440944882
 20
-1.841700787401575
  0
VERTEX
  8
LAYER_1
 62
     1
 10
-9.43761811023622
 20
-1.548811023622047
  0
SEQEND
  8
LAYER_1
 62
     1
  0
POLYLINE
  8
LAYER_1
 62
     1
 66
     1
 70
     1
  0
VERTEX
  8
LAYER_1
 62
     1
 10
-5.660299212598425
 20
-0.7160393700787402
  0
VERTEX
  8
LAYER_1
 62
     1
 10
-5.306751968503937
 20
-0.862484251968504
  0
VERTEX
  8
LAYER_1
 62
     1
 10
-4.953192913385827
 20
-1.008933070866142
  0
VERTEX
  8
LAYER_1
 62
     1
 10
-4.806744094488189
 20
-1.362492125984252
  0
VERTEX
  8
LAYER_1
 62
     1
 10
-4.660299212598425
 20
-1.71603937007874
  0
VERTEX
  8
LAYER_1
 62
     1
 10
-4.806744094488189
 20
-2.069586614173228
  0
VERTEX
  8
LAYER_1
 62
     1
 10
-4.953192913385827
 20
-2.423145669291339
  0
VERTEX
  8
LAYER_1
 62
     1
 10
-5.306751968503937
 20
-2.569594488188976
  0
VERTEX
  8
LAYER_1
 62
     1
 10
-5.660299212598425
 20
-2.71603937007874
  0
VERTEX
  8
LAYER_1
 62
     1
 10
-6.013846456692914
 20
-2.569594488188976
  0
VERTEX
  8
LAYER_1
 62
     1
 10
-6.367405511811024
 20
-2.423145669291339
  0
VERTEX
  8
LAYER_1
 62
     1
 10
-6.513854330708662
 20
-2.069586614173228
  0
VERTEX
  8
LAYER_1
 62
     1
 10
-6.660299212598425
 20
-1.71603937007874
  0
VERTEX
  8
LAYER_1
 62
     1
 10
-6.513854330708662
 20
-1.362492125984252
  0
VERTEX
  8
LAYER_1
 62
     1
 10
-6.367405511811024
 20
-1.008933070866142
  0
VERTEX
  8
LAYER_1
 62
     1
 10
-6.013846456692914
 20
-0.862484251968504
  0
VERTEX
  8
LAYER_1
 62
     1
 10
-5.660299212598425
 20
-0.7160393700787402
  0
SEQEND
  8
LAYER_1
 62
     1
  0
POLYLINE
  8
LAYER_1
 62
     1
 66
     1
 70
     1
  0
VERTEX
  8
LAYER_1
 62
     1
 10
-5.660299212598425
 20
-0.4510393700787402
  0
VERTEX
  8
LAYER_1
 62
     1
 10
-5.21305905511811
 20
-0.6362952755905512
  0
VERTEX
  8
LAYER_1
 62
     1
 10
-4.765807086614173
 20
-0.8215472440944882
  0
VERTEX
  8
LAYER_1
 62
     1
 10
-4.580555118110237
 20
-1.268799212598425
  0
VERTEX
  8
LAYER_1
 62
     1
 10
-4.395299212598426
 20
-1.71603937007874
  0
VERTEX
  8
LAYER_1
 62
     1
 10
-4.580555118110237
 20
-2.163279527559055
  0
VERTEX
  8
LAYER_1
 62
     1
 10
-4.765807086614173
 20
-2.610531496062992
  0
VERTEX
  8
LAYER_1
 62
     1
 10
-5.21305905511811
 20
-2.795783464566929
  0
VERTEX
  8
LAYER_1
 62
     1
 10
-5.660299212598425
 20
-2.98103937007874
  0
VERTEX
  8
LAYER_1
 62
     1
 10
-6.10753937007874
 20
-2.795783464566929
  0
VERTEX
  8
LAYER_1
 62
     1
 10
-6.554791338582677
 20
-2.610531496062992
  0
VERTEX
  8
LAYER_1
 62
     1
 10
-6.740043307086614
 20
-2.163279527559055
  0
VERTEX
  8
LAYER_1
 62
     1
 10
-6.925299212598425
 20
-1.71603937007874
  0
VERTEX
  8
LAYER_1
 62
     1
 10
-6.740043307086614
 20
-1.268799212598425
  0
VERTEX
  8
LAYER_1
 62
     1
 10
-6.554791338582677
 20
-0.8215472440944882
  0
VERTEX
  8
LAYER_1
 62
     1
 10
-6.10753937007874
 20
-0.6362952755905512
  0
VERTEX
  8
LAYER_1
 62
     1
 10
-5.660299212598425
 20
-0.4510393700787402
  0
SEQEND
  8
LAYER_1
 62
     1
  0
POLYLINE
  8
LAYER_1
 62
     1
 66
     1
  0
VERTEX
  8
LAYER_1
 62
     1
 10
-4.348370078740158
 20
-0.9888228346456693
  0
VERTEX
  8
LAYER_1
 62
     1
 10
-4.304874015748031
 20
-1.073527559055118
  0
VERTEX
  8
LAYER_1
 62
     1
 10
-4.266944881889764
 20
-1.160555118110236
  0
VERTEX
  8
LAYER_1
 62
     1
 10
-4.234657480314961
 20
-1.249625984251969
  0
VERTEX
  8
LAYER_1
 62
     1
 10
-4.208078740157481
 20
-1.340472440944882
  0
VERTEX
  8
LAYER_1
 62
     1
 10
-4.187283464566929
 20
-1.432811023622047
  0
VERTEX
  8
LAYER_1
 62
     1
 10
-4.172338582677165
 20
-1.526370078740158
  0
VERTEX
  8
LAYER_1
 62
     1
 10
-4.163322834645669
 20
-1.620870078740158
  0
VERTEX
  8
LAYER_1
 62
     1
 10
-4.160299212598425
 20
-1.71603937007874
  0
VERTEX
  8
LAYER_1
 62
     1
 10
-4.190775590551181
 20
-2.01834251968504
  0
VERTEX
  8
LAYER_1
 62
     1
 10
-4.278177165354331
 20
-2.299905511811024
  0
VERTEX
  8
LAYER_1
 62
     1
 10
-4.416476377952756
 20
-2.554704724409449
  0
VERTEX
  8
LAYER_1
 62
     1
 10
-4.599641732283464
 20
-2.776700787401575
  0
VERTEX
  8
LAYER_1
 62
     1
 10
-4.821633858267717
 20
-2.95986220472441
  0
VERTEX
  8
LAYER_1
 62
     1
 10
-5.076433070866142
 20
-3.098161417322835
  0
VERTEX
  8
LAYER_1
 62
     1
 10
-5.357996062992126
 20
-3.185562992125984
  0
VERTEX
  8
LAYER_1
 62
     1
 10
-5.660299212598425
 20
-3.21603937007874
  0
VERTEX
  8
LAYER_1
 62
     1
 10
-5.962602362204724
 20
-3.185562992125984
  0
VERTEX
  8
LAYER_1
 62
     1
 10
-6.244165354330709
 20
-3.098161417322835
  0
VERTEX
  8
LAYER_1
 62
     1
 10
-6.498964566929134
 20
-2.95986220472441
  0
VERTEX
  8
LAYER_1
 62
     1
 10
-6.72096062992126
 20
-2.776700787401575
  0
VERTEX
  8
LAYER_1
 62
     1
 10
-6.904122047244094
 20
-2.554704724409449
  0
VERTEX
  8
LAYER_1
 62
     1
 10
-7.04242125984252
 20
-2.299905511811024
  0
VERTEX
  8
LAYER_1
 62
     1
 10
-7.129822834645669
 20
-2.01834251968504
  0
VERTEX
  8
LAYER_1
 62
     1
 10
-7.160299212598425
 20
-1.71603937007874
  0
VERTEX
  8
LAYER_1
 62
     1
 10
-7.139996062992126
 20
-1.469515748031496
  0
VERTEX
  8
LAYER_1
 62
     1
 10
-7.080984251968504
 20
-1.234366141732284
  0
VERTEX
  8
LAYER_1
 62
     1
 10
-6.986122047244095
 20
-1.014374015748031
  0
VERTEX
  8
LAYER_1
 62
     1
 10
-6.858251968503937
 20
-0.8133149606299213
  0
VERTEX
  8
LAYER_1
 62
     1
 10
-6.700228346456693
 20
-0.6349842519685039
  0
VERTEX
  8
LAYER_1
 62
     1
 10
-6.514905511811024
 20
-0.4831535433070866
  0
VERTEX
  8
LAYER_1
 62
     1
 10
-6.305129921259843
 20
-0.3616141732283464
  0
VERTEX
  8
LAYER_1
 62
     1
 10
-6.073755905511811
 20
-0.2741456692913386
  0
SEQEND
  8
LAYER_1
 62
     1
  0
POLYLINE
  8
LAYER_1
 62
     1
 66
     1
  0
VERTEX
  8
LAYER_1
 62
     1
 10
-4.953192913385827
 20
-1.008933070866142
  0
VERTEX
  8
LAYER_1
 62
     1
 10
-4.726996062992126
 20
-0.915244094488189
  0
SEQEND
  8
LAYER_1
 62
     1
  0
POLYLINE
  8
LAYER_1
 62
     1
 66
     1
  0
VERTEX
  8
LAYER_1
 62
     1
 10
-4.434106299212599
 20
-1.809732283464567
  0
VERTEX
  8
LAYER_1
 62
     1
 10
-4.660299212598425
 20
-1.71603937007874
  0
VERTEX
  8
LAYER_1
 62
     1
 10
-4.434106299212599
 20
-1.622350393700787
  0
SEQEND
  8
LAYER_1
 62
     1
  0
POLYLINE
  8
LAYER_1
 62
     1
 66
     1
  0
VERTEX
  8
LAYER_1
 62
     1
 10
-4.953192913385827
 20
-1.008933070866142
  0
VERTEX
  8
LAYER_1
 62
     1
 10
-4.8595
 20
-0.782740157480315
  0
SEQEND
  8
LAYER_1
 62
     1
  0
POLYLINE
  8
LAYER_1
 62
     1
 66
     1
  0
VERTEX
  8
LAYER_1
 62
     1
 10
-5.566606299212599
 20
-0.4898503937007874
  0
VERTEX
  8
LAYER_1
 62
     1
 10
-5.660299212598425
 20
-0.7160393700787402
  0
VERTEX
  8
LAYER_1
 62
     1
 10
-5.753988188976378
 20
-0.4898503937007874
  0
SEQEND
  8
LAYER_1
 62
     1
  0
POLYLINE
  8
LAYER_1
 62
     1
 66
     1
  0
VERTEX
  8
LAYER_1
 62
     1
 10
-6.461094488188976
 20
-0.782740157480315
  0
VERTEX
  8
LAYER_1
 62
     1
 10
-6.367405511811024
 20
-1.008933070866142
  0
VERTEX
  8
LAYER_1
 62
     1
 10
-6.59359842519685
 20
-0.915244094488189
  0
SEQEND
  8
LAYER_1
 62
     1
  0
POLYLINE
  8
LAYER_1
 62
     1
 66
     1
  0
VERTEX
  8
LAYER_1
 62
     1
 10
-6.886488188976378
 20
-1.622350393700787
  0
VERTEX
  8
LAYER_1
 62
     1
 10
-6.660299212598425
 20
-1.71603937007874
  0
VERTEX
  8
LAYER_1
 62
     1
 10
-6.886488188976378
 20
-1.809732283464567
  0
SEQEND
  8
LAYER_1
 62
     1
  0
POLYLINE
  8
LAYER_1
 62
     1
 66
     1
  0
VERTEX
  8
LAYER_1
 62
     1
 10
-6.461094488188976
 20
-2.649342519685039
  0
VERTEX
  8
LAYER_1
 62
     1
 10
-6.367405511811024
 20
-2.423145669291339
  0
VERTEX
  8
LAYER_1
 62
     1
 10
-6.59359842519685
 20
-2.516838582677166
  0
SEQEND
  8
LAYER_1
 62
     1
  0
POLYLINE
  8
LAYER_1
 62
     1
 66
     1
  0
VERTEX
  8
LAYER_1
 62
     1
 10
-5.753988188976378
 20
-2.942232283464567
  0
VERTEX
  8
LAYER_1
 62
     1
 10
-5.660299212598425
 20
-2.71603937007874
  0
VERTEX
  8
LAYER_1
 62
     1
 10
-5.566606299212599
 20
-2.942232283464567
  0
SEQEND
  8
LAYER_1
 62
     1
  0
POLYLINE
  8
LAYER_1
 62
     1
 66
     1
  0
VERTEX
  8
LAYER_1
 62
     1
 10
-4.8595
 20
-2.649342519685039
  0
VERTEX
  8
LAYER_1
 62
     1
 10
-4.953192913385827
 20
-2.423145669291339
  0
VERTEX
  8
LAYER_1
 62
     1
 10
-4.726996062992126
 20
-2.516838582677166
  0
SEQEND
  8
LAYER_1
 62
     1
  0
POLYLINE
  8
LAYER_1
 62
     1
 66
     1
  0
VERTEX
  8
LAYER_1
 62
     1
 10
-6.085303149606299
 20
-0.275
  0
VERTEX
  8
LAYER_1
 62
     1
 10
-4.340814960629921
 20
-0.9975866141732284
  0
SEQEND
  8
LAYER_1
 62
     1
  0
POLYLINE
  8
LAYER_1
 66
     1
 70
     1
  0
VERTEX
  8
LAYER_1
 10
-5.660299212598425
 20
-0.7160393700787402
  0
VERTEX
  8
LAYER_1
 10
-5.753988188976378
 20
-0.4898503937007874
  0
VERTEX
  8
LAYER_1
 10
-6.10753937007874
 20
-0.6362952755905512
  0
VERTEX
  8
LAYER_1
 10
-6.461094488188976
 20
-0.782740157480315
  0
VERTEX
  8
LAYER_1
 10
-6.367405511811024
 20
-1.008933070866142
  0
VERTEX
  8
LAYER_1
 10
-6.013846456692914
 20
-0.862484251968504
  0
VERTEX
  8
LAYER_1
 10
-5.660299212598425
 20
-0.7160393700787402
  0
SEQEND
  8
LAYER_1
  0
POLYLINE
  8
LAYER_1
 66
     1
 70
     1
  0
VERTEX
  8
LAYER_1
 10
-6.513854330708662
 20
-1.362492125984252
  0
VERTEX
  8
LAYER_1
 10
-6.367405511811024
 20
-1.008933070866142
  0
VERTEX
  8
LAYER_1
 10
-6.59359842519685
 20
-0.915244094488189
  0
VERTEX
  8
LAYER_1
 10
-6.740043307086614
 20
-1.268799212598425
  0
VERTEX
  8
LAYER_1
 10
-6.886488188976378
 20
-1.622350393700787
  0
VERTEX
  8
LAYER_1
 10
-6.660299212598425
 20
-1.71603937007874
  0
VERTEX
  8
LAYER_1
 10
-6.513854330708662
 20
-1.362492125984252
  0
SEQEND
  8
LAYER_1
  0
POLYLINE
  8
LAYER_1
 66
     1
 70
     1
  0
VERTEX
  8
LAYER_1
 10
-6.013846456692914
 20
-2.569594488188976
  0
VERTEX
  8
LAYER_1
 10
-6.367405511811024
 20
-2.423145669291339
  0
VERTEX
  8
LAYER_1
 10
-6.461094488188976
 20
-2.649342519685039
  0
VERTEX
  8
LAYER_1
 10
-6.10753937007874
 20
-2.795783464566929
  0
VERTEX
  8
LAYER_1
 10
-5.753988188976378
 20
-2.942232283464567
  0
VERTEX
  8
LAYER_1
 10
-5.660299212598425
 20
-2.71603937007874
  0
VERTEX
  8
LAYER_1
 10
-6.013846456692914
 20
-2.569594488188976
  0
SEQEND
  8
LAYER_1
  0
POLYLINE
  8
LAYER_1
 66
     1
 70
     1
  0
VERTEX
  8
LAYER_1
 10
-5.306751968503937
 20
-2.569594488188976
  0
VERTEX
  8
LAYER_1
 10
-5.660299212598425
 20
-2.71603937007874
  0
VERTEX
  8
LAYER_1
 10
-5.566606299212599
 20
-2.942228346456693
  0
VERTEX
  8
LAYER_1
 10
-5.21305905511811
 20
-2.795783464566929
  0
VERTEX
  8
LAYER_1
 10
-4.8595
 20
-2.649342519685039
  0
VERTEX
  8
LAYER_1
 10
-4.953192913385827
 20
-2.423145669291339
  0
VERTEX
  8
LAYER_1
 10
-5.306751968503937
 20
-2.569594488188976
  0
SEQEND
  8
LAYER_1
  0
POLYLINE
  8
LAYER_1
 66
     1
 70
     1
  0
VERTEX
  8
LAYER_1
 10
-6.367405511811024
 20
-2.423145669291339
  0
VERTEX
  8
LAYER_1
 10
-6.513854330708662
 20
-2.069586614173228
  0
VERTEX
  8
LAYER_1
 10
-6.660299212598425
 20
-1.71603937007874
  0
VERTEX
  8
LAYER_1
 10
-6.886488188976378
 20
-1.809732283464567
  0
VERTEX
  8
LAYER_1
 10
-6.740043307086614
 20
-2.163279527559055
  0
VERTEX
  8
LAYER_1
 10
-6.59359842519685
 20
-2.516838582677166
  0
VERTEX
  8
LAYER_1
 10
-6.367405511811024
 20
-2.423145669291339
  0
SEQEND
  8
LAYER_1
  0
POLYLINE
  8
LAYER_1
 66
     1
 70
     1
  0
VERTEX
  8
LAYER_1
 10
-4.806744094488189
 20
-1.362492125984252
  0
VERTEX
  8
LAYER_1
 10
-4.660299212598425
 20
-1.71603937007874
  0
VERTEX
  8
LAYER_1
 10
-4.434106299212599
 20
-1.622350393700787
  0
VERTEX
  8
LAYER_1
 10
-4.580555118110237
 20
-1.268799212598425
  0
VERTEX
  8
LAYER_1
 10
-4.726996062992126
 20
-0.915244094488189
  0
VERTEX
  8
LAYER_1
 10
-4.953192913385827
 20
-1.008933070866142
  0
VERTEX
  8
LAYER_1
 10
-4.806744094488189
 20
-1.362492125984252
  0
SEQEND
  8
LAYER_1
  0
POLYLINE
  8
LAYER_1
 66
     1
 70
     1
  0
VERTEX
  8
LAYER_1
 10
-4.660299212598425
 20
-1.71603937007874
  0
VERTEX
  8
LAYER_1
 10
-4.806744094488189
 20
-2.069586614173228
  0
VERTEX
  8
LAYER_1
 10
-4.953192913385827
 20
-2.423145669291339
  0
VERTEX
  8
LAYER_1
 10
-4.727
 20
-2.516838582677166
  0
VERTEX
  8
LAYER_1
 10
-4.580555118110237
 20
-2.163279527559055
  0
VERTEX
  8
LAYER_1
 10
-4.434106299212599
 20
-1.809732283464567
  0
VERTEX
  8
LAYER_1
 10
-4.660299212598425
 20
-1.71603937007874
  0
SEQEND
  8
LAYER_1
  0
POLYLINE
  8
LAYER_1
 62
     1
 66
     1
 70
     1
  0
VERTEX
  8
LAYER_1
 62
     1
 10
-2.262393700787402
 20
-0.8140511811023622
  0
VERTEX
  8
LAYER_1
 62
     1
 10
-1.908846456692913
 20
-0.960496062992126
  0
VERTEX
  8
LAYER_1
 62
     1
 10
-1.555287401574803
 20
-1.106944881889764
  0
VERTEX
  8
LAYER_1
 62
     1
 10
-1.408838582677165
 20
-1.460503937007874
  0
VERTEX
  8
LAYER_1
 62
     1
 10
-1.262393700787402
 20
-1.814051181102362
  0
VERTEX
  8
LAYER_1
 62
     1
 10
-1.408838582677165
 20
-2.167598425196851
  0
VERTEX
  8
LAYER_1
 62
     1
 10
-1.555287401574803
 20
-2.521157480314961
  0
VERTEX
  8
LAYER_1
 62
     1
 10
-1.908846456692913
 20
-2.667606299212598
  0
VERTEX
  8
LAYER_1
 62
     1
 10
-2.262393700787402
 20
-2.814051181102362
  0
VERTEX
  8
LAYER_1
 62
     1
 10
-2.61594094488189
 20
-2.667606299212598
  0
VERTEX
  8
LAYER_1
 62
     1
 10
-2.9695
 20
-2.521157480314961
  0
VERTEX
  8
LAYER_1
 62
     1
 10
-3.115948818897638
 20
-2.167598425196851
  0
VERTEX
  8
LAYER_1
 62
     1
 10
-3.262393700787402
 20
-1.814051181102362
  0
VERTEX
  8
LAYER_1
 62
     1
 10
-3.115948818897638
 20
-1.460503937007874
  0
VERTEX
  8
LAYER_1
 62
     1
 10
-2.9695
 20
-1.106944881889764
  0
VERTEX
  8
LAYER_1
 62
     1
 10
-2.61594094488189
 20
-0.960496062992126
  0
VERTEX
  8
LAYER_1
 62
     1
 10
-2.262393700787402
 20
-0.8140511811023622
  0
SEQEND
  8
LAYER_1
 62
     1
  0
POLYLINE
  8
LAYER_1
 62
     1
 66
     1
  0
VERTEX
  8
LAYER_1
 62
     1
 10
-1.555287401574803
 20
-1.106944881889764
  0
VERTEX
  8
LAYER_1
 62
     1
 10
-1.329090551181102
 20
-1.013255905511811
  0
SEQEND
  8
LAYER_1
 62
     1
  0
POLYLINE
  8
LAYER_1
 62
     1
 66
     1
  0
VERTEX
  8
LAYER_1
 62
     1
 10
-1.036200787401575
 20
-1.907744094488189
  0
VERTEX
  8
LAYER_1
 62
     1
 10
-1.262393700787402
 20
-1.814051181102362
  0
VERTEX
  8
LAYER_1
 62
     1
 10
-1.036200787401575
 20
-1.720362204724409
  0
SEQEND
  8
LAYER_1
 62
     1
  0
POLYLINE
  8
LAYER_1
 62
     1
 66
     1
  0
VERTEX
  8
LAYER_1
 62
     1
 10
-1.555287401574803
 20
-1.106944881889764
  0
VERTEX
  8
LAYER_1
 62
     1
 10
-1.461594488188976
 20
-0.880751968503937
  0
SEQEND
  8
LAYER_1
 62
     1
  0
POLYLINE
  8
LAYER_1
 62
     1
 66
     1
  0
VERTEX
  8
LAYER_1
 62
     1
 10
-2.168700787401575
 20
-0.5878622047244094
  0
VERTEX
  8
LAYER_1
 62
     1
 10
-2.262393700787402
 20
-0.8140511811023622
  0
VERTEX
  8
LAYER_1
 62
     1
 10
-2.356082677165354
 20
-0.5878622047244094
  0
SEQEND
  8
LAYER_1
 62
     1
  0
POLYLINE
  8
LAYER_1
 62
     1
 66
     1
  0
VERTEX
  8
LAYER_1
 62
     1
 10
-3.063188976377953
 20
-0.880751968503937
  0
VERTEX
  8
LAYER_1
 62
     1
 10
-2.9695
 20
-1.106944881889764
  0
VERTEX
  8
LAYER_1
 62
     1
 10
-3.195692913385827
 20
-1.013255905511811
  0
SEQEND
  8
LAYER_1
 62
     1
  0
POLYLINE
  8
LAYER_1
 62
     1
 66
     1
  0
VERTEX
  8
LAYER_1
 62
     1
 10
-3.488582677165355
 20
-1.720362204724409
  0
VERTEX
  8
LAYER_1
 62
     1
 10
-3.262393700787402
 20
-1.814051181102362
  0
VERTEX
  8
LAYER_1
 62
     1
 10
-3.488582677165355
 20
-1.907744094488189
  0
SEQEND
  8
LAYER_1
 62
     1
  0
POLYLINE
  8
LAYER_1
 62
     1
 66
     1
  0
VERTEX
  8
LAYER_1
 62
     1
 10
-3.063188976377953
 20
-2.747354330708661
  0
VERTEX
  8
LAYER_1
 62
     1
 10
-2.9695
 20
-2.521157480314961
  0
VERTEX
  8
LAYER_1
 62
     1
 10
-3.195692913385827
 20
-2.614850393700787
  0
SEQEND
  8
LAYER_1
 62
     1
  0
POLYLINE
  8
LAYER_1
 62
     1
 66
     1
  0
VERTEX
  8
LAYER_1
 62
     1
 10
-2.356082677165354
 20
-3.040244094488189
  0
VERTEX
  8
LAYER_1
 62
     1
 10
-2.262393700787402
 20
-2.814051181102362
  0
VERTEX
  8
LAYER_1
 62
     1
 10
-2.168700787401575
 20
-3.040244094488189
  0
SEQEND
  8
LAYER_1
 62
     1
  0
POLYLINE
  8
LAYER_1
 62
     1
 66
     1
  0
VERTEX
  8
LAYER_1
 62
     1
 10
-1.461594488188976
 20
-2.747354330708661
  0
VERTEX
  8
LAYER_1
 62
     1
 10
-1.555287401574803
 20
-2.521157480314961
  0
VERTEX
  8
LAYER_1
 62
     1
 10
-1.329090551181102
 20
-2.614850393700787
  0
SEQEND
  8
LAYER_1
 62
     1
  0
POLYLINE
  8
LAYER_1
 62
     1
 66
     1
 70
     1
  0
VERTEX
  8
LAYER_1
 62
     1
 10
-2.262393700787402
 20
-0.2990511811023622
  0
VERTEX
  8
LAYER_1
 62
     1
 10
-1.726767716535433
 20
-0.5209173228346456
  0
VERTEX
  8
LAYER_1
 62
     1
 10
-1.191125984251969
 20
-0.7427834645669291
  0
VERTEX
  8
LAYER_1
 62
     1
 10
-0.969259842519685
 20
-1.278425196850394
  0
VERTEX
  8
LAYER_1
 62
     1
 10
-0.7473937007874015
 20
-1.814051181102362
  0
VERTEX
  8
LAYER_1
 62
     1
 10
-0.969259842519685
 20
-2.349677165354331
  0
VERTEX
  8
LAYER_1
 62
     1
 10
-1.191125984251969
 20
-2.885318897637795
  0
VERTEX
  8
LAYER_1
 62
     1
 10
-1.726767716535433
 20
-3.107185039370079
  0
VERTEX
  8
LAYER_1
 62
     1
 10
-2.262393700787402
 20
-3.329051181102362
  0
VERTEX
  8
LAYER_1
 62
     1
 10
-2.79801968503937
 20
-3.107185039370079
  0
VERTEX
  8
LAYER_1
 62
     1
 10
-3.333661417322835
 20
-2.885318897637795
  0
VERTEX
  8
LAYER_1
 62
     1
 10
-3.555527559055118
 20
-2.349677165354331
  0
VERTEX
  8
LAYER_1
 62
     1
 10
-3.777393700787401
 20
-1.814051181102362
  0
VERTEX
  8
LAYER_1
 62
     1
 10
-3.555527559055118
 20
-1.278425196850394
  0
VERTEX
  8
LAYER_1
 62
     1
 10
-3.333661417322835
 20
-0.7427834645669291
  0
VERTEX
  8
LAYER_1
 62
     1
 10
-2.79801968503937
 20
-0.5209173228346456
  0
VERTEX
  8
LAYER_1
 62
     1
 10
-2.262393700787402
 20
-0.2990511811023622
  0
SEQEND
  8
LAYER_1
 62
     1
  0
POLYLINE
  8
LAYER_1
 62
     1
 66
     1
  0
VERTEX
  8
LAYER_1
 62
     1
 10
-2.168700787401575
 20
-0.5878622047244094
  0
VERTEX
  8
LAYER_1
 62
     1
 10
-1.461594488188976
 20
-0.880751968503937
  0
SEQEND
  8
LAYER_1
 62
     1
  0
POLYLINE
  8
LAYER_1
 62
     1
 66
     1
  0
VERTEX
  8
LAYER_1
 62
     1
 10
-1.329090551181102
 20
-1.013255905511811
  0
VERTEX
  8
LAYER_1
 62
     1
 10
-1.036200787401575
 20
-1.720362204724409
  0
SEQEND
  8
LAYER_1
 62
     1
  0
POLYLINE
  8
LAYER_1
 62
     1
 66
     1
  0
VERTEX
  8
LAYER_1
 62
     1
 10
-1.036200787401575
 20
-1.907744094488189
  0
VERTEX
  8
LAYER_1
 62
     1
 10
-1.329090551181102
 20
-2.614850393700787
  0
SEQEND
  8
LAYER_1
 62
     1
  0
POLYLINE
  8
LAYER_1
 62
     1
 66
     1
  0
VERTEX
  8
LAYER_1
 62
     1
 10
-1.461594488188976
 20
-2.747354330708661
  0
VERTEX
  8
LAYER_1
 62
     1
 10
-2.168700787401575
 20
-3.040244094488189
  0
SEQEND
  8
LAYER_1
 62
     1
  0
POLYLINE
  8
LAYER_1
 62
     1
 66
     1
  0
VERTEX
  8
LAYER_1
 62
     1
 10
-2.356082677165354
 20
-3.040244094488189
  0
VERTEX
  8
LAYER_1
 62
     1
 10
-3.063188976377953
 20
-2.747354330708661
  0
SEQEND
  8
LAYER_1
 62
     1
  0
POLYLINE
  8
LAYER_1
 62
     1
 66
     1
  0
VERTEX
  8
LAYER_1
 62
     1
 10
-3.195692913385827
 20
-2.614850393700787
  0
VERTEX
  8
LAYER_1
 62
     1
 10
-3.488582677165355
 20
-1.907744094488189
  0
SEQEND
  8
LAYER_1
 62
     1
  0
POLYLINE
  8
LAYER_1
 62
     1
 66
     1
  0
VERTEX
  8
LAYER_1
 62
     1
 10
-3.488582677165355
 20
-1.720362204724409
  0
VERTEX
  8
LAYER_1
 62
     1
 10
-3.195692913385827
 20
-1.013255905511811
  0
SEQEND
  8
LAYER_1
 62
     1
  0
POLYLINE
  8
LAYER_1
 62
     1
 66
     1
  0
VERTEX
  8
LAYER_1
 62
     1
 10
-3.063188976377953
 20
-0.880751968503937
  0
VERTEX
  8
LAYER_1
 62
     1
 10
-2.356082677165354
 20
-0.5878622047244094
  0
SEQEND
  8
LAYER_1
 62
     1
  0
POLYLINE
  8
LAYER_1
 62
     1
 66
     1
 70
     1
  0
VERTEX
  8
LAYER_1
 62
     1
 10
-4.536311023622047
 20
-2.874385826771654
  0
VERTEX
  8
LAYER_1
 62
     1
 10
-4.000685039370079
 20
-3.096251968503937
  0
VERTEX
  8
LAYER_1
 62
     1
 10
-3.465043307086614
 20
-3.31811811023622
  0
VERTEX
  8
LAYER_1
 62
     1
 10
-3.243177165354331
 20
-3.853759842519685
  0
VERTEX
  8
LAYER_1
 62
     1
 10
-3.021311023622047
 20
-4.389385826771654
  0
VERTEX
  8
LAYER_1
 62
     1
 10
-3.243177165354331
 20
-4.925011811023622
  0
VERTEX
  8
LAYER_1
 62
     1
 10
-3.465043307086614
 20
-5.460653543307086
  0
VERTEX
  8
LAYER_1
 62
     1
 10
-4.000685039370079
 20
-5.68251968503937
  0
VERTEX
  8
LAYER_1
 62
     1
 10
-4.536311023622047
 20
-5.904385826771653
  0
VERTEX
  8
LAYER_1
 62
     1
 10
-5.071937007874015
 20
-5.68251968503937
  0
VERTEX
  8
LAYER_1
 62
     1
 10
-5.60757874015748
 20
-5.460653543307086
  0
VERTEX
  8
LAYER_1
 62
     1
 10
-5.829444881889764
 20
-4.925011811023622
  0
VERTEX
  8
LAYER_1
 62
     1
 10
-6.051311023622048
 20
-4.389385826771654
  0
VERTEX
  8
LAYER_1
 62
     1
 10
-5.829444881889764
 20
-3.853759842519685
  0
VERTEX
  8
LAYER_1
 62
     1
 10
-5.60757874015748
 20
-3.31811811023622
  0
VERTEX
  8
LAYER_1
 62
     1
 10
-5.071937007874015
 20
-3.096251968503937
  0
VERTEX
  8
LAYER_1
 62
     1
 10
-4.536311023622047
 20
-2.874385826771654
  0
SEQEND
  8
LAYER_1
 62
     1
  0
POLYLINE
  8
LAYER_1
 62
     1
 66
     1
 70
     1
  0
VERTEX
  8
LAYER_1
 62
     1
 10
-4.536311023622047
 20
-3.639385826771654
  0
VERTEX
  8
LAYER_1
 62
     1
 10
-4.682628765134143
 20
-3.653796866469231
  0
VERTEX
  8
LAYER_1
 62
     1
 10
-4.823323597895865
 20
-3.696476177388189
  0
VERTEX
  8
LAYER_1
 62
     1
 10
-4.952988698386749
 20
-3.765783617544745
  0
VERTEX
  8
LAYER_1
 62
     1
 10
-5.066641109511957
 20
-3.859055740881743
  0
VERTEX
  8
LAYER_1
 62
     1
 10
-5.159913232848956
 20
-3.972708152006952
  0
VERTEX
  8
LAYER_1
 62
     1
 10
-5.229220673005512
 20
-4.102373252497836
  0
VERTEX
  8
LAYER_1
 62
     1
 10
-5.27189998392447
 20
-4.243068085259558
  0
VERTEX
  8
LAYER_1
 62
     1
 10
-5.286311023622047
 20
-4.389385826771654
  0
VERTEX
  8
LAYER_1
 62
     1
 10
-5.27189998392447
 20
-4.53570356828375
  0
VERTEX
  8
LAYER_1
 62
     1
 10
-5.229220673005512
 20
-4.676398401045471
  0
VERTEX
  8
LAYER_1
 62
     1
 10
-5.159913232848956
 20
-4.806063501536356
  0
VERTEX
  8
LAYER_1
 62
     1
 10
-5.066641109511957
 20
-4.919715912661564
  0
VERTEX
  8
LAYER_1
 62
     1
 10
-4.952988698386749
 20
-5.012988035998562
  0
VERTEX
  8
LAYER_1
 62
     1
 10
-4.823323597895864
 20
-5.082295476155119
  0
VERTEX
  8
LAYER_1
 62
     1
 10
-4.682628765134143
 20
-5.124974787074077
  0
VERTEX
  8
LAYER_1
 62
     1
 10
-4.536311023622046
 20
-5.139385826771654
  0
VERTEX
  8
LAYER_1
 62
     1
 10
-4.38999328210995
 20
-5.124974787074076
  0
VERTEX
  8
LAYER_1
 62
     1
 10
-4.249298449348228
 20
-5.082295476155118
  0
VERTEX
  8
LAYER_1
 62
     1
 10
-4.119633348857344
 20
-5.012988035998562
  0
VERTEX
  8
LAYER_1
 62
     1
 10
-4.005980937732136
 20
-4.919715912661563
  0
VERTEX
  8
LAYER_1
 62
     1
 10
-3.912708814395137
 20
-4.806063501536354
  0
VERTEX
  8
LAYER_1
 62
     1
 10
-3.843401374238582
 20
-4.67639840104547
  0
VERTEX
  8
LAYER_1
 62
     1
 10
-3.800722063319624
 20
-4.535703568283748
  0
VERTEX
  8
LAYER_1
 62
     1
 10
-3.786311023622047
 20
-4.389385826771652
  0
VERTEX
  8
LAYER_1
 62
     1
 10
-3.800722063319625
 20
-4.243068085259555
  0
VERTEX
  8
LAYER_1
 62
     1
 10
-3.843401374238583
 20
-4.102373252497834
  0
VERTEX
  8
LAYER_1
 62
     1
 10
-3.912708814395139
 20
-3.97270815200695
  0
VERTEX
  8
LAYER_1
 62
     1
 10
-4.005980937732138
 20
-3.859055740881741
  0
VERTEX
  8
LAYER_1
 62
     1
 10
-4.119633348857348
 20
-3.765783617544743
  0
VERTEX
  8
LAYER_1
 62
     1
 10
-4.249298449348232
 20
-3.696476177388187
  0
VERTEX
  8
LAYER_1
 62
     1
 10
-4.389993282109954
 20
-3.65379686646923
  0
SEQEND
  8
LAYER_1
 62
     1
  0
POLYLINE
  8
LAYER_1
 66
     1
 70
     1
  0
VERTEX
  8
LAYER_1
 10
-4.63
 20
-3.163196850393701
  0
VERTEX
  8
LAYER_1
 10
-5.337106299212598
 20
-3.456086614173228
  0
VERTEX
  8
LAYER_1
 10
-5.243417322834645
 20
-3.682279527559055
  0
VERTEX
  8
LAYER_1
 10
-4.889858267716535
 20
-3.535830708661417
  0
VERTEX
  8
LAYER_1
 10
-4.536311023622047
 20
-3.389385826771654
  0
VERTEX
  8
LAYER_1
 10
-4.63
 20
-3.163196850393701
  0
SEQEND
  8
LAYER_1
  0
POLYLINE
  8
LAYER_1
 66
     1
 70
     1
  0
VERTEX
  8
LAYER_1
 10
-4.442618110236221
 20
-3.163196850393701
  0
VERTEX
  8
LAYER_1
 10
-4.536311023622047
 20
-3.389385826771654
  0
VERTEX
  8
LAYER_1
 10
-4.182763779527559
 20
-3.535830708661417
  0
VERTEX
  8
LAYER_1
 10
-3.829204724409449
 20
-3.682279527559055
  0
VERTEX
  8
LAYER_1
 10
-3.735511811023622
 20
-3.456086614173228
  0
VERTEX
  8
LAYER_1
 10
-4.442618110236221
 20
-3.163196850393701
  0
SEQEND
  8
LAYER_1
  0
POLYLINE
  8
LAYER_1
 66
     1
 70
     1
  0
VERTEX
  8
LAYER_1
 10
-3.829204724409449
 20
-3.682279527559055
  0
VERTEX
  8
LAYER_1
 10
-3.682755905511811
 20
-4.035838582677165
  0
VERTEX
  8
LAYER_1
 10
-3.536311023622047
 20
-4.389385826771654
  0
VERTEX
  8
LAYER_1
 10
-3.31011811023622
 20
-4.295696850393701
  0
VERTEX
  8
LAYER_1
 10
-3.603007874015748
 20
-3.588590551181102
  0
VERTEX
  8
LAYER_1
 10
-3.829204724409449
 20
-3.682279527559055
  0
SEQEND
  8
LAYER_1
  0
POLYLINE
  8
LAYER_1
 66
     1
 70
     1
  0
VERTEX
  8
LAYER_1
 10
-3.536311023622047
 20
-4.389385826771654
  0
VERTEX
  8
LAYER_1
 10
-3.682755905511811
 20
-4.742933070866142
  0
VERTEX
  8
LAYER_1
 10
-3.829204724409449
 20
-5.096492125984252
  0
VERTEX
  8
LAYER_1
 10
-3.603007874015748
 20
-5.190185039370078
  0
VERTEX
  8
LAYER_1
 10
-3.31011811023622
 20
-4.48307874015748
  0
VERTEX
  8
LAYER_1
 10
-3.536311023622047
 20
-4.389385826771654
  0
SEQEND
  8
LAYER_1
  0
POLYLINE
  8
LAYER_1
 66
     1
 70
     1
  0
VERTEX
  8
LAYER_1
 10
-3.829204724409449
 20
-5.096492125984252
  0
VERTEX
  8
LAYER_1
 10
-4.182763779527559
 20
-5.24294094488189
  0
VERTEX
  8
LAYER_1
 10
-4.536311023622047
 20
-5.389385826771654
  0
VERTEX
  8
LAYER_1
 10
-4.442618110236221
 20
-5.61557874015748
  0
VERTEX
  8
LAYER_1
 10
-3.735511811023622
 20
-5.322688976377953
  0
VERTEX
  8
LAYER_1
 10
-3.829204724409449
 20
-5.096492125984252
  0
SEQEND
  8
LAYER_1
  0
POLYLINE
  8
LAYER_1
 66
     1
 70
     1
  0
VERTEX
  8
LAYER_1
 10
-4.536311023622047
 20
-5.389385826771654
  0
VERTEX
  8
LAYER_1
 10
-4.889858267716535
 20
-5.24294094488189
  0
VERTEX
  8
LAYER_1
 10
-5.243417322834645
 20
-5.096492125984252
  0
VERTEX
  8
LAYER_1
 10
-5.337106299212598
 20
-5.322688976377953
  0
VERTEX
  8
LAYER_1
 10
-4.63
 20
-5.61557874015748
  0
VERTEX
  8
LAYER_1
 10
-4.536311023622047
 20
-5.389385826771654
  0
SEQEND
  8
LAYER_1
  0
POLYLINE
  8
LAYER_1
 66
     1
 70
     1
  0
VERTEX
  8
LAYER_1
 10
-5.243417322834645
 20
-5.096492125984252
  0
VERTEX
  8
LAYER_1
 10
-5.389866141732283
 20
-4.742933070866142
  0
VERTEX
  8
LAYER_1
 10
-5.536311023622047
 20
-4.389385826771654
  0
VERTEX
  8
LAYER_1
 10
-5.7625
 20
-4.48307874015748
  0
VERTEX
  8
LAYER_1
 10
-5.469610236220473
 20
-5.190185039370078
  0
VERTEX
  8
LAYER_1
 10
-5.243417322834645
 20
-5.096492125984252
  0
SEQEND
  8
LAYER_1
  0
POLYLINE
  8
LAYER_1
 66
     1
 70
     1
  0
VERTEX
  8
LAYER_1
 10
-5.536311023622047
 20
-4.389385826771654
  0
VERTEX
  8
LAYER_1
 10
-5.389866141732283
 20
-4.035838582677165
  0
VERTEX
  8
LAYER_1
 10
-5.243417322834645
 20
-3.682279527559055
  0
VERTEX
  8
LAYER_1
 10
-5.469610236220473
 20
-3.588590551181102
  0
VERTEX
  8
LAYER_1
 10
-5.7625
 20
-4.295696850393701
  0
VERTEX
  8
LAYER_1
 10
-5.536311023622047
 20
-4.389385826771654
  0
SEQEND
  8
LAYER_1
  0
POLYLINE
  8
LAYER_1
 62
     1
 66
     1
 70
     1
  0
VERTEX
  8
LAYER_1
 62
     1
 10
-2.975692913385827
 20
-3.986511811023622
  0
VERTEX
  8
LAYER_1
 62
     1
 10
-1.215692913385827
 20
-3.986511811023622
  0
VERTEX
  8
LAYER_1
 62
     1
 10
-1.215692913385827
 20
-3.336511811023622
  0
VERTEX
  8
LAYER_1
 62
     1
 10
-2.975692913385827
 20
-3.336511811023622
  0
VERTEX
  8
LAYER_1
 62
     1
 10
-2.975692913385827
 20
-3.986511811023622
  0
SEQEND
  8
LAYER_1
 62
     1
  0
POLYLINE
  8
LAYER_1
 62
     1
 66
     1
 70
     1
  0
VERTEX
  8
LAYER_1
 62
     1
 10
-1.75194094488189
 20
-3.869842519685039
  0
VERTEX
  8
LAYER_1
 62
     1
 10
-1.689444881889764
 20
-3.869842519685039
  0
VERTEX
  8
LAYER_1
 62
     1
 10
-1.689444881889764
 20
-3.453181102362205
  0
VERTEX
  8
LAYER_1
 62
     1
 10
-1.75194094488189
 20
-3.453181102362205
  0
VERTEX
  8
LAYER_1
 62
     1
 10
-1.75194094488189
 20
-3.869842519685039
  0
SEQEND
  8
LAYER_1
 62
     1
  0
POLYLINE
  8
LAYER_1
 62
     1
 66
     1
 70
     1
  0
VERTEX
  8
LAYER_1
 62
     1
 10
-1.37694094488189
 20
-3.869842519685039
  0
VERTEX
  8
LAYER_1
 62
     1
 10
-1.314444881889764
 20
-3.869842519685039
  0
VERTEX
  8
LAYER_1
 62
     1
 10
-1.314444881889764
 20
-3.453181102362205
  0
VERTEX
  8
LAYER_1
 62
     1
 10
-1.37694094488189
 20
-3.453181102362205
  0
VERTEX
  8
LAYER_1
 62
     1
 10
-1.37694094488189
 20
-3.869842519685039
  0
SEQEND
  8
LAYER_1
 62
     1
  0
POLYLINE
  8
LAYER_1
 62
     1
 66
     1
 70
     1
  0
VERTEX
  8
LAYER_1
 62
     1
 10
-1.50194094488189
 20
-3.869842519685039
  0
VERTEX
  8
LAYER_1
 62
     1
 10
-1.439444881889764
 20
-3.869842519685039
  0
VERTEX
  8
LAYER_1
 62
     1
 10
-1.439444881889764
 20
-3.453181102362205
  0
VERTEX
  8
LAYER_1
 62
     1
 10
-1.50194094488189
 20
-3.453181102362205
  0
VERTEX
  8
LAYER_1
 62
     1
 10
-1.50194094488189
 20
-3.869842519685039
  0
SEQEND
  8
LAYER_1
 62
     1
  0
POLYLINE
  8
LAYER_1
 62
     1
 66
     1
 70
     1
  0
VERTEX
  8
LAYER_1
 62
     1
 10
-1.62694094488189
 20
-3.869842519685039
  0
VERTEX
  8
LAYER_1
 62
     1
 10
-1.564444881889764
 20
-3.869842519685039
  0
VERTEX
  8
LAYER_1
 62
     1
 10
-1.564444881889764
 20
-3.453181102362205
  0
VERTEX
  8
LAYER_1
 62
     1
 10
-1.62694094488189
 20
-3.453181102362205
  0
VERTEX
  8
LAYER_1
 62
     1
 10
-1.62694094488189
 20
-3.869842519685039
  0
SEQEND
  8
LAYER_1
 62
     1
  0
POLYLINE
  8
LAYER_1
 62
     1
 66
     1
 70
     1
  0
VERTEX
  8
LAYER_1
 62
     1
 10
-2.87694094488189
 20
-3.869842519685039
  0
VERTEX
  8
LAYER_1
 62
     1
 10
-2.814444881889764
 20
-3.869842519685039
  0
VERTEX
  8
LAYER_1
 62
     1
 10
-2.814444881889764
 20
-3.453181102362205
  0
VERTEX
  8
LAYER_1
 62
     1
 10
-2.87694094488189
 20
-3.453181102362205
  0
VERTEX
  8
LAYER_1
 62
     1
 10
-2.87694094488189
 20
-3.869842519685039
  0
SEQEND
  8
LAYER_1
 62
     1
  0
POLYLINE
  8
LAYER_1
 62
     1
 66
     1
 70
     1
  0
VERTEX
  8
LAYER_1
 62
     1
 10
-1.87694094488189
 20
-3.869842519685039
  0
VERTEX
  8
LAYER_1
 62
     1
 10
-1.814444881889764
 20
-3.869842519685039
  0
VERTEX
  8
LAYER_1
 62
     1
 10
-1.814444881889764
 20
-3.453181102362205
  0
VERTEX
  8
LAYER_1
 62
     1
 10
-1.87694094488189
 20
-3.453181102362205
  0
VERTEX
  8
LAYER_1
 62
     1
 10
-1.87694094488189
 20
-3.869842519685039
  0
SEQEND
  8
LAYER_1
 62
     1
  0
POLYLINE
  8
LAYER_1
 62
     1
 66
     1
 70
     1
  0
VERTEX
  8
LAYER_1
 62
     1
 10
-2.00194094488189
 20
-3.869842519685039
  0
VERTEX
  8
LAYER_1
 62
     1
 10
-1.939444881889764
 20
-3.869842519685039
  0
VERTEX
  8
LAYER_1
 62
     1
 10
-1.939444881889764
 20
-3.453181102362205
  0
VERTEX
  8
LAYER_1
 62
     1
 10
-2.00194094488189
 20
-3.453181102362205
  0
VERTEX
  8
LAYER_1
 62
     1
 10
-2.00194094488189
 20
-3.869842519685039
  0
SEQEND
  8
LAYER_1
 62
     1
  0
POLYLINE
  8
LAYER_1
 62
     1
 66
     1
 70
     1
  0
VERTEX
  8
LAYER_1
 62
     1
 10
-2.12694094488189
 20
-3.869842519685039
  0
VERTEX
  8
LAYER_1
 62
     1
 10
-2.064444881889764
 20
-3.869842519685039
  0
VERTEX
  8
LAYER_1
 62
     1
 10
-2.064444881889764
 20
-3.453181102362205
  0
VERTEX
  8
LAYER_1
 62
     1
 10
-2.12694094488189
 20
-3.453181102362205
  0
VERTEX
  8
LAYER_1
 62
     1
 10
-2.12694094488189
 20
-3.869842519685039
  0
SEQEND
  8
LAYER_1
 62
     1
  0
POLYLINE
  8
LAYER_1
 62
     1
 66
     1
 70
     1
  0
VERTEX
  8
LAYER_1
 62
     1
 10
-2.25194094488189
 20
-3.869842519685039
  0
VERTEX
  8
LAYER_1
 62
     1
 10
-2.189444881889764
 20
-3.869842519685039
  0
VERTEX
  8
LAYER_1
 62
     1
 10
-2.189444881889764
 20
-3.453181102362205
  0
VERTEX
  8
LAYER_1
 62
     1
 10
-2.25194094488189
 20
-3.453181102362205
  0
VERTEX
  8
LAYER_1
 62
     1
 10
-2.25194094488189
 20
-3.869842519685039
  0
SEQEND
  8
LAYER_1
 62
     1
  0
POLYLINE
  8
LAYER_1
 62
     1
 66
     1
 70
     1
  0
VERTEX
  8
LAYER_1
 62
     1
 10
-2.37694094488189
 20
-3.869842519685039
  0
VERTEX
  8
LAYER_1
 62
     1
 10
-2.314444881889764
 20
-3.869842519685039
  0
VERTEX
  8
LAYER_1
 62
     1
 10
-2.314444881889764
 20
-3.453181102362205
  0
VERTEX
  8
LAYER_1
 62
     1
 10
-2.37694094488189
 20
-3.453181102362205
  0
VERTEX
  8
LAYER_1
 62
     1
 10
-2.37694094488189
 20
-3.869842519685039
  0
SEQEND
  8
LAYER_1
 62
     1
  0
POLYLINE
  8
LAYER_1
 62
     1
 66
     1
 70
     1
  0
VERTEX
  8
LAYER_1
 62
     1
 10
-2.50194094488189
 20
-3.869842519685039
  0
VERTEX
  8
LAYER_1
 62
     1
 10
-2.439444881889764
 20
-3.869842519685039
  0
VERTEX
  8
LAYER_1
 62
     1
 10
-2.439444881889764
 20
-3.453181102362205
  0
VERTEX
  8
LAYER_1
 62
     1
 10
-2.50194094488189
 20
-3.453181102362205
  0
VERTEX
  8
LAYER_1
 62
     1
 10
-2.50194094488189
 20
-3.869842519685039
  0
SEQEND
  8
LAYER_1
 62
     1
  0
POLYLINE
  8
LAYER_1
 62
     1
 66
     1
 70
     1
  0
VERTEX
  8
LAYER_1
 62
     1
 10
-2.62694094488189
 20
-3.869842519685039
  0
VERTEX
  8
LAYER_1
 62
     1
 10
-2.564444881889764
 20
-3.869842519685039
  0
VERTEX
  8
LAYER_1
 62
     1
 10
-2.564444881889764
 20
-3.453181102362205
  0
VERTEX
  8
LAYER_1
 62
     1
 10
-2.62694094488189
 20
-3.453181102362205
  0
VERTEX
  8
LAYER_1
 62
     1
 10
-2.62694094488189
 20
-3.869842519685039
  0
SEQEND
  8
LAYER_1
 62
     1
  0
POLYLINE
  8
LAYER_1
 62
     1
 66
     1
 70
     1
  0
VERTEX
  8
LAYER_1
 62
     1
 10
-2.75194094488189
 20
-3.869842519685039
  0
VERTEX
  8
LAYER_1
 62
     1
 10
-2.689444881889764
 20
-3.869842519685039
  0
VERTEX
  8
LAYER_1
 62
     1
 10
-2.689444881889764
 20
-3.453181102362205
  0
VERTEX
  8
LAYER_1
 62
     1
 10
-2.75194094488189
 20
-3.453181102362205
  0
VERTEX
  8
LAYER_1
 62
     1
 10
-2.75194094488189
 20
-3.869842519685039
  0
SEQEND
  8
LAYER_1
 62
     1
  0
POLYLINE
  8
LAYER_1
 62
     1
 66
     1
 70
     1
  0
VERTEX
  8
LAYER_1
 62
     1
 10
-2.975692913385827
 20
-4.636511811023622
  0
VERTEX
  8
LAYER_1
 62
     1
 10
-1.215692913385827
 20
-4.636511811023622
  0
VERTEX
  8
LAYER_1
 62
     1
 10
-1.215692913385827
 20
-3.986511811023622
  0
VERTEX
  8
LAYER_1
 62
     1
 10
-2.975692913385827
 20
-3.986511811023622
  0
VERTEX
  8
LAYER_1
 62
     1
 10
-2.975692913385827
 20
-4.636511811023622
  0
SEQEND
  8
LAYER_1
 62
     1
  0
POLYLINE
  8
LAYER_1
 62
     1
 66
     1
 70
     1
  0
VERTEX
  8
LAYER_1
 62
     1
 10
-1.75194094488189
 20
-4.51984251968504
  0
VERTEX
  8
LAYER_1
 62
     1
 10
-1.689444881889764
 20
-4.51984251968504
  0
VERTEX
  8
LAYER_1
 62
     1
 10
-1.689444881889764
 20
-4.103181102362205
  0
VERTEX
  8
LAYER_1
 62
     1
 10
-1.75194094488189
 20
-4.103181102362205
  0
VERTEX
  8
LAYER_1
 62
     1
 10
-1.75194094488189
 20
-4.51984251968504
  0
SEQEND
  8
LAYER_1
 62
     1
  0
POLYLINE
  8
LAYER_1
 62
     1
 66
     1
 70
     1
  0
VERTEX
  8
LAYER_1
 62
     1
 10
-1.37694094488189
 20
-4.51984251968504
  0
VERTEX
  8
LAYER_1
 62
     1
 10
-1.314444881889764
 20
-4.51984251968504
  0
VERTEX
  8
LAYER_1
 62
     1
 10
-1.314444881889764
 20
-4.103181102362205
  0
VERTEX
  8
LAYER_1
 62
     1
 10
-1.37694094488189
 20
-4.103181102362205
  0
VERTEX
  8
LAYER_1
 62
     1
 10
-1.37694094488189
 20
-4.51984251968504
  0
SEQEND
  8
LAYER_1
 62
     1
  0
POLYLINE
  8
LAYER_1
 62
     1
 66
     1
 70
     1
  0
VERTEX
  8
LAYER_1
 62
     1
 10
-1.50194094488189
 20
-4.51984251968504
  0
VERTEX
  8
LAYER_1
 62
     1
 10
-1.439444881889764
 20
-4.51984251968504
  0
VERTEX
  8
LAYER_1
 62
     1
 10
-1.439444881889764
 20
-4.103181102362205
  0
VERTEX
  8
LAYER_1
 62
     1
 10
-1.50194094488189
 20
-4.103181102362205
  0
VERTEX
  8
LAYER_1
 62
     1
 10
-1.50194094488189
 20
-4.51984251968504
  0
SEQEND
  8
LAYER_1
 62
     1
  0
POLYLINE
  8
LAYER_1
 62
     1
 66
     1
 70
     1
  0
VERTEX
  8
LAYER_1
 62
     1
 10
-1.62694094488189
 20
-4.51984251968504
  0
VERTEX
  8
LAYER_1
 62
     1
 10
-1.564444881889764
 20
-4.51984251968504
  0
VERTEX
  8
LAYER_1
 62
     1
 10
-1.564444881889764
 20
-4.103181102362205
  0
VERTEX
  8
LAYER_1
 62
     1
 10
-1.62694094488189
 20
-4.103181102362205
  0
VERTEX
  8
LAYER_1
 62
     1
 10
-1.62694094488189
 20
-4.51984251968504
  0
SEQEND
  8
LAYER_1
 62
     1
  0
POLYLINE
  8
LAYER_1
 62
     1
 66
     1
 70
     1
  0
VERTEX
  8
LAYER_1
 62
     1
 10
-2.87694094488189
 20
-4.51984251968504
  0
VERTEX
  8
LAYER_1
 62
     1
 10
-2.814444881889764
 20
-4.51984251968504
  0
VERTEX
  8
LAYER_1
 62
     1
 10
-2.814444881889764
 20
-4.103181102362205
  0
VERTEX
  8
LAYER_1
 62
     1
 10
-2.87694094488189
 20
-4.103181102362205
  0
VERTEX
  8
LAYER_1
 62
     1
 10
-2.87694094488189
 20
-4.51984251968504
  0
SEQEND
  8
LAYER_1
 62
     1
  0
POLYLINE
  8
LAYER_1
 62
     1
 66
     1
 70
     1
  0
VERTEX
  8
LAYER_1
 62
     1
 10
-1.87694094488189
 20
-4.51984251968504
  0
VERTEX
  8
LAYER_1
 62
     1
 10
-1.814444881889764
 20
-4.51984251968504
  0
VERTEX
  8
LAYER_1
 62
     1
 10
-1.814444881889764
 20
-4.103181102362205
  0
VERTEX
  8
LAYER_1
 62
     1
 10
-1.87694094488189
 20
-4.103181102362205
  0
VERTEX
  8
LAYER_1
 62
     1
 10
-1.87694094488189
 20
-4.51984251968504
  0
SEQEND
  8
LAYER_1
 62
     1
  0
POLYLINE
  8
LAYER_1
 62
     1
 66
     1
 70
     1
  0
VERTEX
  8
LAYER_1
 62
     1
 10
-2.00194094488189
 20
-4.51984251968504
  0
VERTEX
  8
LAYER_1
 62
     1
 10
-1.939444881889764
 20
-4.51984251968504
  0
VERTEX
  8
LAYER_1
 62
     1
 10
-1.939444881889764
 20
-4.103181102362205
  0
VERTEX
  8
LAYER_1
 62
     1
 10
-2.00194094488189
 20
-4.103181102362205
  0
VERTEX
  8
LAYER_1
 62
     1
 10
-2.00194094488189
 20
-4.51984251968504
  0
SEQEND
  8
LAYER_1
 62
     1
  0
POLYLINE
  8
LAYER_1
 62
     1
 66
     1
 70
     1
  0
VERTEX
  8
LAYER_1
 62
     1
 10
-2.12694094488189
 20
-4.51984251968504
  0
VERTEX
  8
LAYER_1
 62
     1
 10
-2.064444881889764
 20
-4.51984251968504
  0
VERTEX
  8
LAYER_1
 62
     1
 10
-2.064444881889764
 20
-4.103181102362205
  0
VERTEX
  8
LAYER_1
 62
     1
 10
-2.12694094488189
 20
-4.103181102362205
  0
VERTEX
  8
LAYER_1
 62
     1
 10
-2.12694094488189
 20
-4.51984251968504
  0
SEQEND
  8
LAYER_1
 62
     1
  0
POLYLINE
  8
LAYER_1
 62
     1
 66
     1
 70
     1
  0
VERTEX
  8
LAYER_1
 62
     1
 10
-2.25194094488189
 20
-4.51984251968504
  0
VERTEX
  8
LAYER_1
 62
     1
 10
-2.189444881889764
 20
-4.51984251968504
  0
VERTEX
  8
LAYER_1
 62
     1
 10
-2.189444881889764
 20
-4.103181102362205
  0
VERTEX
  8
LAYER_1
 62
     1
 10
-2.25194094488189
 20
-4.103181102362205
  0
VERTEX
  8
LAYER_1
 62
     1
 10
-2.25194094488189
 20
-4.51984251968504
  0
SEQEND
  8
LAYER_1
 62
     1
  0
POLYLINE
  8
LAYER_1
 62
     1
 66
     1
 70
     1
  0
VERTEX
  8
LAYER_1
 62
     1
 10
-2.37694094488189
 20
-4.51984251968504
  0
VERTEX
  8
LAYER_1
 62
     1
 10
-2.314444881889764
 20
-4.51984251968504
  0
VERTEX
  8
LAYER_1
 62
     1
 10
-2.314444881889764
 20
-4.103181102362205
  0
VERTEX
  8
LAYER_1
 62
     1
 10
-2.37694094488189
 20
-4.103181102362205
  0
VERTEX
  8
LAYER_1
 62
     1
 10
-2.37694094488189
 20
-4.51984251968504
  0
SEQEND
  8
LAYER_1
 62
     1
  0
POLYLINE
  8
LAYER_1
 62
     1
 66
     1
 70
     1
  0
VERTEX
  8
LAYER_1
 62
     1
 10
-2.50194094488189
 20
-4.51984251968504
  0
VERTEX
  8
LAYER_1
 62
     1
 10
-2.439444881889764
 20
-4.51984251968504
  0
VERTEX
  8
LAYER_1
 62
     1
 10
-2.439444881889764
 20
-4.103181102362205
  0
VERTEX
  8
LAYER_1
 62
     1
 10
-2.50194094488189
 20
-4.103181102362205
  0
VERTEX
  8
LAYER_1
 62
     1
 10
-2.50194094488189
 20
-4.51984251968504
  0
SEQEND
  8
LAYER_1
 62
     1
  0
POLYLINE
  8
LAYER_1
 62
     1
 66
     1
 70
     1
  0
VERTEX
  8
LAYER_1
 62
     1
 10
-2.62694094488189
 20
-4.51984251968504
  0
VERTEX
  8
LAYER_1
 62
     1
 10
-2.564444881889764
 20
-4.51984251968504
  0
VERTEX
  8
LAYER_1
 62
     1
 10
-2.564444881889764
 20
-4.103181102362205
  0
VERTEX
  8
LAYER_1
 62
     1
 10
-2.62694094488189
 20
-4.103181102362205
  0
VERTEX
  8
LAYER_1
 62
     1
 10
-2.62694094488189
 20
-4.51984251968504
  0
SEQEND
  8
LAYER_1
 62
     1
  0
POLYLINE
  8
LAYER_1
 62
     1
 66
     1
 70
     1
  0
VERTEX
  8
LAYER_1
 62
     1
 10
-2.75194094488189
 20
-4.51984251968504
  0
VERTEX
  8
LAYER_1
 62
     1
 10
-2.689444881889764
 20
-4.51984251968504
  0
VERTEX
  8
LAYER_1
 62
     1
 10
-2.689444881889764
 20
-4.103181102362205
  0
VERTEX
  8
LAYER_1
 62
     1
 10
-2.75194094488189
 20
-4.103181102362205
  0
VERTEX
  8
LAYER_1
 62
     1
 10
-2.75194094488189
 20
-4.51984251968504
  0
SEQEND
  8
LAYER_1
 62
     1
  0
POLYLINE
  8
LAYER_1
 62
     1
 66
     1
 70
     1
  0
VERTEX
  8
LAYER_1
 62
     1
 10
-10.9873779527559
 20
-5.925681102362205
  0
VERTEX
  8
LAYER_1
 62
     1
 10
-9.227377952755905
 20
-5.925681102362205
  0
VERTEX
  8
LAYER_1
 62
     1
 10
-9.227377952755905
 20
-5.275681102362205
  0
VERTEX
  8
LAYER_1
 62
     1
 10
-10.9873779527559
 20
-5.275681102362205
  0
VERTEX
  8
LAYER_1
 62
     1
 10
-10.9873779527559
 20
-5.925681102362205
  0
SEQEND
  8
LAYER_1
 62
     1
  0
POLYLINE
  8
LAYER_1
 62
     1
 66
     1
 70
     1
  0
VERTEX
  8
LAYER_1
 62
     1
 10
-9.763625984251968
 20
-5.809011811023622
  0
VERTEX
  8
LAYER_1
 62
     1
 10
-9.701129921259842
 20
-5.809011811023622
  0
VERTEX
  8
LAYER_1
 62
     1
 10
-9.701129921259842
 20
-5.392350393700787
  0
VERTEX
  8
LAYER_1
 62
     1
 10
-9.763625984251968
 20
-5.392350393700787
  0
VERTEX
  8
LAYER_1
 62
     1
 10
-9.763625984251968
 20
-5.809011811023622
  0
SEQEND
  8
LAYER_1
 62
     1
  0
POLYLINE
  8
LAYER_1
 62
     1
 66
     1
 70
     1
  0
VERTEX
  8
LAYER_1
 62
     1
 10
-9.388625984251968
 20
-5.809011811023622
  0
VERTEX
  8
LAYER_1
 62
     1
 10
-9.326129921259842
 20
-5.809011811023622
  0
VERTEX
  8
LAYER_1
 62
     1
 10
-9.326129921259842
 20
-5.392350393700787
  0
VERTEX
  8
LAYER_1
 62
     1
 10
-9.388625984251968
 20
-5.392350393700787
  0
VERTEX
  8
LAYER_1
 62
     1
 10
-9.388625984251968
 20
-5.809011811023622
  0
SEQEND
  8
LAYER_1
 62
     1
  0
POLYLINE
  8
LAYER_1
 62
     1
 66
     1
 70
     1
  0
VERTEX
  8
LAYER_1
 62
     1
 10
-9.513625984251968
 20
-5.809011811023622
  0
VERTEX
  8
LAYER_1
 62
     1
 10
-9.451129921259842
 20
-5.809011811023622
  0
VERTEX
  8
LAYER_1
 62
     1
 10
-9.451129921259842
 20
-5.392350393700787
  0
VERTEX
  8
LAYER_1
 62
     1
 10
-9.513625984251968
 20
-5.392350393700787
  0
VERTEX
  8
LAYER_1
 62
     1
 10
-9.513625984251968
 20
-5.809011811023622
  0
SEQEND
  8
LAYER_1
 62
     1
  0
POLYLINE
  8
LAYER_1
 62
     1
 66
     1
 70
     1
  0
VERTEX
  8
LAYER_1
 62
     1
 10
-9.638625984251968
 20
-5.809011811023622
  0
VERTEX
  8
LAYER_1
 62
     1
 10
-9.576129921259842
 20
-5.809011811023622
  0
VERTEX
  8
LAYER_1
 62
     1
 10
-9.576129921259842
 20
-5.392350393700787
  0
VERTEX
  8
LAYER_1
 62
     1
 10
-9.638625984251968
 20
-5.392350393700787
  0
VERTEX
  8
LAYER_1
 62
     1
 10
-9.638625984251968
 20
-5.809011811023622
  0
SEQEND
  8
LAYER_1
 62
     1
  0
POLYLINE
  8
LAYER_1
 62
     1
 66
     1
 70
     1
  0
VERTEX
  8
LAYER_1
 62
     1
 10
-10.88862598425197
 20
-5.809011811023622
  0
VERTEX
  8
LAYER_1
 62
     1
 10
-10.82612992125984
 20
-5.809011811023622
  0
VERTEX
  8
LAYER_1
 62
     1
 10
-10.82612992125984
 20
-5.392350393700787
  0
VERTEX
  8
LAYER_1
 62
     1
 10
-10.88862598425197
 20
-5.392350393700787
  0
VERTEX
  8
LAYER_1
 62
     1
 10
-10.88862598425197
 20
-5.809011811023622
  0
SEQEND
  8
LAYER_1
 62
     1
  0
POLYLINE
  8
LAYER_1
 62
     1
 66
     1
 70
     1
  0
VERTEX
  8
LAYER_1
 62
     1
 10
-9.888625984251968
 20
-5.809011811023622
  0
VERTEX
  8
LAYER_1
 62
     1
 10
-9.826129921259842
 20
-5.809011811023622
  0
VERTEX
  8
LAYER_1
 62
     1
 10
-9.826129921259842
 20
-5.392350393700787
  0
VERTEX
  8
LAYER_1
 62
     1
 10
-9.888625984251968
 20
-5.392350393700787
  0
VERTEX
  8
LAYER_1
 62
     1
 10
-9.888625984251968
 20
-5.809011811023622
  0
SEQEND
  8
LAYER_1
 62
     1
  0
POLYLINE
  8
LAYER_1
 62
     1
 66
     1
 70
     1
  0
VERTEX
  8
LAYER_1
 62
     1
 10
-10.01362598425197
 20
-5.809011811023622
  0
VERTEX
  8
LAYER_1
 62
     1
 10
-9.951129921259842
 20
-5.809011811023622
  0
VERTEX
  8
LAYER_1
 62
     1
 10
-9.951129921259842
 20
-5.392350393700787
  0
VERTEX
  8
LAYER_1
 62
     1
 10
-10.01362598425197
 20
-5.392350393700787
  0
VERTEX
  8
LAYER_1
 62
     1
 10
-10.01362598425197
 20
-5.809011811023622
  0
SEQEND
  8
LAYER_1
 62
     1
  0
POLYLINE
  8
LAYER_1
 62
     1
 66
     1
 70
     1
  0
VERTEX
  8
LAYER_1
 62
     1
 10
-10.13862598425197
 20
-5.809011811023622
  0
VERTEX
  8
LAYER_1
 62
     1
 10
-10.07612992125984
 20
-5.809011811023622
  0
VERTEX
  8
LAYER_1
 62
     1
 10
-10.07612992125984
 20
-5.392350393700787
  0
VERTEX
  8
LAYER_1
 62
     1
 10
-10.13862598425197
 20
-5.392350393700787
  0
VERTEX
  8
LAYER_1
 62
     1
 10
-10.13862598425197
 20
-5.809011811023622
  0
SEQEND
  8
LAYER_1
 62
     1
  0
POLYLINE
  8
LAYER_1
 62
     1
 66
     1
 70
     1
  0
VERTEX
  8
LAYER_1
 62
     1
 10
-10.26362598425197
 20
-5.809011811023622
  0
VERTEX
  8
LAYER_1
 62
     1
 10
-10.20112992125984
 20
-5.809011811023622
  0
VERTEX
  8
LAYER_1
 62
     1
 10
-10.20112992125984
 20
-5.392350393700787
  0
VERTEX
  8
LAYER_1
 62
     1
 10
-10.26362598425197
 20
-5.392350393700787
  0
VERTEX
  8
LAYER_1
 62
     1
 10
-10.26362598425197
 20
-5.809011811023622
  0
SEQEND
  8
LAYER_1
 62
     1
  0
POLYLINE
  8
LAYER_1
 62
     1
 66
     1
 70
     1
  0
VERTEX
  8
LAYER_1
 62
     1
 10
-10.38862598425197
 20
-5.809011811023622
  0
VERTEX
  8
LAYER_1
 62
     1
 10
-10.32612992125984
 20
-5.809011811023622
  0
VERTEX
  8
LAYER_1
 62
     1
 10
-10.32612992125984
 20
-5.392350393700787
  0
VERTEX
  8
LAYER_1
 62
     1
 10
-10.38862598425197
 20
-5.392350393700787
  0
VERTEX
  8
LAYER_1
 62
     1
 10
-10.38862598425197
 20
-5.809011811023622
  0
SEQEND
  8
LAYER_1
 62
     1
  0
POLYLINE
  8
LAYER_1
 62
     1
 66
     1
 70
     1
  0
VERTEX
  8
LAYER_1
 62
     1
 10
-10.51362598425197
 20
-5.809011811023622
  0
VERTEX
  8
LAYER_1
 62
     1
 10
-10.45112992125984
 20
-5.809011811023622
  0
VERTEX
  8
LAYER_1
 62
     1
 10
-10.45112992125984
 20
-5.392350393700787
  0
VERTEX
  8
LAYER_1
 62
     1
 10
-10.51362598425197
 20
-5.392350393700787
  0
VERTEX
  8
LAYER_1
 62
     1
 10
-10.51362598425197
 20
-5.809011811023622
  0
SEQEND
  8
LAYER_1
 62
     1
  0
POLYLINE
  8
LAYER_1
 62
     1
 66
     1
 70
     1
  0
VERTEX
  8
LAYER_1
 62
     1
 10
-10.63862598425197
 20
-5.809011811023622
  0
VERTEX
  8
LAYER_1
 62
     1
 10
-10.57612992125984
 20
-5.809011811023622
  0
VERTEX
  8
LAYER_1
 62
     1
 10
-10.57612992125984
 20
-5.392350393700787
  0
VERTEX
  8
LAYER_1
 62
     1
 10
-10.63862598425197
 20
-5.392350393700787
  0
VERTEX
  8
LAYER_1
 62
     1
 10
-10.63862598425197
 20
-5.809011811023622
  0
SEQEND
  8
LAYER_1
 62
     1
  0
POLYLINE
  8
LAYER_1
 62
     1
 66
     1
 70
     1
  0
VERTEX
  8
LAYER_1
 62
     1
 10
-10.76362598425197
 20
-5.809011811023622
  0
VERTEX
  8
LAYER_1
 62
     1
 10
-10.70112992125984
 20
-5.809011811023622
  0
VERTEX
  8
LAYER_1
 62
     1
 10
-10.70112992125984
 20
-5.392350393700787
  0
VERTEX
  8
LAYER_1
 62
     1
 10
-10.76362598425197
 20
-5.392350393700787
  0
VERTEX
  8
LAYER_1
 62
     1
 10
-10.76362598425197
 20
-5.809011811023622
  0
SEQEND
  8
LAYER_1
 62
     1
  0
POLYLINE
  8
LAYER_1
 62
     1
 66
     1
 70
     1
  0
VERTEX
  8
LAYER_1
 62
     1
 10
-9.227377952755905
 20
-5.925681102362205
  0
VERTEX
  8
LAYER_1
 62
     1
 10
-7.467377952755905
 20
-5.925681102362205
  0
VERTEX
  8
LAYER_1
 62
     1
 10
-7.467377952755905
 20
-5.275681102362205
  0
VERTEX
  8
LAYER_1
 62
     1
 10
-9.227377952755905
 20
-5.275681102362205
  0
VERTEX
  8
LAYER_1
 62
     1
 10
-9.227377952755905
 20
-5.925681102362205
  0
SEQEND
  8
LAYER_1
 62
     1
  0
POLYLINE
  8
LAYER_1
 62
     1
 66
     1
 70
     1
  0
VERTEX
  8
LAYER_1
 62
     1
 10
-8.003625984251968
 20
-5.809011811023622
  0
VERTEX
  8
LAYER_1
 62
     1
 10
-7.941129921259843
 20
-5.809011811023622
  0
VERTEX
  8
LAYER_1
 62
     1
 10
-7.941129921259843
 20
-5.392350393700787
  0
VERTEX
  8
LAYER_1
 62
     1
 10
-8.003625984251968
 20
-5.392350393700787
  0
VERTEX
  8
LAYER_1
 62
     1
 10
-8.003625984251968
 20
-5.809011811023622
  0
SEQEND
  8
LAYER_1
 62
     1
  0
POLYLINE
  8
LAYER_1
 62
     1
 66
     1
 70
     1
  0
VERTEX
  8
LAYER_1
 62
     1
 10
-7.628625984251968
 20
-5.809011811023622
  0
VERTEX
  8
LAYER_1
 62
     1
 10
-7.566129921259843
 20
-5.809011811023622
  0
VERTEX
  8
LAYER_1
 62
     1
 10
-7.566129921259843
 20
-5.392350393700787
  0
VERTEX
  8
LAYER_1
 62
     1
 10
-7.628625984251968
 20
-5.392350393700787
  0
VERTEX
  8
LAYER_1
 62
     1
 10
-7.628625984251968
 20
-5.809011811023622
  0
SEQEND
  8
LAYER_1
 62
     1
  0
POLYLINE
  8
LAYER_1
 62
     1
 66
     1
 70
     1
  0
VERTEX
  8
LAYER_1
 62
     1
 10
-7.753625984251968
 20
-5.809011811023622
  0
VERTEX
  8
LAYER_1
 62
     1
 10
-7.691129921259843
 20
-5.809011811023622
  0
VERTEX
  8
LAYER_1
 62
     1
 10
-7.691129921259843
 20
-5.392350393700787
  0
VERTEX
  8
LAYER_1
 62
     1
 10
-7.753625984251968
 20
-5.392350393700787
  0
VERTEX
  8
LAYER_1
 62
     1
 10
-7.753625984251968
 20
-5.809011811023622
  0
SEQEND
  8
LAYER_1
 62
     1
  0
POLYLINE
  8
LAYER_1
 62
     1
 66
     1
 70
     1
  0
VERTEX
  8
LAYER_1
 62
     1
 10
-7.878625984251968
 20
-5.809011811023622
  0
VERTEX
  8
LAYER_1
 62
     1
 10
-7.816129921259843
 20
-5.809011811023622
  0
VERTEX
  8
LAYER_1
 62
     1
 10
-7.816129921259843
 20
-5.392350393700787
  0
VERTEX
  8
LAYER_1
 62
     1
 10
-7.878625984251968
 20
-5.392350393700787
  0
VERTEX
  8
LAYER_1
 62
     1
 10
-7.878625984251968
 20
-5.809011811023622
  0
SEQEND
  8
LAYER_1
 62
     1
  0
POLYLINE
  8
LAYER_1
 62
     1
 66
     1
 70
     1
  0
VERTEX
  8
LAYER_1
 62
     1
 10
-9.128625984251968
 20
-5.809011811023622
  0
VERTEX
  8
LAYER_1
 62
     1
 10
-9.066129921259842
 20
-5.809011811023622
  0
VERTEX
  8
LAYER_1
 62
     1
 10
-9.066129921259842
 20
-5.392350393700787
  0
VERTEX
  8
LAYER_1
 62
     1
 10
-9.128625984251968
 20
-5.392350393700787
  0
VERTEX
  8
LAYER_1
 62
     1
 10
-9.128625984251968
 20
-5.809011811023622
  0
SEQEND
  8
LAYER_1
 62
     1
  0
POLYLINE
  8
LAYER_1
 62
     1
 66
     1
 70
     1
  0
VERTEX
  8
LAYER_1
 62
     1
 10
-8.128625984251968
 20
-5.809011811023622
  0
VERTEX
  8
LAYER_1
 62
     1
 10
-8.066129921259842
 20
-5.809011811023622
  0
VERTEX
  8
LAYER_1
 62
     1
 10
-8.066129921259842
 20
-5.392350393700787
  0
VERTEX
  8
LAYER_1
 62
     1
 10
-8.128625984251968
 20
-5.392350393700787
  0
VERTEX
  8
LAYER_1
 62
     1
 10
-8.128625984251968
 20
-5.809011811023622
  0
SEQEND
  8
LAYER_1
 62
     1
  0
POLYLINE
  8
LAYER_1
 62
     1
 66
     1
 70
     1
  0
VERTEX
  8
LAYER_1
 62
     1
 10
-8.253625984251968
 20
-5.809011811023622
  0
VERTEX
  8
LAYER_1
 62
     1
 10
-8.191129921259842
 20
-5.809011811023622
  0
VERTEX
  8
LAYER_1
 62
     1
 10
-8.191129921259842
 20
-5.392350393700787
  0
VERTEX
  8
LAYER_1
 62
     1
 10
-8.253625984251968
 20
-5.392350393700787
  0
VERTEX
  8
LAYER_1
 62
     1
 10
-8.253625984251968
 20
-5.809011811023622
  0
SEQEND
  8
LAYER_1
 62
     1
  0
POLYLINE
  8
LAYER_1
 62
     1
 66
     1
 70
     1
  0
VERTEX
  8
LAYER_1
 62
     1
 10
-8.378625984251968
 20
-5.809011811023622
  0
VERTEX
  8
LAYER_1
 62
     1
 10
-8.316129921259842
 20
-5.809011811023622
  0
VERTEX
  8
LAYER_1
 62
     1
 10
-8.316129921259842
 20
-5.392350393700787
  0
VERTEX
  8
LAYER_1
 62
     1
 10
-8.378625984251968
 20
-5.392350393700787
  0
VERTEX
  8
LAYER_1
 62
     1
 10
-8.378625984251968
 20
-5.809011811023622
  0
SEQEND
  8
LAYER_1
 62
     1
  0
POLYLINE
  8
LAYER_1
 62
     1
 66
     1
 70
     1
  0
VERTEX
  8
LAYER_1
 62
     1
 10
-8.503625984251968
 20
-5.809011811023622
  0
VERTEX
  8
LAYER_1
 62
     1
 10
-8.441129921259842
 20
-5.809011811023622
  0
VERTEX
  8
LAYER_1
 62
     1
 10
-8.441129921259842
 20
-5.392350393700787
  0
VERTEX
  8
LAYER_1
 62
     1
 10
-8.503625984251968
 20
-5.392350393700787
  0
VERTEX
  8
LAYER_1
 62
     1
 10
-8.503625984251968
 20
-5.809011811023622
  0
SEQEND
  8
LAYER_1
 62
     1
  0
POLYLINE
  8
LAYER_1
 62
     1
 66
     1
 70
     1
  0
VERTEX
  8
LAYER_1
 62
     1
 10
-8.628625984251968
 20
-5.809011811023622
  0
VERTEX
  8
LAYER_1
 62
     1
 10
-8.566129921259842
 20
-5.809011811023622
  0
VERTEX
  8
LAYER_1
 62
     1
 10
-8.566129921259842
 20
-5.392350393700787
  0
VERTEX
  8
LAYER_1
 62
     1
 10
-8.628625984251968
 20
-5.392350393700787
  0
VERTEX
  8
LAYER_1
 62
     1
 10
-8.628625984251968
 20
-5.809011811023622
  0
SEQEND
  8
LAYER_1
 62
     1
  0
POLYLINE
  8
LAYER_1
 62
     1
 66
     1
 70
     1
  0
VERTEX
  8
LAYER_1
 62
     1
 10
-8.753625984251968
 20
-5.809011811023622
  0
VERTEX
  8
LAYER_1
 62
     1
 10
-8.691129921259842
 20
-5.809011811023622
  0
VERTEX
  8
LAYER_1
 62
     1
 10
-8.691129921259842
 20
-5.392350393700787
  0
VERTEX
  8
LAYER_1
 62
     1
 10
-8.753625984251968
 20
-5.392350393700787
  0
VERTEX
  8
LAYER_1
 62
     1
 10
-8.753625984251968
 20
-5.809011811023622
  0
SEQEND
  8
LAYER_1
 62
     1
  0
POLYLINE
  8
LAYER_1
 62
     1
 66
     1
 70
     1
  0
VERTEX
  8
LAYER_1
 62
     1
 10
-8.878625984251968
 20
-5.809011811023622
  0
VERTEX
  8
LAYER_1
 62
     1
 10
-8.816129921259842
 20
-5.809011811023622
  0
VERTEX
  8
LAYER_1
 62
     1
 10
-8.816129921259842
 20
-5.392350393700787
  0
VERTEX
  8
LAYER_1
 62
     1
 10
-8.878625984251968
 20
-5.392350393700787
  0
VERTEX
  8
LAYER_1
 62
     1
 10
-8.878625984251968
 20
-5.809011811023622
  0
SEQEND
  8
LAYER_1
 62
     1
  0
POLYLINE
  8
LAYER_1
 62
     1
 66
     1
 70
     1
  0
VERTEX
  8
LAYER_1
 62
     1
 10
-9.003625984251968
 20
-5.809011811023622
  0
VERTEX
  8
LAYER_1
 62
     1
 10
-8.941129921259842
 20
-5.809011811023622
  0
VERTEX
  8
LAYER_1
 62
     1
 10
-8.941129921259842
 20
-5.392350393700787
  0
VERTEX
  8
LAYER_1
 62
     1
 10
-9.003625984251968
 20
-5.392350393700787
  0
VERTEX
  8
LAYER_1
 62
     1
 10
-9.003625984251968
 20
-5.809011811023622
  0
SEQEND
  8
LAYER_1
 62
     1
  0
POLYLINE
  8
LAYER_1
 62
     1
 66
     1
 70
     1
  0
VERTEX
  8
LAYER_1
 62
     1
 10
-7.725240157480315
 20
-5.275681102362205
  0
VERTEX
  8
LAYER_1
 62
     1
 10
-5.965240157480315
 20
-5.275681102362205
  0
VERTEX
  8
LAYER_1
 62
     1
 10
-5.965240157480315
 20
-4.625681102362205
  0
VERTEX
  8
LAYER_1
 62
     1
 10
-7.725240157480315
 20
-4.625681102362205
  0
VERTEX
  8
LAYER_1
 62
     1
 10
-7.725240157480315
 20
-5.275681102362205
  0
SEQEND
  8
LAYER_1
 62
     1
  0
POLYLINE
  8
LAYER_1
 62
     1
 66
     1
 70
     1
  0
VERTEX
  8
LAYER_1
 62
     1
 10
-6.501488188976378
 20
-5.159011811023622
  0
VERTEX
  8
LAYER_1
 62
     1
 10
-6.438992125984252
 20
-5.159011811023622
  0
VERTEX
  8
LAYER_1
 62
     1
 10
-6.438992125984252
 20
-4.742350393700788
  0
VERTEX
  8
LAYER_1
 62
     1
 10
-6.501488188976378
 20
-4.742350393700788
  0
VERTEX
  8
LAYER_1
 62
     1
 10
-6.501488188976378
 20
-5.159011811023622
  0
SEQEND
  8
LAYER_1
 62
     1
  0
POLYLINE
  8
LAYER_1
 62
     1
 66
     1
 70
     1
  0
VERTEX
  8
LAYER_1
 62
     1
 10
-6.126488188976378
 20
-5.159011811023622
  0
VERTEX
  8
LAYER_1
 62
     1
 10
-6.063992125984252
 20
-5.159011811023622
  0
VERTEX
  8
LAYER_1
 62
     1
 10
-6.063992125984252
 20
-4.742350393700788
  0
VERTEX
  8
LAYER_1
 62
     1
 10
-6.126488188976378
 20
-4.742350393700788
  0
VERTEX
  8
LAYER_1
 62
     1
 10
-6.126488188976378
 20
-5.159011811023622
  0
SEQEND
  8
LAYER_1
 62
     1
  0
POLYLINE
  8
LAYER_1
 62
     1
 66
     1
 70
     1
  0
VERTEX
  8
LAYER_1
 62
     1
 10
-6.251488188976378
 20
-5.159011811023622
  0
VERTEX
  8
LAYER_1
 62
     1
 10
-6.188992125984252
 20
-5.159011811023622
  0
VERTEX
  8
LAYER_1
 62
     1
 10
-6.188992125984252
 20
-4.742350393700788
  0
VERTEX
  8
LAYER_1
 62
     1
 10
-6.251488188976378
 20
-4.742350393700788
  0
VERTEX
  8
LAYER_1
 62
     1
 10
-6.251488188976378
 20
-5.159011811023622
  0
SEQEND
  8
LAYER_1
 62
     1
  0
POLYLINE
  8
LAYER_1
 62
     1
 66
     1
 70
     1
  0
VERTEX
  8
LAYER_1
 62
     1
 10
-6.376488188976378
 20
-5.159011811023622
  0
VERTEX
  8
LAYER_1
 62
     1
 10
-6.313992125984252
 20
-5.159011811023622
  0
VERTEX
  8
LAYER_1
 62
     1
 10
-6.313992125984252
 20
-4.742350393700788
  0
VERTEX
  8
LAYER_1
 62
     1
 10
-6.376488188976378
 20
-4.742350393700788
  0
VERTEX
  8
LAYER_1
 62
     1
 10
-6.376488188976378
 20
-5.159011811023622
  0
SEQEND
  8
LAYER_1
 62
     1
  0
POLYLINE
  8
LAYER_1
 62
     1
 66
     1
 70
     1
  0
VERTEX
  8
LAYER_1
 62
     1
 10
-7.626488188976378
 20
-5.159011811023622
  0
VERTEX
  8
LAYER_1
 62
     1
 10
-7.563992125984252
 20
-5.159011811023622
  0
VERTEX
  8
LAYER_1
 62
     1
 10
-7.563992125984252
 20
-4.742350393700788
  0
VERTEX
  8
LAYER_1
 62
     1
 10
-7.626488188976378
 20
-4.742350393700788
  0
VERTEX
  8
LAYER_1
 62
     1
 10
-7.626488188976378
 20
-5.159011811023622
  0
SEQEND
  8
LAYER_1
 62
     1
  0
POLYLINE
  8
LAYER_1
 62
     1
 66
     1
 70
     1
  0
VERTEX
  8
LAYER_1
 62
     1
 10
-6.626488188976378
 20
-5.159011811023622
  0
VERTEX
  8
LAYER_1
 62
     1
 10
-6.563992125984252
 20
-5.159011811023622
  0
VERTEX
  8
LAYER_1
 62
     1
 10
-6.563992125984252
 20
-4.742350393700788
  0
VERTEX
  8
LAYER_1
 62
     1
 10
-6.626488188976378
 20
-4.742350393700788
  0
VERTEX
  8
LAYER_1
 62
     1
 10
-6.626488188976378
 20
-5.159011811023622
  0
SEQEND
  8
LAYER_1
 62
     1
  0
POLYLINE
  8
LAYER_1
 62
     1
 66
     1
 70
     1
  0
VERTEX
  8
LAYER_1
 62
     1
 10
-6.751488188976378
 20
-5.159011811023622
  0
VERTEX
  8
LAYER_1
 62
     1
 10
-6.688992125984252
 20
-5.159011811023622
  0
VERTEX
  8
LAYER_1
 62
     1
 10
-6.688992125984252
 20
-4.742350393700788
  0
VERTEX
  8
LAYER_1
 62
     1
 10
-6.751488188976378
 20
-4.742350393700788
  0
VERTEX
  8
LAYER_1
 62
     1
 10
-6.751488188976378
 20
-5.159011811023622
  0
SEQEND
  8
LAYER_1
 62
     1
  0
POLYLINE
  8
LAYER_1
 62
     1
 66
     1
 70
     1
  0
VERTEX
  8
LAYER_1
 62
     1
 10
-6.876488188976378
 20
-5.159011811023622
  0
VERTEX
  8
LAYER_1
 62
     1
 10
-6.813992125984252
 20
-5.159011811023622
  0
VERTEX
  8
LAYER_1
 62
     1
 10
-6.813992125984252
 20
-4.742350393700788
  0
VERTEX
  8
LAYER_1
 62
     1
 10
-6.876488188976378
 20
-4.742350393700788
  0
VERTEX
  8
LAYER_1
 62
     1
 10
-6.876488188976378
 20
-5.159011811023622
  0
SEQEND
  8
LAYER_1
 62
     1
  0
POLYLINE
  8
LAYER_1
 62
     1
 66
     1
 70
     1
  0
VERTEX
  8
LAYER_1
 62
     1
 10
-7.001488188976378
 20
-5.159011811023622
  0
VERTEX
  8
LAYER_1
 62
     1
 10
-6.938992125984252
 20
-5.159011811023622
  0
VERTEX
  8
LAYER_1
 62
     1
 10
-6.938992125984252
 20
-4.742350393700788
  0
VERTEX
  8
LAYER_1
 62
     1
 10
-7.001488188976378
 20
-4.742350393700788
  0
VERTEX
  8
LAYER_1
 62
     1
 10
-7.001488188976378
 20
-5.159011811023622
  0
SEQEND
  8
LAYER_1
 62
     1
  0
POLYLINE
  8
LAYER_1
 62
     1
 66
     1
 70
     1
  0
VERTEX
  8
LAYER_1
 62
     1
 10
-7.126488188976378
 20
-5.159011811023622
  0
VERTEX
  8
LAYER_1
 62
     1
 10
-7.063992125984252
 20
-5.159011811023622
  0
VERTEX
  8
LAYER_1
 62
     1
 10
-7.063992125984252
 20
-4.742350393700788
  0
VERTEX
  8
LAYER_1
 62
     1
 10
-7.126488188976378
 20
-4.742350393700788
  0
VERTEX
  8
LAYER_1
 62
     1
 10
-7.126488188976378
 20
-5.159011811023622
  0
SEQEND
  8
LAYER_1
 62
     1
  0
POLYLINE
  8
LAYER_1
 62
     1
 66
     1
 70
     1
  0
VERTEX
  8
LAYER_1
 62
     1
 10
-7.251488188976378
 20
-5.159011811023622
  0
VERTEX
  8
LAYER_1
 62
     1
 10
-7.188992125984252
 20
-5.159011811023622
  0
VERTEX
  8
LAYER_1
 62
     1
 10
-7.188992125984252
 20
-4.742350393700788
  0
VERTEX
  8
LAYER_1
 62
     1
 10
-7.251488188976378
 20
-4.742350393700788
  0
VERTEX
  8
LAYER_1
 62
     1
 10
-7.251488188976378
 20
-5.159011811023622
  0
SEQEND
  8
LAYER_1
 62
     1
  0
POLYLINE
  8
LAYER_1
 62
     1
 66
     1
 70
     1
  0
VERTEX
  8
LAYER_1
 62
     1
 10
-7.376488188976378
 20
-5.159011811023622
  0
VERTEX
  8
LAYER_1
 62
     1
 10
-7.313992125984252
 20
-5.159011811023622
  0
VERTEX
  8
LAYER_1
 62
     1
 10
-7.313992125984252
 20
-4.742350393700788
  0
VERTEX
  8
LAYER_1
 62
     1
 10
-7.376488188976378
 20
-4.742350393700788
  0
VERTEX
  8
LAYER_1
 62
     1
 10
-7.376488188976378
 20
-5.159011811023622
  0
SEQEND
  8
LAYER_1
 62
     1
  0
POLYLINE
  8
LAYER_1
 62
     1
 66
     1
 70
     1
  0
VERTEX
  8
LAYER_1
 62
     1
 10
-7.501488188976378
 20
-5.159011811023622
  0
VERTEX
  8
LAYER_1
 62
     1
 10
-7.438992125984252
 20
-5.159011811023622
  0
VERTEX
  8
LAYER_1
 62
     1
 10
-7.438992125984252
 20
-4.742350393700788
  0
VERTEX
  8
LAYER_1
 62
     1
 10
-7.501488188976378
 20
-4.742350393700788
  0
VERTEX
  8
LAYER_1
 62
     1
 10
-7.501488188976378
 20
-5.159011811023622
  0
SEQEND
  8
LAYER_1
 62
     1
  0
POLYLINE
  8
LAYER_1
 62
     1
 66
     1
 70
     1
  0
VERTEX
  8
LAYER_1
 62
     1
 10
-7.467377952755905
 20
-5.925681102362205
  0
VERTEX
  8
LAYER_1
 62
     1
 10
-5.707377952755905
 20
-5.925681102362205
  0
VERTEX
  8
LAYER_1
 62
     1
 10
-5.707377952755905
 20
-5.275681102362205
  0
VERTEX
  8
LAYER_1
 62
     1
 10
-7.467377952755905
 20
-5.275681102362205
  0
VERTEX
  8
LAYER_1
 62
     1
 10
-7.467377952755905
 20
-5.925681102362205
  0
SEQEND
  8
LAYER_1
 62
     1
  0
POLYLINE
  8
LAYER_1
 62
     1
 66
     1
 70
     1
  0
VERTEX
  8
LAYER_1
 62
     1
 10
-6.243625984251969
 20
-5.809011811023622
  0
VERTEX
  8
LAYER_1
 62
     1
 10
-6.181129921259843
 20
-5.809011811023622
  0
VERTEX
  8
LAYER_1
 62
     1
 10
-6.181129921259843
 20
-5.392350393700787
  0
VERTEX
  8
LAYER_1
 62
     1
 10
-6.243625984251969
 20
-5.392350393700787
  0
VERTEX
  8
LAYER_1
 62
     1
 10
-6.243625984251969
 20
-5.809011811023622
  0
SEQEND
  8
LAYER_1
 62
     1
  0
POLYLINE
  8
LAYER_1
 62
     1
 66
     1
 70
     1
  0
VERTEX
  8
LAYER_1
 62
     1
 10
-5.868625984251969
 20
-5.809011811023622
  0
VERTEX
  8
LAYER_1
 62
     1
 10
-5.806129921259843
 20
-5.809011811023622
  0
VERTEX
  8
LAYER_1
 62
     1
 10
-5.806129921259843
 20
-5.392350393700787
  0
VERTEX
  8
LAYER_1
 62
     1
 10
-5.868625984251969
 20
-5.392350393700787
  0
VERTEX
  8
LAYER_1
 62
     1
 10
-5.868625984251969
 20
-5.809011811023622
  0
SEQEND
  8
LAYER_1
 62
     1
  0
POLYLINE
  8
LAYER_1
 62
     1
 66
     1
 70
     1
  0
VERTEX
  8
LAYER_1
 62
     1
 10
-5.993625984251969
 20
-5.809011811023622
  0
VERTEX
  8
LAYER_1
 62
     1
 10
-5.931129921259843
 20
-5.809011811023622
  0
VERTEX
  8
LAYER_1
 62
     1
 10
-5.931129921259843
 20
-5.392350393700787
  0
VERTEX
  8
LAYER_1
 62
     1
 10
-5.993625984251969
 20
-5.392350393700787
  0
VERTEX
  8
LAYER_1
 62
     1
 10
-5.993625984251969
 20
-5.809011811023622
  0
SEQEND
  8
LAYER_1
 62
     1
  0
POLYLINE
  8
LAYER_1
 62
     1
 66
     1
 70
     1
  0
VERTEX
  8
LAYER_1
 62
     1
 10
-6.118625984251969
 20
-5.809011811023622
  0
VERTEX
  8
LAYER_1
 62
     1
 10
-6.056129921259843
 20
-5.809011811023622
  0
VERTEX
  8
LAYER_1
 62
     1
 10
-6.056129921259843
 20
-5.392350393700787
  0
VERTEX
  8
LAYER_1
 62
     1
 10
-6.118625984251969
 20
-5.392350393700787
  0
VERTEX
  8
LAYER_1
 62
     1
 10
-6.118625984251969
 20
-5.809011811023622
  0
SEQEND
  8
LAYER_1
 62
     1
  0
POLYLINE
  8
LAYER_1
 62
     1
 66
     1
 70
     1
  0
VERTEX
  8
LAYER_1
 62
     1
 10
-7.368625984251969
 20
-5.809011811023622
  0
VERTEX
  8
LAYER_1
 62
     1
 10
-7.306129921259843
 20
-5.809011811023622
  0
VERTEX
  8
LAYER_1
 62
     1
 10
-7.306129921259843
 20
-5.392350393700787
  0
VERTEX
  8
LAYER_1
 62
     1
 10
-7.368625984251969
 20
-5.392350393700787
  0
VERTEX
  8
LAYER_1
 62
     1
 10
-7.368625984251969
 20
-5.809011811023622
  0
SEQEND
  8
LAYER_1
 62
     1
  0
POLYLINE
  8
LAYER_1
 62
     1
 66
     1
 70
     1
  0
VERTEX
  8
LAYER_1
 62
     1
 10
-6.368625984251969
 20
-5.809011811023622
  0
VERTEX
  8
LAYER_1
 62
     1
 10
-6.306129921259843
 20
-5.809011811023622
  0
VERTEX
  8
LAYER_1
 62
     1
 10
-6.306129921259843
 20
-5.392350393700787
  0
VERTEX
  8
LAYER_1
 62
     1
 10
-6.368625984251969
 20
-5.392350393700787
  0
VERTEX
  8
LAYER_1
 62
     1
 10
-6.368625984251969
 20
-5.809011811023622
  0
SEQEND
  8
LAYER_1
 62
     1
  0
POLYLINE
  8
LAYER_1
 62
     1
 66
     1
 70
     1
  0
VERTEX
  8
LAYER_1
 62
     1
 10
-6.493625984251969
 20
-5.809011811023622
  0
VERTEX
  8
LAYER_1
 62
     1
 10
-6.431129921259843
 20
-5.809011811023622
  0
VERTEX
  8
LAYER_1
 62
     1
 10
-6.431129921259843
 20
-5.392350393700787
  0
VERTEX
  8
LAYER_1
 62
     1
 10
-6.493625984251969
 20
-5.392350393700787
  0
VERTEX
  8
LAYER_1
 62
     1
 10
-6.493625984251969
 20
-5.809011811023622
  0
SEQEND
  8
LAYER_1
 62
     1
  0
POLYLINE
  8
LAYER_1
 62
     1
 66
     1
 70
     1
  0
VERTEX
  8
LAYER_1
 62
     1
 10
-6.618625984251969
 20
-5.809011811023622
  0
VERTEX
  8
LAYER_1
 62
     1
 10
-6.556129921259843
 20
-5.809011811023622
  0
VERTEX
  8
LAYER_1
 62
     1
 10
-6.556129921259843
 20
-5.392350393700787
  0
VERTEX
  8
LAYER_1
 62
     1
 10
-6.618625984251969
 20
-5.392350393700787
  0
VERTEX
  8
LAYER_1
 62
     1
 10
-6.618625984251969
 20
-5.809011811023622
  0
SEQEND
  8
LAYER_1
 62
     1
  0
POLYLINE
  8
LAYER_1
 62
     1
 66
     1
 70
     1
  0
VERTEX
  8
LAYER_1
 62
     1
 10
-6.743625984251969
 20
-5.809011811023622
  0
VERTEX
  8
LAYER_1
 62
     1
 10
-6.681129921259843
 20
-5.809011811023622
  0
VERTEX
  8
LAYER_1
 62
     1
 10
-6.681129921259843
 20
-5.392350393700787
  0
VERTEX
  8
LAYER_1
 62
     1
 10
-6.743625984251969
 20
-5.392350393700787
  0
VERTEX
  8
LAYER_1
 62
     1
 10
-6.743625984251969
 20
-5.809011811023622
  0
SEQEND
  8
LAYER_1
 62
     1
  0
POLYLINE
  8
LAYER_1
 62
     1
 66
     1
 70
     1
  0
VERTEX
  8
LAYER_1
 62
     1
 10
-6.868625984251969
 20
-5.809011811023622
  0
VERTEX
  8
LAYER_1
 62
     1
 10
-6.806129921259843
 20
-5.809011811023622
  0
VERTEX
  8
LAYER_1
 62
     1
 10
-6.806129921259843
 20
-5.392350393700787
  0
VERTEX
  8
LAYER_1
 62
     1
 10
-6.868625984251969
 20
-5.392350393700787
  0
VERTEX
  8
LAYER_1
 62
     1
 10
-6.868625984251969
 20
-5.809011811023622
  0
SEQEND
  8
LAYER_1
 62
     1
  0
POLYLINE
  8
LAYER_1
 62
     1
 66
     1
 70
     1
  0
VERTEX
  8
LAYER_1
 62
     1
 10
-6.993625984251969
 20
-5.809011811023622
  0
VERTEX
  8
LAYER_1
 62
     1
 10
-6.931129921259843
 20
-5.809011811023622
  0
VERTEX
  8
LAYER_1
 62
     1
 10
-6.931129921259843
 20
-5.392350393700787
  0
VERTEX
  8
LAYER_1
 62
     1
 10
-6.993625984251969
 20
-5.392350393700787
  0
VERTEX
  8
LAYER_1
 62
     1
 10
-6.993625984251969
 20
-5.809011811023622
  0
SEQEND
  8
LAYER_1
 62
     1
  0
POLYLINE
  8
LAYER_1
 62
     1
 66
     1
 70
     1
  0
VERTEX
  8
LAYER_1
 62
     1
 10
-7.118625984251969
 20
-5.809011811023622
  0
VERTEX
  8
LAYER_1
 62
     1
 10
-7.056129921259843
 20
-5.809011811023622
  0
VERTEX
  8
LAYER_1
 62
     1
 10
-7.056129921259843
 20
-5.392350393700787
  0
VERTEX
  8
LAYER_1
 62
     1
 10
-7.118625984251969
 20
-5.392350393700787
  0
VERTEX
  8
LAYER_1
 62
     1
 10
-7.118625984251969
 20
-5.809011811023622
  0
SEQEND
  8
LAYER_1
 62
     1
  0
POLYLINE
  8
LAYER_1
 62
     1
 66
     1
 70
     1
  0
VERTEX
  8
LAYER_1
 62
     1
 10
-7.243625984251969
 20
-5.809011811023622
  0
VERTEX
  8
LAYER_1
 62
     1
 10
-7.181129921259843
 20
-5.809011811023622
  0
VERTEX
  8
LAYER_1
 62
     1
 10
-7.181129921259843
 20
-5.392350393700787
  0
VERTEX
  8
LAYER_1
 62
     1
 10
-7.243625984251969
 20
-5.392350393700787
  0
VERTEX
  8
LAYER_1
 62
     1
 10
-7.243625984251969
 20
-5.809011811023622
  0
SEQEND
  8
LAYER_1
 62
     1
  0
POLYLINE
  8
LAYER_1
 62
     1
 66
     1
 70
     1
  0
VERTEX
  8
LAYER_1
 62
     1
 10
-2.975692913385827
 20
-5.936511811023622
  0
VERTEX
  8
LAYER_1
 62
     1
 10
-1.215692913385827
 20
-5.936511811023622
  0
VERTEX
  8
LAYER_1
 62
     1
 10
-1.215692913385827
 20
-5.286511811023622
  0
VERTEX
  8
LAYER_1
 62
     1
 10
-2.975692913385827
 20
-5.286511811023622
  0
VERTEX
  8
LAYER_1
 62
     1
 10
-2.975692913385827
 20
-5.936511811023622
  0
SEQEND
  8
LAYER_1
 62
     1
  0
POLYLINE
  8
LAYER_1
 62
     1
 66
     1
 70
     1
  0
VERTEX
  8
LAYER_1
 62
     1
 10
-1.75194094488189
 20
-5.819842519685039
  0
VERTEX
  8
LAYER_1
 62
     1
 10
-1.689444881889764
 20
-5.819842519685039
  0
VERTEX
  8
LAYER_1
 62
     1
 10
-1.689444881889764
 20
-5.403181102362205
  0
VERTEX
  8
LAYER_1
 62
     1
 10
-1.75194094488189
 20
-5.403181102362205
  0
VERTEX
  8
LAYER_1
 62
     1
 10
-1.75194094488189
 20
-5.819842519685039
  0
SEQEND
  8
LAYER_1
 62
     1
  0
POLYLINE
  8
LAYER_1
 62
     1
 66
     1
 70
     1
  0
VERTEX
  8
LAYER_1
 62
     1
 10
-1.37694094488189
 20
-5.819842519685039
  0
VERTEX
  8
LAYER_1
 62
     1
 10
-1.314444881889764
 20
-5.819842519685039
  0
VERTEX
  8
LAYER_1
 62
     1
 10
-1.314444881889764
 20
-5.403181102362205
  0
VERTEX
  8
LAYER_1
 62
     1
 10
-1.37694094488189
 20
-5.403181102362205
  0
VERTEX
  8
LAYER_1
 62
     1
 10
-1.37694094488189
 20
-5.819842519685039
  0
SEQEND
  8
LAYER_1
 62
     1
  0
POLYLINE
  8
LAYER_1
 62
     1
 66
     1
 70
     1
  0
VERTEX
  8
LAYER_1
 62
     1
 10
-1.50194094488189
 20
-5.819842519685039
  0
VERTEX
  8
LAYER_1
 62
     1
 10
-1.439444881889764
 20
-5.819842519685039
  0
VERTEX
  8
LAYER_1
 62
     1
 10
-1.439444881889764
 20
-5.403181102362205
  0
VERTEX
  8
LAYER_1
 62
     1
 10
-1.50194094488189
 20
-5.403181102362205
  0
VERTEX
  8
LAYER_1
 62
     1
 10
-1.50194094488189
 20
-5.819842519685039
  0
SEQEND
  8
LAYER_1
 62
     1
  0
POLYLINE
  8
LAYER_1
 62
     1
 66
     1
 70
     1
  0
VERTEX
  8
LAYER_1
 62
     1
 10
-1.62694094488189
 20
-5.819842519685039
  0
VERTEX
  8
LAYER_1
 62
     1
 10
-1.564444881889764
 20
-5.819842519685039
  0
VERTEX
  8
LAYER_1
 62
     1
 10
-1.564444881889764
 20
-5.403181102362205
  0
VERTEX
  8
LAYER_1
 62
     1
 10
-1.62694094488189
 20
-5.403181102362205
  0
VERTEX
  8
LAYER_1
 62
     1
 10
-1.62694094488189
 20
-5.819842519685039
  0
SEQEND
  8
LAYER_1
 62
     1
  0
POLYLINE
  8
LAYER_1
 62
     1
 66
     1
 70
     1
  0
VERTEX
  8
LAYER_1
 62
     1
 10
-2.87694094488189
 20
-5.819842519685039
  0
VERTEX
  8
LAYER_1
 62
     1
 10
-2.814444881889764
 20
-5.819842519685039
  0
VERTEX
  8
LAYER_1
 62
     1
 10
-2.814444881889764
 20
-5.403181102362205
  0
VERTEX
  8
LAYER_1
 62
     1
 10
-2.87694094488189
 20
-5.403181102362205
  0
VERTEX
  8
LAYER_1
 62
     1
 10
-2.87694094488189
 20
-5.819842519685039
  0
SEQEND
  8
LAYER_1
 62
     1
  0
POLYLINE
  8
LAYER_1
 62
     1
 66
     1
 70
     1
  0
VERTEX
  8
LAYER_1
 62
     1
 10
-1.87694094488189
 20
-5.819842519685039
  0
VERTEX
  8
LAYER_1
 62
     1
 10
-1.814444881889764
 20
-5.819842519685039
  0
VERTEX
  8
LAYER_1
 62
     1
 10
-1.814444881889764
 20
-5.403181102362205
  0
VERTEX
  8
LAYER_1
 62
     1
 10
-1.87694094488189
 20
-5.403181102362205
  0
VERTEX
  8
LAYER_1
 62
     1
 10
-1.87694094488189
 20
-5.819842519685039
  0
SEQEND
  8
LAYER_1
 62
     1
  0
POLYLINE
  8
LAYER_1
 62
     1
 66
     1
 70
     1
  0
VERTEX
  8
LAYER_1
 62
     1
 10
-2.00194094488189
 20
-5.819842519685039
  0
VERTEX
  8
LAYER_1
 62
     1
 10
-1.939444881889764
 20
-5.819842519685039
  0
VERTEX
  8
LAYER_1
 62
     1
 10
-1.939444881889764
 20
-5.403181102362205
  0
VERTEX
  8
LAYER_1
 62
     1
 10
-2.00194094488189
 20
-5.403181102362205
  0
VERTEX
  8
LAYER_1
 62
     1
 10
-2.00194094488189
 20
-5.819842519685039
  0
SEQEND
  8
LAYER_1
 62
     1
  0
POLYLINE
  8
LAYER_1
 62
     1
 66
     1
 70
     1
  0
VERTEX
  8
LAYER_1
 62
     1
 10
-2.12694094488189
 20
-5.819842519685039
  0
VERTEX
  8
LAYER_1
 62
     1
 10
-2.064444881889764
 20
-5.819842519685039
  0
VERTEX
  8
LAYER_1
 62
     1
 10
-2.064444881889764
 20
-5.403181102362205
  0
VERTEX
  8
LAYER_1
 62
     1
 10
-2.12694094488189
 20
-5.403181102362205
  0
VERTEX
  8
LAYER_1
 62
     1
 10
-2.12694094488189
 20
-5.819842519685039
  0
SEQEND
  8
LAYER_1
 62
     1
  0
POLYLINE
  8
LAYER_1
 62
     1
 66
     1
 70
     1
  0
VERTEX
  8
LAYER_1
 62
     1
 10
-2.25194094488189
 20
-5.819842519685039
  0
VERTEX
  8
LAYER_1
 62
     1
 10
-2.189444881889764
 20
-5.819842519685039
  0
VERTEX
  8
LAYER_1
 62
     1
 10
-2.189444881889764
 20
-5.403181102362205
  0
VERTEX
  8
LAYER_1
 62
     1
 10
-2.25194094488189
 20
-5.403181102362205
  0
VERTEX
  8
LAYER_1
 62
     1
 10
-2.25194094488189
 20
-5.819842519685039
  0
SEQEND
  8
LAYER_1
 62
     1
  0
POLYLINE
  8
LAYER_1
 62
     1
 66
     1
 70
     1
  0
VERTEX
  8
LAYER_1
 62
     1
 10
-2.37694094488189
 20
-5.819842519685039
  0
VERTEX
  8
LAYER_1
 62
     1
 10
-2.314444881889764
 20
-5.819842519685039
  0
VERTEX
  8
LAYER_1
 62
     1
 10
-2.314444881889764
 20
-5.403181102362205
  0
VERTEX
  8
LAYER_1
 62
     1
 10
-2.37694094488189
 20
-5.403181102362205
  0
VERTEX
  8
LAYER_1
 62
     1
 10
-2.37694094488189
 20
-5.819842519685039
  0
SEQEND
  8
LAYER_1
 62
     1
  0
POLYLINE
  8
LAYER_1
 62
     1
 66
     1
 70
     1
  0
VERTEX
  8
LAYER_1
 62
     1
 10
-2.50194094488189
 20
-5.819842519685039
  0
VERTEX
  8
LAYER_1
 62
     1
 10
-2.439444881889764
 20
-5.819842519685039
  0
VERTEX
  8
LAYER_1
 62
     1
 10
-2.439444881889764
 20
-5.403181102362205
  0
VERTEX
  8
LAYER_1
 62
     1
 10
-2.50194094488189
 20
-5.403181102362205
  0
VERTEX
  8
LAYER_1
 62
     1
 10
-2.50194094488189
 20
-5.819842519685039
  0
SEQEND
  8
LAYER_1
 62
     1
  0
POLYLINE
  8
LAYER_1
 62
     1
 66
     1
 70
     1
  0
VERTEX
  8
LAYER_1
 62
     1
 10
-2.62694094488189
 20
-5.819842519685039
  0
VERTEX
  8
LAYER_1
 62
     1
 10
-2.564444881889764
 20
-5.819842519685039
  0
VERTEX
  8
LAYER_1
 62
     1
 10
-2.564444881889764
 20
-5.403181102362205
  0
VERTEX
  8
LAYER_1
 62
     1
 10
-2.62694094488189
 20
-5.403181102362205
  0
VERTEX
  8
LAYER_1
 62
     1
 10
-2.62694094488189
 20
-5.819842519685039
  0
SEQEND
  8
LAYER_1
 62
     1
  0
POLYLINE
  8
LAYER_1
 62
     1
 66
     1
 70
     1
  0
VERTEX
  8
LAYER_1
 62
     1
 10
-2.75194094488189
 20
-5.819842519685039
  0
VERTEX
  8
LAYER_1
 62
     1
 10
-2.689444881889764
 20
-5.819842519685039
  0
VERTEX
  8
LAYER_1
 62
     1
 10
-2.689444881889764
 20
-5.403181102362205
  0
VERTEX
  8
LAYER_1
 62
     1
 10
-2.75194094488189
 20
-5.403181102362205
  0
VERTEX
  8
LAYER_1
 62
     1
 10
-2.75194094488189
 20
-5.819842519685039
  0
SEQEND
  8
LAYER_1
 62
     1
  0
POLYLINE
  8
LAYER_1
 62
     1
 66
     1
 70
     1
  0
VERTEX
  8
LAYER_1
 62
     1
 10
-2.975692913385827
 20
-5.286511811023622
  0
VERTEX
  8
LAYER_1
 62
     1
 10
-1.215692913385827
 20
-5.286511811023622
  0
VERTEX
  8
LAYER_1
 62
     1
 10
-1.215692913385827
 20
-4.636511811023622
  0
VERTEX
  8
LAYER_1
 62
     1
 10
-2.975692913385827
 20
-4.636511811023622
  0
VERTEX
  8
LAYER_1
 62
     1
 10
-2.975692913385827
 20
-5.286511811023622
  0
SEQEND
  8
LAYER_1
 62
     1
  0
POLYLINE
  8
LAYER_1
 62
     1
 66
     1
 70
     1
  0
VERTEX
  8
LAYER_1
 62
     1
 10
-1.75194094488189
 20
-5.169842519685039
  0
VERTEX
  8
LAYER_1
 62
     1
 10
-1.689444881889764
 20
-5.169842519685039
  0
VERTEX
  8
LAYER_1
 62
     1
 10
-1.689444881889764
 20
-4.753181102362205
  0
VERTEX
  8
LAYER_1
 62
     1
 10
-1.75194094488189
 20
-4.753181102362205
  0
VERTEX
  8
LAYER_1
 62
     1
 10
-1.75194094488189
 20
-5.169842519685039
  0
SEQEND
  8
LAYER_1
 62
     1
  0
POLYLINE
  8
LAYER_1
 62
     1
 66
     1
 70
     1
  0
VERTEX
  8
LAYER_1
 62
     1
 10
-1.37694094488189
 20
-5.169842519685039
  0
VERTEX
  8
LAYER_1
 62
     1
 10
-1.314444881889764
 20
-5.169842519685039
  0
VERTEX
  8
LAYER_1
 62
     1
 10
-1.314444881889764
 20
-4.753181102362205
  0
VERTEX
  8
LAYER_1
 62
     1
 10
-1.37694094488189
 20
-4.753181102362205
  0
VERTEX
  8
LAYER_1
 62
     1
 10
-1.37694094488189
 20
-5.169842519685039
  0
SEQEND
  8
LAYER_1
 62
     1
  0
POLYLINE
  8
LAYER_1
 62
     1
 66
     1
 70
     1
  0
VERTEX
  8
LAYER_1
 62
     1
 10
-1.50194094488189
 20
-5.169842519685039
  0
VERTEX
  8
LAYER_1
 62
     1
 10
-1.439444881889764
 20
-5.169842519685039
  0
VERTEX
  8
LAYER_1
 62
     1
 10
-1.439444881889764
 20
-4.753181102362205
  0
VERTEX
  8
LAYER_1
 62
     1
 10
-1.50194094488189
 20
-4.753181102362205
  0
VERTEX
  8
LAYER_1
 62
     1
 10
-1.50194094488189
 20
-5.169842519685039
  0
SEQEND
  8
LAYER_1
 62
     1
  0
POLYLINE
  8
LAYER_1
 62
     1
 66
     1
 70
     1
  0
VERTEX
  8
LAYER_1
 62
     1
 10
-1.62694094488189
 20
-5.169842519685039
  0
VERTEX
  8
LAYER_1
 62
     1
 10
-1.564444881889764
 20
-5.169842519685039
  0
VERTEX
  8
LAYER_1
 62
     1
 10
-1.564444881889764
 20
-4.753181102362205
  0
VERTEX
  8
LAYER_1
 62
     1
 10
-1.62694094488189
 20
-4.753181102362205
  0
VERTEX
  8
LAYER_1
 62
     1
 10
-1.62694094488189
 20
-5.169842519685039
  0
SEQEND
  8
LAYER_1
 62
     1
  0
POLYLINE
  8
LAYER_1
 62
     1
 66
     1
 70
     1
  0
VERTEX
  8
LAYER_1
 62
     1
 10
-2.87694094488189
 20
-5.169842519685039
  0
VERTEX
  8
LAYER_1
 62
     1
 10
-2.814444881889764
 20
-5.169842519685039
  0
VERTEX
  8
LAYER_1
 62
     1
 10
-2.814444881889764
 20
-4.753181102362205
  0
VERTEX
  8
LAYER_1
 62
     1
 10
-2.87694094488189
 20
-4.753181102362205
  0
VERTEX
  8
LAYER_1
 62
     1
 10
-2.87694094488189
 20
-5.169842519685039
  0
SEQEND
  8
LAYER_1
 62
     1
  0
POLYLINE
  8
LAYER_1
 62
     1
 66
     1
 70
     1
  0
VERTEX
  8
LAYER_1
 62
     1
 10
-1.87694094488189
 20
-5.169842519685039
  0
VERTEX
  8
LAYER_1
 62
     1
 10
-1.814444881889764
 20
-5.169842519685039
  0
VERTEX
  8
LAYER_1
 62
     1
 10
-1.814444881889764
 20
-4.753181102362205
  0
VERTEX
  8
LAYER_1
 62
     1
 10
-1.87694094488189
 20
-4.753181102362205
  0
VERTEX
  8
LAYER_1
 62
     1
 10
-1.87694094488189
 20
-5.169842519685039
  0
SEQEND
  8
LAYER_1
 62
     1
  0
POLYLINE
  8
LAYER_1
 62
     1
 66
     1
 70
     1
  0
VERTEX
  8
LAYER_1
 62
     1
 10
-2.00194094488189
 20
-5.169842519685039
  0
VERTEX
  8
LAYER_1
 62
     1
 10
-1.939444881889764
 20
-5.169842519685039
  0
VERTEX
  8
LAYER_1
 62
     1
 10
-1.939444881889764
 20
-4.753181102362205
  0
VERTEX
  8
LAYER_1
 62
     1
 10
-2.00194094488189
 20
-4.753181102362205
  0
VERTEX
  8
LAYER_1
 62
     1
 10
-2.00194094488189
 20
-5.169842519685039
  0
SEQEND
  8
LAYER_1
 62
     1
  0
POLYLINE
  8
LAYER_1
 62
     1
 66
     1
 70
     1
  0
VERTEX
  8
LAYER_1
 62
     1
 10
-2.12694094488189
 20
-5.169842519685039
  0
VERTEX
  8
LAYER_1
 62
     1
 10
-2.064444881889764
 20
-5.169842519685039
  0
VERTEX
  8
LAYER_1
 62
     1
 10
-2.064444881889764
 20
-4.753181102362205
  0
VERTEX
  8
LAYER_1
 62
     1
 10
-2.12694094488189
 20
-4.753181102362205
  0
VERTEX
  8
LAYER_1
 62
     1
 10
-2.12694094488189
 20
-5.169842519685039
  0
SEQEND
  8
LAYER_1
 62
     1
  0
POLYLINE
  8
LAYER_1
 62
     1
 66
     1
 70
     1
  0
VERTEX
  8
LAYER_1
 62
     1
 10
-2.25194094488189
 20
-5.169842519685039
  0
VERTEX
  8
LAYER_1
 62
     1
 10
-2.189444881889764
 20
-5.169842519685039
  0
VERTEX
  8
LAYER_1
 62
     1
 10
-2.189444881889764
 20
-4.753181102362205
  0
VERTEX
  8
LAYER_1
 62
     1
 10
-2.25194094488189
 20
-4.753181102362205
  0
VERTEX
  8
LAYER_1
 62
     1
 10
-2.25194094488189
 20
-5.169842519685039
  0
SEQEND
  8
LAYER_1
 62
     1
  0
POLYLINE
  8
LAYER_1
 62
     1
 66
     1
 70
     1
  0
VERTEX
  8
LAYER_1
 62
     1
 10
-2.37694094488189
 20
-5.169842519685039
  0
VERTEX
  8
LAYER_1
 62
     1
 10
-2.314444881889764
 20
-5.169842519685039
  0
VERTEX
  8
LAYER_1
 62
     1
 10
-2.314444881889764
 20
-4.753181102362205
  0
VERTEX
  8
LAYER_1
 62
     1
 10
-2.37694094488189
 20
-4.753181102362205
  0
VERTEX
  8
LAYER_1
 62
     1
 10
-2.37694094488189
 20
-5.169842519685039
  0
SEQEND
  8
LAYER_1
 62
     1
  0
POLYLINE
  8
LAYER_1
 62
     1
 66
     1
 70
     1
  0
VERTEX
  8
LAYER_1
 62
     1
 10
-2.50194094488189
 20
-5.169842519685039
  0
VERTEX
  8
LAYER_1
 62
     1
 10
-2.439444881889764
 20
-5.169842519685039
  0
VERTEX
  8
LAYER_1
 62
     1
 10
-2.439444881889764
 20
-4.753181102362205
  0
VERTEX
  8
LAYER_1
 62
     1
 10
-2.50194094488189
 20
-4.753181102362205
  0
VERTEX
  8
LAYER_1
 62
     1
 10
-2.50194094488189
 20
-5.169842519685039
  0
SEQEND
  8
LAYER_1
 62
     1
  0
POLYLINE
  8
LAYER_1
 62
     1
 66
     1
 70
     1
  0
VERTEX
  8
LAYER_1
 62
     1
 10
-2.62694094488189
 20
-5.169842519685039
  0
VERTEX
  8
LAYER_1
 62
     1
 10
-2.564444881889764
 20
-5.169842519685039
  0
VERTEX
  8
LAYER_1
 62
     1
 10
-2.564444881889764
 20
-4.753181102362205
  0
VERTEX
  8
LAYER_1
 62
     1
 10
-2.62694094488189
 20
-4.753181102362205
  0
VERTEX
  8
LAYER_1
 62
     1
 10
-2.62694094488189
 20
-5.169842519685039
  0
SEQEND
  8
LAYER_1
 62
     1
  0
POLYLINE
  8
LAYER_1
 62
     1
 66
     1
 70
     1
  0
VERTEX
  8
LAYER_1
 62
     1
 10
-2.75194094488189
 20
-5.169842519685039
  0
VERTEX
  8
LAYER_1
 62
     1
 10
-2.689444881889764
 20
-5.169842519685039
  0
VERTEX
  8
LAYER_1
 62
     1
 10
-2.689444881889764
 20
-4.753181102362205
  0
VERTEX
  8
LAYER_1
 62
     1
 10
-2.75194094488189
 20
-4.753181102362205
  0
VERTEX
  8
LAYER_1
 62
     1
 10
-2.75194094488189
 20
-5.169842519685039
  0
SEQEND
  8
LAYER_1
 62
     1
  0
ENDSEC
  0
EOF
