<?xml version="1.0" encoding="UTF-8"?>
<!DOCTYPE svg PUBLIC "-//W3C//DTD SVG 1.0//EN" "http://www.w3.org/TR/2001/REC-SVG-20010904/DTD/svg10.dtd">
<!-- Creator: CorelDRAW X7 -->
<svg xmlns="http://www.w3.org/2000/svg" xml:space="preserve" width="24in" height="12in" version="1.0" style="shape-rendering:geometricPrecision; text-rendering:geometricPrecision; image-rendering:optimizeQuality; fill-rule:evenodd; clip-rule:evenodd"
viewBox="0 0 2400000 1200000"
 xmlns:xlink="http://www.w3.org/1999/xlink">
 <defs>
  <style type="text/css">
   <![CDATA[
    .str2 {stroke:black;stroke-width:1388.58}
    .str1 {stroke:aqua;stroke-width:300}
    .str0 {stroke:red;stroke-width:300}
    .fil0 {fill:none}
    .fil1 {fill:black}
   ]]>
  </style>
 </defs>
 <g id="Layer_x0020_1">
  <metadata id="CorelCorpID_0Corel-Layer"/>
  <rect class="fil0 str0" x="12500" y="11500" width="1100000" height="77000"/>
  <rect class="fil0 str0" x="12500" y="88500" width="1100000" height="77000"/>
  <rect class="fil0 str0" x="12500" y="165500" width="1100000" height="77000"/>
  <rect class="fil0 str0" x="12500" y="242500" width="1100000" height="77000"/>
  <rect class="fil0 str0" x="12500" y="319500" width="1100000" height="77000"/>
  <rect class="fil0 str0" x="12500" y="396500" width="1100000" height="77000"/>
  <rect class="fil0 str0" x="12500" y="473500" width="1100000" height="77000"/>
  <rect class="fil0 str0" x="12500" y="550500" width="1100000" height="77000"/>
  <g id="_689544880">
   <polygon class="fil0 str1" points="387971,256000 512971,256000 512971,306000 387971,306000 "/>
   <path class="fil0 str1" d="M516805 312250l-138334 0 0 -62500 138334 0c15555,20833 15555,41667 0,62500z"/>
  </g>
  <g id="_687688672">
   <polygon class="fil0 str1" points="637349,410000 762349,410000 762349,460000 637349,460000 "/>
   <path class="fil0 str1" d="M766183 466250l-138334 0 0 -62500 138334 0c15555,20834 15555,41667 0,62500z"/>
  </g>
  <g id="_687688096">
   <rect class="fil0 str1" x="887000" y="18750" width="125000" height="62500"/>
   <polyline class="fil0 str1" points="887000,25000 1006344,25000 1006344,75000 887000,75000 "/>
  </g>
  <g id="_687687520">
   <rect class="fil0 str1" x="887000" y="95750" width="125000" height="62500"/>
   <polyline class="fil0 str1" points="887000,102000 1006344,102000 1006344,152000 887000,152000 "/>
  </g>
  <g id="_687686944">
   <rect class="fil0 str1" x="887000" y="172750" width="125000" height="62500"/>
   <polyline class="fil0 str1" points="887000,179000 1006344,179000 1006344,229000 887000,229000 "/>
  </g>
  <g id="_687686368">
   <rect class="fil0 str1" x="887000" y="249750" width="125000" height="62500"/>
   <polyline class="fil0 str1" points="887000,256000 1006344,256000 1006344,306000 887000,306000 "/>
  </g>
  <g id="_687685792">
   <rect class="fil0 str1" x="887000" y="326750" width="125000" height="62500"/>
   <polyline class="fil0 str1" points="887000,333000 1006344,333000 1006344,383000 887000,383000 "/>
  </g>
  <g id="_688138912">
   <rect class="fil0 str1" x="887000" y="403750" width="125000" height="62500"/>
   <polyline class="fil0 str1" points="887000,410000 1006344,410000 1006344,460000 887000,460000 "/>
  </g>
  <g id="_688138336">
   <rect class="fil0 str1" x="887000" y="480750" width="125000" height="62500"/>
   <polyline class="fil0 str1" points="887000,487000 1006344,487000 1006344,537000 887000,537000 "/>
  </g>
  <g id="_688137760">
   <rect class="fil0 str1" x="887000" y="557750" width="125000" height="62500"/>
   <polyline class="fil0 str1" points="887000,564000 1006344,564000 1006344,614000 887000,614000 "/>
  </g>
  <line class="fil0 str2" x1="872500" y1="93500" x2="12500" y2= "93500" />
  <line class="fil0 str2" x1="872500" y1="170500" x2="12500" y2= "170500" />
  <line class="fil0 str2" x1="872500" y1="247500" x2="12500" y2= "247500" />
  <line class="fil0 str2" x1="872500" y1="324500" x2="12500" y2= "324500" />
  <line class="fil0 str2" x1="872500" y1="401500" x2="12500" y2= "401500" />
  <line class="fil0 str2" x1="872500" y1="478500" x2="12500" y2= "478500" />
  <line class="fil0 str2" x1="872500" y1="555500" x2="12500" y2= "555500" />
  <path class="fil0 str0" d="M549594 77500l146008 0c18333,-18333 18333,-36667 0,-55000l-146008 0 0 55000z"/>
  <path class="fil0 str0" d="M312094 77500l146008 0c18333,-18333 18333,-36667 0,-55000l-146008 0 0 55000z"/>
  <path class="fil0 str0" d="M12500 77500l146008 0c18333,-18333 18333,-36667 0,-55000l-146008 0 0 55000z"/>
  <g id="_684632704">
   <polygon class="fil0 str0" points="265607,777500 300962,792144 336318,806789 350963,842145 365607,877500 350963,912855 336318,948211 300962,962856 265607,977500 230252,962856 194896,948211 180252,912855 165607,877500 180252,842145 194896,806789 230252,792144 "/>
   <line class="fil0 str0" x1="336318" y1="806789" x2="358937" y2= "797420" />
   <polyline class="fil0 str0" points="388226,886869 365607,877500 388226,868131 "/>
   <line class="fil0 str0" x1="336318" y1="806789" x2="345687" y2= "784170" />
   <polyline class="fil0 str0" points="274976,754881 265607,777500 256238,754881 "/>
   <polyline class="fil0 str0" points="185528,784170 194896,806789 172277,797420 "/>
   <polyline class="fil0 str0" points="142988,868131 165607,877500 142988,886869 "/>
   <polyline class="fil0 str0" points="185528,970830 194896,948211 172277,957580 "/>
   <polyline class="fil0 str0" points="256238,1000119 265607,977500 274976,1000119 "/>
   <polyline class="fil0 str0" points="345687,970830 336318,948211 358937,957580 "/>
   <polygon class="fil0 str0" points="265607,627500 353994,664111 442384,700723 478996,789113 515607,877500 478996,965887 442384,1054277 353994,1090889 265607,1127500 177220,1090889 88830,1054277 52219,965887 15607,877500 52219,789113 88830,700723 177220,664111 "/>
   <line class="fil0 str0" x1="274976" y1="754881" x2="345687" y2= "784170" />
   <line class="fil0 str0" x1="358937" y1="797420" x2="388226" y2= "868131" />
   <line class="fil0 str0" x1="388226" y1="886869" x2="358937" y2= "957580" />
   <line class="fil0 str0" x1="345687" y1="970830" x2="274976" y2= "1000119" />
   <line class="fil0 str0" x1="256238" y1="1000119" x2="185528" y2= "970830" />
   <line class="fil0 str0" x1="172277" y1="957580" x2="142988" y2= "886869" />
   <line class="fil0 str0" x1="142988" y1="868131" x2="172277" y2= "797420" />
   <line class="fil0 str0" x1="185528" y1="784170" x2="256238" y2= "754881" />
  </g>
  <g id="_684692448">
   <polygon class="fil0 str0" points="633970,671604 669325,686248 704681,700893 719326,736249 733970,771604 719326,806959 704681,842315 669325,856959 633970,871604 598615,856959 563259,842315 548615,806959 533970,771604 548615,736249 563259,700893 598615,686248 "/>
   <polygon class="fil0 str0" points="633970,645104 678694,663630 723419,682155 741944,726880 760470,771604 741944,816328 723419,861053 678694,879578 633970,898104 589246,879578 544521,861053 525996,816328 507470,771604 525996,726880 544521,682155 589246,663630 "/>
   <path class="fil0 str0" d="M765163 698882c12335,22254 18807,47279 18807,72722 0,82842 -67157,150000 -150000,150000 -82842,0 -150000,-67158 -150000,-150000 0,-66919 44328,-125744 108654,-144189"/>
   <line class="fil0 str0" x1="704681" y1="700893" x2="727300" y2= "691524" />
   <polyline class="fil0 str0" points="756589,780973 733970,771604 756589,762235 "/>
   <line class="fil0 str0" x1="704681" y1="700893" x2="714050" y2= "678274" />
   <polyline class="fil0 str0" points="643339,648985 633970,671604 624601,648985 "/>
   <polyline class="fil0 str0" points="553891,678274 563259,700893 540640,691524 "/>
   <polyline class="fil0 str0" points="511351,762235 533970,771604 511351,780973 "/>
   <polyline class="fil0 str0" points="553891,864934 563259,842315 540640,851684 "/>
   <polyline class="fil0 str0" points="624601,894223 633970,871604 643339,894223 "/>
   <polyline class="fil0 str0" points="714050,864934 704681,842315 727300,851684 "/>
   <line class="fil0 str0" x1="591470" y1="627500" x2="765919" y2= "699759" />
   <polygon class="fil1 str0" points="633970,671604 624601,648985 589246,663630 553891,678274 563259,700893 598615,686248 "/>
   <polygon class="fil1 str0" points="548615,736249 563259,700893 540640,691524 525996,726880 511351,762235 533970,771604 "/>
   <polygon class="fil1 str0" points="598615,856959 563259,842315 553891,864934 589246,879578 624601,894223 633970,871604 "/>
   <polygon class="fil1 str0" points="669325,856959 633970,871604 643339,894223 678694,879578 714050,864934 704681,842315 "/>
   <polygon class="fil1 str0" points="563259,842315 548615,806959 533970,771604 511351,780973 525996,816328 540640,851684 "/>
   <polygon class="fil1 str0" points="719326,736249 733970,771604 756589,762235 741944,726880 727300,691524 704681,700893 "/>
   <polygon class="fil1 str0" points="733970,771604 719326,806959 704681,842315 727300,851684 741944,816328 756589,780973 "/>
  </g>
  <g id="_686907312">
   <polygon class="fil0 str0" points="973761,681405 1009115,696050 1044471,710694 1059116,746050 1073761,781405 1059116,816760 1044471,852116 1009115,866761 973761,881405 938406,866761 903050,852116 888405,816760 873761,781405 888405,746050 903050,710694 938406,696050 "/>
   <line class="fil0 str0" x1="1044471" y1="710694" x2="1067091" y2= "701326" />
   <polyline class="fil0 str0" points="1096380,790774 1073761,781405 1096380,772036 "/>
   <line class="fil0 str0" x1="1044471" y1="710694" x2="1053841" y2= "688075" />
   <polyline class="fil0 str0" points="983130,658786 973761,681405 964392,658786 "/>
   <polyline class="fil0 str0" points="893681,688075 903050,710694 880431,701326 "/>
   <polyline class="fil0 str0" points="851142,772036 873761,781405 851142,790774 "/>
   <polyline class="fil0 str0" points="893681,874735 903050,852116 880431,861485 "/>
   <polyline class="fil0 str0" points="964392,904024 973761,881405 983130,904024 "/>
   <polyline class="fil0 str0" points="1053841,874735 1044471,852116 1067091,861485 "/>
   <polygon class="fil0 str0" points="973761,629905 1027323,652092 1080887,674278 1103074,727843 1125261,781405 1103074,834968 1080887,888532 1027323,910719 973761,932905 920198,910719 866634,888532 844447,834968 822261,781405 844447,727843 866634,674278 920198,652092 "/>
   <line class="fil0 str0" x1="983130" y1="658786" x2="1053841" y2= "688075" />
   <line class="fil0 str0" x1="1067091" y1="701326" x2="1096380" y2= "772036" />
   <line class="fil0 str0" x1="1096380" y1="790774" x2="1067091" y2= "861485" />
   <line class="fil0 str0" x1="1053841" y1="874735" x2="983130" y2= "904024" />
   <line class="fil0 str0" x1="964392" y1="904024" x2="893681" y2= "874735" />
   <line class="fil0 str0" x1="880431" y1="861485" x2="851142" y2= "790774" />
   <line class="fil0 str0" x1="851142" y1="772036" x2="880431" y2= "701326" />
   <line class="fil0 str0" x1="893681" y1="688075" x2="964392" y2= "658786" />
  </g>
  <g id="_684057680">
   <polygon class="fil0 str0" points="746369,887439 799931,909625 853496,931812 875682,985376 897869,1038939 875682,1092501 853496,1146065 799931,1168252 746369,1190439 692806,1168252 639242,1146065 617056,1092501 594869,1038939 617056,985376 639242,931812 692806,909625 "/>
   <circle class="fil0 str0" cx="746369" cy="1038939" r="75000"/>
   <polygon class="fil1" points="737000,916320 666289,945609 675658,968228 711014,953583 746369,938939 "/>
   <polygon class="fil1" points="755738,916320 746369,938939 781724,953583 817080,968228 826449,945609 "/>
   <polygon class="fil1" points="817080,968228 831724,1003584 846369,1038939 868988,1029570 839699,958859 "/>
   <polygon class="fil1" points="846369,1038939 831724,1074293 817080,1109649 839699,1119019 868988,1048308 "/>
   <polygon class="fil1" points="817080,1109649 781724,1124294 746369,1138939 755738,1161558 826449,1132269 "/>
   <polygon class="fil1" points="746369,1138939 711014,1124294 675658,1109649 666289,1132269 737000,1161558 "/>
   <polygon class="fil1" points="675658,1109649 661013,1074293 646369,1038939 623750,1048308 653039,1119019 "/>
   <polygon class="fil1" points="646369,1038939 661013,1003584 675658,968228 653039,958859 623750,1029570 "/>
  </g>
  <g id="_685007072">
   <rect class="fil0 str0" x="902431" y="933651" width="176000" height="65000"/>
   <rect class="fil0 str0" x="1024806" y="945318" width="6250" height="41667"/>
   <rect class="fil0 str0" x="1062306" y="945318" width="6250" height="41667"/>
   <rect class="fil0 str0" x="1049806" y="945318" width="6250" height="41667"/>
   <rect class="fil0 str0" x="1037306" y="945318" width="6250" height="41667"/>
   <rect class="fil0 str0" x="912306" y="945318" width="6250" height="41667"/>
   <rect class="fil0 str0" x="1012306" y="945318" width="6250" height="41667"/>
   <rect class="fil0 str0" x="999806" y="945318" width="6250" height="41667"/>
   <rect class="fil0 str0" x="987306" y="945318" width="6250" height="41667"/>
   <rect class="fil0 str0" x="974806" y="945318" width="6250" height="41667"/>
   <rect class="fil0 str0" x="962306" y="945318" width="6250" height="41667"/>
   <rect class="fil0 str0" x="949806" y="945318" width="6250" height="41667"/>
   <rect class="fil0 str0" x="937306" y="945318" width="6250" height="41667"/>
   <rect class="fil0 str0" x="924806" y="945318" width="6250" height="41667"/>
  </g>
  <g id="_685069344">
   <rect class="fil0 str0" x="902431" y="998651" width="176000" height="65000"/>
   <rect class="fil0 str0" x="1024806" y="1010318" width="6250" height="41667"/>
   <rect class="fil0 str0" x="1062306" y="1010318" width="6250" height="41667"/>
   <rect class="fil0 str0" x="1049806" y="1010318" width="6250" height="41667"/>
   <rect class="fil0 str0" x="1037306" y="1010318" width="6250" height="41667"/>
   <rect class="fil0 str0" x="912306" y="1010318" width="6250" height="41667"/>
   <rect class="fil0 str0" x="1012306" y="1010318" width="6250" height="41667"/>
   <rect class="fil0 str0" x="999806" y="1010318" width="6250" height="41667"/>
   <rect class="fil0 str0" x="987306" y="1010318" width="6250" height="41667"/>
   <rect class="fil0 str0" x="974806" y="1010318" width="6250" height="41667"/>
   <rect class="fil0 str0" x="962306" y="1010318" width="6250" height="41667"/>
   <rect class="fil0 str0" x="949806" y="1010318" width="6250" height="41667"/>
   <rect class="fil0 str0" x="937306" y="1010318" width="6250" height="41667"/>
   <rect class="fil0 str0" x="924806" y="1010318" width="6250" height="41667"/>
  </g>
  <g id="_688478928">
   <rect class="fil0 str0" x="101262" y="1127568" width="176000" height="65000"/>
   <rect class="fil0 str0" x="223637" y="1139235" width="6250" height="41667"/>
   <rect class="fil0 str0" x="261137" y="1139235" width="6250" height="41667"/>
   <rect class="fil0 str0" x="248637" y="1139235" width="6250" height="41667"/>
   <rect class="fil0 str0" x="236137" y="1139235" width="6250" height="41667"/>
   <rect class="fil0 str0" x="111137" y="1139235" width="6250" height="41667"/>
   <rect class="fil0 str0" x="211137" y="1139235" width="6250" height="41667"/>
   <rect class="fil0 str0" x="198637" y="1139235" width="6250" height="41667"/>
   <rect class="fil0 str0" x="186137" y="1139235" width="6250" height="41667"/>
   <rect class="fil0 str0" x="173637" y="1139235" width="6250" height="41667"/>
   <rect class="fil0 str0" x="161137" y="1139235" width="6250" height="41667"/>
   <rect class="fil0 str0" x="148637" y="1139235" width="6250" height="41667"/>
   <rect class="fil0 str0" x="136137" y="1139235" width="6250" height="41667"/>
   <rect class="fil0 str0" x="123637" y="1139235" width="6250" height="41667"/>
  </g>
  <g id="_688126512">
   <rect class="fil0 str0" x="277262" y="1127568" width="176000" height="65000"/>
   <rect class="fil0 str0" x="399637" y="1139235" width="6250" height="41667"/>
   <rect class="fil0 str0" x="437137" y="1139235" width="6250" height="41667"/>
   <rect class="fil0 str0" x="424637" y="1139235" width="6250" height="41667"/>
   <rect class="fil0 str0" x="412137" y="1139235" width="6250" height="41667"/>
   <rect class="fil0 str0" x="287137" y="1139235" width="6250" height="41667"/>
   <rect class="fil0 str0" x="387137" y="1139235" width="6250" height="41667"/>
   <rect class="fil0 str0" x="374637" y="1139235" width="6250" height="41667"/>
   <rect class="fil0 str0" x="362137" y="1139235" width="6250" height="41667"/>
   <rect class="fil0 str0" x="349637" y="1139235" width="6250" height="41667"/>
   <rect class="fil0 str0" x="337137" y="1139235" width="6250" height="41667"/>
   <rect class="fil0 str0" x="324637" y="1139235" width="6250" height="41667"/>
   <rect class="fil0 str0" x="312137" y="1139235" width="6250" height="41667"/>
   <rect class="fil0 str0" x="299637" y="1139235" width="6250" height="41667"/>
  </g>
  <g id="_688394192">
   <rect class="fil0 str0" x="427476" y="1062568" width="176000" height="65000"/>
   <rect class="fil0 str0" x="549851" y="1074235" width="6250" height="41667"/>
   <rect class="fil0 str0" x="587351" y="1074235" width="6250" height="41667"/>
   <rect class="fil0 str0" x="574851" y="1074235" width="6250" height="41667"/>
   <rect class="fil0 str0" x="562351" y="1074235" width="6250" height="41667"/>
   <rect class="fil0 str0" x="437351" y="1074235" width="6250" height="41667"/>
   <rect class="fil0 str0" x="537351" y="1074235" width="6250" height="41667"/>
   <rect class="fil0 str0" x="524851" y="1074235" width="6250" height="41667"/>
   <rect class="fil0 str0" x="512351" y="1074235" width="6250" height="41667"/>
   <rect class="fil0 str0" x="499851" y="1074235" width="6250" height="41667"/>
   <rect class="fil0 str0" x="487351" y="1074235" width="6250" height="41667"/>
   <rect class="fil0 str0" x="474851" y="1074235" width="6250" height="41667"/>
   <rect class="fil0 str0" x="462351" y="1074235" width="6250" height="41667"/>
   <rect class="fil0 str0" x="449851" y="1074235" width="6250" height="41667"/>
  </g>
  <g id="_688394032">
   <rect class="fil0 str0" x="453262" y="1127568" width="176000" height="65000"/>
   <rect class="fil0 str0" x="575637" y="1139235" width="6250" height="41667"/>
   <rect class="fil0 str0" x="613137" y="1139235" width="6250" height="41667"/>
   <rect class="fil0 str0" x="600637" y="1139235" width="6250" height="41667"/>
   <rect class="fil0 str0" x="588137" y="1139235" width="6250" height="41667"/>
   <rect class="fil0 str0" x="463137" y="1139235" width="6250" height="41667"/>
   <rect class="fil0 str0" x="563137" y="1139235" width="6250" height="41667"/>
   <rect class="fil0 str0" x="550637" y="1139235" width="6250" height="41667"/>
   <rect class="fil0 str0" x="538137" y="1139235" width="6250" height="41667"/>
   <rect class="fil0 str0" x="525637" y="1139235" width="6250" height="41667"/>
   <rect class="fil0 str0" x="513137" y="1139235" width="6250" height="41667"/>
   <rect class="fil0 str0" x="500637" y="1139235" width="6250" height="41667"/>
   <rect class="fil0 str0" x="488137" y="1139235" width="6250" height="41667"/>
   <rect class="fil0 str0" x="475637" y="1139235" width="6250" height="41667"/>
  </g>
  <g id="_686521648">
   <rect class="fil0 str0" x="902431" y="1128651" width="176000" height="65000"/>
   <rect class="fil0 str0" x="1024806" y="1140318" width="6250" height="41667"/>
   <rect class="fil0 str0" x="1062306" y="1140318" width="6250" height="41667"/>
   <rect class="fil0 str0" x="1049806" y="1140318" width="6250" height="41667"/>
   <rect class="fil0 str0" x="1037306" y="1140318" width="6250" height="41667"/>
   <rect class="fil0 str0" x="912306" y="1140318" width="6250" height="41667"/>
   <rect class="fil0 str0" x="1012306" y="1140318" width="6250" height="41667"/>
   <rect class="fil0 str0" x="999806" y="1140318" width="6250" height="41667"/>
   <rect class="fil0 str0" x="987306" y="1140318" width="6250" height="41667"/>
   <rect class="fil0 str0" x="974806" y="1140318" width="6250" height="41667"/>
   <rect class="fil0 str0" x="962306" y="1140318" width="6250" height="41667"/>
   <rect class="fil0 str0" x="949806" y="1140318" width="6250" height="41667"/>
   <rect class="fil0 str0" x="937306" y="1140318" width="6250" height="41667"/>
   <rect class="fil0 str0" x="924806" y="1140318" width="6250" height="41667"/>
  </g>
  <g id="_686522256">
   <rect class="fil0 str0" x="902431" y="1063651" width="176000" height="65000"/>
   <rect class="fil0 str0" x="1024806" y="1075318" width="6250" height="41667"/>
   <rect class="fil0 str0" x="1062306" y="1075318" width="6250" height="41667"/>
   <rect class="fil0 str0" x="1049806" y="1075318" width="6250" height="41667"/>
   <rect class="fil0 str0" x="1037306" y="1075318" width="6250" height="41667"/>
   <rect class="fil0 str0" x="912306" y="1075318" width="6250" height="41667"/>
   <rect class="fil0 str0" x="1012306" y="1075318" width="6250" height="41667"/>
   <rect class="fil0 str0" x="999806" y="1075318" width="6250" height="41667"/>
   <rect class="fil0 str0" x="987306" y="1075318" width="6250" height="41667"/>
   <rect class="fil0 str0" x="974806" y="1075318" width="6250" height="41667"/>
   <rect class="fil0 str0" x="962306" y="1075318" width="6250" height="41667"/>
   <rect class="fil0 str0" x="949806" y="1075318" width="6250" height="41667"/>
   <rect class="fil0 str0" x="937306" y="1075318" width="6250" height="41667"/>
   <rect class="fil0 str0" x="924806" y="1075318" width="6250" height="41667"/>
  </g>
 </g>
</svg>
