<?xml version="1.0" encoding="UTF-8" standalone="no"?>
<!-- Creator: CorelDRAW X7 -->

<svg
   xmlns:dc="http://purl.org/dc/elements/1.1/"
   xmlns:cc="http://creativecommons.org/ns#"
   xmlns:rdf="http://www.w3.org/1999/02/22-rdf-syntax-ns#"
   xmlns:svg="http://www.w3.org/2000/svg"
   xmlns="http://www.w3.org/2000/svg"
   xmlns:sodipodi="http://sodipodi.sourceforge.net/DTD/sodipodi-0.dtd"
   xmlns:inkscape="http://www.inkscape.org/namespaces/inkscape"
   xml:space="preserve"
   width="24in"
   height="12in"
   version="1.0"
   style="shape-rendering:geometricPrecision; text-rendering:geometricPrecision; image-rendering:optimizeQuality; fill-rule:evenodd; clip-rule:evenodd"
   viewBox="0 0 2400000 1200000"
   id="svg3447"
   inkscape:version="0.48.4 r9939"
   sodipodi:docname="mosque_tower.svg"><metadata
     id="metadata3915"><rdf:RDF><cc:Work
         rdf:about=""><dc:format>image/svg+xml</dc:format><dc:type
           rdf:resource="http://purl.org/dc/dcmitype/StillImage" /></cc:Work></rdf:RDF></metadata><sodipodi:namedview
     pagecolor="#ffffff"
     bordercolor="#666666"
     borderopacity="1"
     objecttolerance="10"
     gridtolerance="10"
     guidetolerance="10"
     inkscape:pageopacity="0"
     inkscape:pageshadow="2"
     inkscape:window-width="1920"
     inkscape:window-height="1150"
     id="namedview3913"
     showgrid="false"
     inkscape:zoom="0.66296296"
     inkscape:cx="818.19509"
     inkscape:cy="663.49996"
     inkscape:window-x="0"
     inkscape:window-y="0"
     inkscape:window-maximized="1"
     inkscape:current-layer="svg3447" /><defs
     id="defs3449"><style
       type="text/css"
       id="style3451">
    .str2 {stroke:black;stroke-width:1388.58}
    .str1 {stroke:aqua;stroke-width:300}
    .str0 {stroke:red;stroke-width:300}
    .fil0 {fill:none}
    .fil1 {fill:black}
   </style></defs><rect
     style="fill:none;stroke:#ff0000;stroke-width:300"
     id="rect3455"
     height="77000"
     width="1100000"
     y="11500"
     x="12500"
     class="fil0 str0" /><rect
     style="fill:none;stroke:#ff0000;stroke-width:300"
     id="rect3457"
     height="77000"
     width="1100000"
     y="88500"
     x="12500"
     class="fil0 str0" /><rect
     style="fill:none;stroke:#ff0000;stroke-width:300"
     id="rect3459"
     height="77000"
     width="1100000"
     y="165500"
     x="12500"
     class="fil0 str0" /><rect
     style="fill:none;stroke:#ff0000;stroke-width:300"
     id="rect3461"
     height="77000"
     width="1100000"
     y="242500"
     x="12500"
     class="fil0 str0" /><rect
     style="fill:none;stroke:#ff0000;stroke-width:300"
     id="rect3463"
     height="77000"
     width="1100000"
     y="319500"
     x="12500"
     class="fil0 str0" /><rect
     style="fill:none;stroke:#ff0000;stroke-width:300"
     id="rect3465"
     height="77000"
     width="1100000"
     y="396500"
     x="12500"
     class="fil0 str0" /><rect
     style="fill:none;stroke:#ff0000;stroke-width:300"
     id="rect3467"
     height="77000"
     width="1100000"
     y="473500"
     x="12500"
     class="fil0 str0" /><rect
     style="fill:none;stroke:#ff0000;stroke-width:300"
     id="rect3469"
     height="77000"
     width="1100000"
     y="550500"
     x="12500"
     class="fil0 str0" /><g
     id="_689544880"><polygon
       style="fill:none;stroke:#00ffff;stroke-width:300"
       id="polygon3472"
       points="512971,306000 387971,306000 387971,256000 512971,256000 "
       class="fil0 str1" /><path
       style="fill:none;stroke:#00ffff;stroke-width:300"
       inkscape:connector-curvature="0"
       id="path3474"
       d="m 516805,312250 -138334,0 0,-62500 138334,0 c 15555,20833 15555,41667 0,62500 z"
       class="fil0 str1" /></g><g
     id="_687688672"><polygon
       style="fill:none;stroke:#00ffff;stroke-width:300"
       id="polygon3477"
       points="762349,460000 637349,460000 637349,410000 762349,410000 "
       class="fil0 str1" /><path
       style="fill:none;stroke:#00ffff;stroke-width:300"
       inkscape:connector-curvature="0"
       id="path3479"
       d="m 766183,466250 -138334,0 0,-62500 138334,0 c 15555,20834 15555,41667 0,62500 z"
       class="fil0 str1" /></g><g
     id="_687688096"><rect
       style="fill:none;stroke:#00ffff;stroke-width:300"
       id="rect3482"
       height="62500"
       width="125000"
       y="18750"
       x="887000"
       class="fil0 str1" /><polyline
       style="fill:none;stroke:#00ffff;stroke-width:300"
       id="polyline3484"
       points="887000,25000 1006344,25000 1006344,75000 887000,75000 "
       class="fil0 str1" /></g><g
     id="_687687520"><rect
       style="fill:none;stroke:#00ffff;stroke-width:300"
       id="rect3487"
       height="62500"
       width="125000"
       y="95750"
       x="887000"
       class="fil0 str1" /><polyline
       style="fill:none;stroke:#00ffff;stroke-width:300"
       id="polyline3489"
       points="887000,102000 1006344,102000 1006344,152000 887000,152000 "
       class="fil0 str1" /></g><g
     id="_687686944"><rect
       style="fill:none;stroke:#00ffff;stroke-width:300"
       id="rect3492"
       height="62500"
       width="125000"
       y="172750"
       x="887000"
       class="fil0 str1" /><polyline
       style="fill:none;stroke:#00ffff;stroke-width:300"
       id="polyline3494"
       points="887000,179000 1006344,179000 1006344,229000 887000,229000 "
       class="fil0 str1" /></g><g
     id="_687686368"><rect
       style="fill:none;stroke:#00ffff;stroke-width:300"
       id="rect3497"
       height="62500"
       width="125000"
       y="249750"
       x="887000"
       class="fil0 str1" /><polyline
       style="fill:none;stroke:#00ffff;stroke-width:300"
       id="polyline3499"
       points="887000,256000 1006344,256000 1006344,306000 887000,306000 "
       class="fil0 str1" /></g><g
     id="_687685792"><rect
       style="fill:none;stroke:#00ffff;stroke-width:300"
       id="rect3502"
       height="62500"
       width="125000"
       y="326750"
       x="887000"
       class="fil0 str1" /><polyline
       style="fill:none;stroke:#00ffff;stroke-width:300"
       id="polyline3504"
       points="887000,333000 1006344,333000 1006344,383000 887000,383000 "
       class="fil0 str1" /></g><g
     id="_688138912"><rect
       style="fill:none;stroke:#00ffff;stroke-width:300"
       id="rect3507"
       height="62500"
       width="125000"
       y="403750"
       x="887000"
       class="fil0 str1" /><polyline
       style="fill:none;stroke:#00ffff;stroke-width:300"
       id="polyline3509"
       points="887000,410000 1006344,410000 1006344,460000 887000,460000 "
       class="fil0 str1" /></g><g
     id="_688138336"><rect
       style="fill:none;stroke:#00ffff;stroke-width:300"
       id="rect3512"
       height="62500"
       width="125000"
       y="480750"
       x="887000"
       class="fil0 str1" /><polyline
       style="fill:none;stroke:#00ffff;stroke-width:300"
       id="polyline3514"
       points="887000,487000 1006344,487000 1006344,537000 887000,537000 "
       class="fil0 str1" /></g><g
     id="_688137760"><rect
       style="fill:none;stroke:#00ffff;stroke-width:300"
       id="rect3517"
       height="62500"
       width="125000"
       y="557750"
       x="887000"
       class="fil0 str1" /><polyline
       style="fill:none;stroke:#00ffff;stroke-width:300"
       id="polyline3519"
       points="887000,564000 1006344,564000 1006344,614000 887000,614000 "
       class="fil0 str1" /></g><line
     style="fill:none;stroke:#000000;stroke-width:1388.57995605"
     id="line3521"
     y2="93500"
     x2="12500"
     y1="93500"
     x1="872500"
     class="fil0 str2" /><line
     style="fill:none;stroke:#000000;stroke-width:1388.57995605"
     id="line3523"
     y2="170500"
     x2="12500"
     y1="170500"
     x1="872500"
     class="fil0 str2" /><line
     style="fill:none;stroke:#000000;stroke-width:1388.57995605"
     id="line3525"
     y2="247500"
     x2="12500"
     y1="247500"
     x1="872500"
     class="fil0 str2" /><line
     style="fill:none;stroke:#000000;stroke-width:1388.57995605"
     id="line3527"
     y2="324500"
     x2="12500"
     y1="324500"
     x1="872500"
     class="fil0 str2" /><line
     style="fill:none;stroke:#000000;stroke-width:1388.57995605"
     id="line3529"
     y2="401500"
     x2="12500"
     y1="401500"
     x1="872500"
     class="fil0 str2" /><line
     style="fill:none;stroke:#000000;stroke-width:1388.57995605"
     id="line3531"
     y2="478500"
     x2="12500"
     y1="478500"
     x1="872500"
     class="fil0 str2" /><line
     style="fill:none;stroke:#000000;stroke-width:1388.57995605"
     id="line3533"
     y2="555500"
     x2="12500"
     y1="555500"
     x1="872500"
     class="fil0 str2" /><path
     style="fill:none;stroke:#ff0000;stroke-width:300"
     inkscape:connector-curvature="0"
     id="path3535"
     d="m 549594,77500 146008,0 c 18333,-18333 18333,-36667 0,-55000 l -146008,0 0,55000 z"
     class="fil0 str0" /><path
     style="fill:none;stroke:#ff0000;stroke-width:300"
     inkscape:connector-curvature="0"
     id="path3537"
     d="m 312094,77500 146008,0 c 18333,-18333 18333,-36667 0,-55000 l -146008,0 0,55000 z"
     class="fil0 str0" /><path
     style="fill:none;stroke:#ff0000;stroke-width:300"
     inkscape:connector-curvature="0"
     id="path3539"
     d="m 12500,77500 146008,0 c 18333,-18333 18333,-36667 0,-55000 l -146008,0 0,55000 z"
     class="fil0 str0" /><g
     id="_684632704"><polygon
       style="fill:none;stroke:#ff0000;stroke-width:300"
       id="polygon3542"
       points="336318,806789 350963,842145 365607,877500 350963,912855 336318,948211 300962,962856 265607,977500 230252,962856 194896,948211 180252,912855 165607,877500 180252,842145 194896,806789 230252,792144 265607,777500 300962,792144 "
       class="fil0 str0" /><line
       style="fill:none;stroke:#ff0000;stroke-width:300"
       id="line3544"
       y2="797420"
       x2="358937"
       y1="806789"
       x1="336318"
       class="fil0 str0" /><polyline
       style="fill:none;stroke:#ff0000;stroke-width:300"
       id="polyline3546"
       points="388226,886869 365607,877500 388226,868131 "
       class="fil0 str0" /><line
       style="fill:none;stroke:#ff0000;stroke-width:300"
       id="line3548"
       y2="784170"
       x2="345687"
       y1="806789"
       x1="336318"
       class="fil0 str0" /><polyline
       style="fill:none;stroke:#ff0000;stroke-width:300"
       id="polyline3550"
       points="274976,754881 265607,777500 256238,754881 "
       class="fil0 str0" /><polyline
       style="fill:none;stroke:#ff0000;stroke-width:300"
       id="polyline3552"
       points="185528,784170 194896,806789 172277,797420 "
       class="fil0 str0" /><polyline
       style="fill:none;stroke:#ff0000;stroke-width:300"
       id="polyline3554"
       points="142988,868131 165607,877500 142988,886869 "
       class="fil0 str0" /><polyline
       style="fill:none;stroke:#ff0000;stroke-width:300"
       id="polyline3556"
       points="185528,970830 194896,948211 172277,957580 "
       class="fil0 str0" /><polyline
       style="fill:none;stroke:#ff0000;stroke-width:300"
       id="polyline3558"
       points="256238,1000119 265607,977500 274976,1000119 "
       class="fil0 str0" /><polyline
       style="fill:none;stroke:#ff0000;stroke-width:300"
       id="polyline3560"
       points="345687,970830 336318,948211 358937,957580 "
       class="fil0 str0" /><polygon
       style="fill:none;stroke:#ff0000;stroke-width:300"
       id="polygon3562"
       points="442384,700723 478996,789113 515607,877500 478996,965887 442384,1054277 353994,1090889 265607,1127500 177220,1090889 88830,1054277 52219,965887 15607,877500 52219,789113 88830,700723 177220,664111 265607,627500 353994,664111 "
       class="fil0 str0" /><line
       style="fill:none;stroke:#ff0000;stroke-width:300"
       id="line3564"
       y2="784170"
       x2="345687"
       y1="754881"
       x1="274976"
       class="fil0 str0" /><line
       style="fill:none;stroke:#ff0000;stroke-width:300"
       id="line3566"
       y2="868131"
       x2="388226"
       y1="797420"
       x1="358937"
       class="fil0 str0" /><line
       style="fill:none;stroke:#ff0000;stroke-width:300"
       id="line3568"
       y2="957580"
       x2="358937"
       y1="886869"
       x1="388226"
       class="fil0 str0" /><line
       style="fill:none;stroke:#ff0000;stroke-width:300"
       id="line3570"
       y2="1000119"
       x2="274976"
       y1="970830"
       x1="345687"
       class="fil0 str0" /><line
       style="fill:none;stroke:#ff0000;stroke-width:300"
       id="line3572"
       y2="970830"
       x2="185528"
       y1="1000119"
       x1="256238"
       class="fil0 str0" /><line
       style="fill:none;stroke:#ff0000;stroke-width:300"
       id="line3574"
       y2="886869"
       x2="142988"
       y1="957580"
       x1="172277"
       class="fil0 str0" /><line
       style="fill:none;stroke:#ff0000;stroke-width:300"
       id="line3576"
       y2="797420"
       x2="172277"
       y1="868131"
       x1="142988"
       class="fil0 str0" /><line
       style="fill:none;stroke:#ff0000;stroke-width:300"
       id="line3578"
       y2="754881"
       x2="256238"
       y1="784170"
       x1="185528"
       class="fil0 str0" /></g><g
     id="_684692448"><polygon
       style="fill:none;stroke:#ff0000;stroke-width:300"
       id="polygon3581"
       points="704681,700893 719326,736249 733970,771604 719326,806959 704681,842315 669325,856959 633970,871604 598615,856959 563259,842315 548615,806959 533970,771604 548615,736249 563259,700893 598615,686248 633970,671604 669325,686248 "
       class="fil0 str0" /><polygon
       style="fill:none;stroke:#ff0000;stroke-width:300"
       id="polygon3583"
       points="723419,682155 741944,726880 760470,771604 741944,816328 723419,861053 678694,879578 633970,898104 589246,879578 544521,861053 525996,816328 507470,771604 525996,726880 544521,682155 589246,663630 633970,645104 678694,663630 "
       class="fil0 str0" /><path
       style="fill:none;stroke:#ff0000;stroke-width:300"
       inkscape:connector-curvature="0"
       id="path3585"
       d="m 765163,698882 c 12335,22254 18807,47279 18807,72722 0,82842 -67157,150000 -150000,150000 -82842,0 -150000,-67158 -150000,-150000 0,-66919 44328,-125744 108654,-144189"
       class="fil0 str0" /><line
       style="fill:none;stroke:#ff0000;stroke-width:300"
       id="line3587"
       y2="691524"
       x2="727300"
       y1="700893"
       x1="704681"
       class="fil0 str0" /><polyline
       style="fill:none;stroke:#ff0000;stroke-width:300"
       id="polyline3589"
       points="756589,780973 733970,771604 756589,762235 "
       class="fil0 str0" /><line
       style="fill:none;stroke:#ff0000;stroke-width:300"
       id="line3591"
       y2="678274"
       x2="714050"
       y1="700893"
       x1="704681"
       class="fil0 str0" /><polyline
       style="fill:none;stroke:#ff0000;stroke-width:300"
       id="polyline3593"
       points="643339,648985 633970,671604 624601,648985 "
       class="fil0 str0" /><polyline
       style="fill:none;stroke:#ff0000;stroke-width:300"
       id="polyline3595"
       points="553891,678274 563259,700893 540640,691524 "
       class="fil0 str0" /><polyline
       style="fill:none;stroke:#ff0000;stroke-width:300"
       id="polyline3597"
       points="511351,762235 533970,771604 511351,780973 "
       class="fil0 str0" /><polyline
       style="fill:none;stroke:#ff0000;stroke-width:300"
       id="polyline3599"
       points="553891,864934 563259,842315 540640,851684 "
       class="fil0 str0" /><polyline
       style="fill:none;stroke:#ff0000;stroke-width:300"
       id="polyline3601"
       points="624601,894223 633970,871604 643339,894223 "
       class="fil0 str0" /><polyline
       style="fill:none;stroke:#ff0000;stroke-width:300"
       id="polyline3603"
       points="714050,864934 704681,842315 727300,851684 "
       class="fil0 str0" /><line
       style="fill:none;stroke:#ff0000;stroke-width:300"
       id="line3605"
       y2="699759"
       x2="765919"
       y1="627500"
       x1="591470"
       class="fil0 str0" /><polygon
       style="fill:#000000;stroke:#ff0000;stroke-width:300"
       id="polygon3607"
       points="589246,663630 553891,678274 563259,700893 598615,686248 633970,671604 624601,648985 "
       class="fil1 str0" /><polygon
       style="fill:#000000;stroke:#ff0000;stroke-width:300"
       id="polygon3609"
       points="540640,691524 525996,726880 511351,762235 533970,771604 548615,736249 563259,700893 "
       class="fil1 str0" /><polygon
       style="fill:#000000;stroke:#ff0000;stroke-width:300"
       id="polygon3611"
       points="553891,864934 589246,879578 624601,894223 633970,871604 598615,856959 563259,842315 "
       class="fil1 str0" /><polygon
       style="fill:#000000;stroke:#ff0000;stroke-width:300"
       id="polygon3613"
       points="643339,894223 678694,879578 714050,864934 704681,842315 669325,856959 633970,871604 "
       class="fil1 str0" /><polygon
       style="fill:#000000;stroke:#ff0000;stroke-width:300"
       id="polygon3615"
       points="533970,771604 511351,780973 525996,816328 540640,851684 563259,842315 548615,806959 "
       class="fil1 str0" /><polygon
       style="fill:#000000;stroke:#ff0000;stroke-width:300"
       id="polygon3617"
       points="756589,762235 741944,726880 727300,691524 704681,700893 719326,736249 733970,771604 "
       class="fil1 str0" /><polygon
       style="fill:#000000;stroke:#ff0000;stroke-width:300"
       id="polygon3619"
       points="704681,842315 727300,851684 741944,816328 756589,780973 733970,771604 719326,806959 "
       class="fil1 str0" /></g><g
     id="_686907312"><polygon
       style="fill:none;stroke:#ff0000;stroke-width:300"
       id="polygon3622"
       points="1044471,710694 1059116,746050 1073761,781405 1059116,816760 1044471,852116 1009115,866761 973761,881405 938406,866761 903050,852116 888405,816760 873761,781405 888405,746050 903050,710694 938406,696050 973761,681405 1009115,696050 "
       class="fil0 str0" /><line
       style="fill:none;stroke:#ff0000;stroke-width:300"
       id="line3624"
       y2="701326"
       x2="1067091"
       y1="710694"
       x1="1044471"
       class="fil0 str0" /><polyline
       style="fill:none;stroke:#ff0000;stroke-width:300"
       id="polyline3626"
       points="1096380,790774 1073761,781405 1096380,772036 "
       class="fil0 str0" /><line
       style="fill:none;stroke:#ff0000;stroke-width:300"
       id="line3628"
       y2="688075"
       x2="1053841"
       y1="710694"
       x1="1044471"
       class="fil0 str0" /><polyline
       style="fill:none;stroke:#ff0000;stroke-width:300"
       id="polyline3630"
       points="983130,658786 973761,681405 964392,658786 "
       class="fil0 str0" /><polyline
       style="fill:none;stroke:#ff0000;stroke-width:300"
       id="polyline3632"
       points="893681,688075 903050,710694 880431,701326 "
       class="fil0 str0" /><polyline
       style="fill:none;stroke:#ff0000;stroke-width:300"
       id="polyline3634"
       points="851142,772036 873761,781405 851142,790774 "
       class="fil0 str0" /><polyline
       style="fill:none;stroke:#ff0000;stroke-width:300"
       id="polyline3636"
       points="893681,874735 903050,852116 880431,861485 "
       class="fil0 str0" /><polyline
       style="fill:none;stroke:#ff0000;stroke-width:300"
       id="polyline3638"
       points="964392,904024 973761,881405 983130,904024 "
       class="fil0 str0" /><polyline
       style="fill:none;stroke:#ff0000;stroke-width:300"
       id="polyline3640"
       points="1053841,874735 1044471,852116 1067091,861485 "
       class="fil0 str0" /><polygon
       style="fill:none;stroke:#ff0000;stroke-width:300"
       id="polygon3642"
       points="1080887,674278 1103074,727843 1125261,781405 1103074,834968 1080887,888532 1027323,910719 973761,932905 920198,910719 866634,888532 844447,834968 822261,781405 844447,727843 866634,674278 920198,652092 973761,629905 1027323,652092 "
       class="fil0 str0" /><line
       style="fill:none;stroke:#ff0000;stroke-width:300"
       id="line3644"
       y2="688075"
       x2="1053841"
       y1="658786"
       x1="983130"
       class="fil0 str0" /><line
       style="fill:none;stroke:#ff0000;stroke-width:300"
       id="line3646"
       y2="772036"
       x2="1096380"
       y1="701326"
       x1="1067091"
       class="fil0 str0" /><line
       style="fill:none;stroke:#ff0000;stroke-width:300"
       id="line3648"
       y2="861485"
       x2="1067091"
       y1="790774"
       x1="1096380"
       class="fil0 str0" /><line
       style="fill:none;stroke:#ff0000;stroke-width:300"
       id="line3650"
       y2="904024"
       x2="983130"
       y1="874735"
       x1="1053841"
       class="fil0 str0" /><line
       style="fill:none;stroke:#ff0000;stroke-width:300"
       id="line3652"
       y2="874735"
       x2="893681"
       y1="904024"
       x1="964392"
       class="fil0 str0" /><line
       style="fill:none;stroke:#ff0000;stroke-width:300"
       id="line3654"
       y2="790774"
       x2="851142"
       y1="861485"
       x1="880431"
       class="fil0 str0" /><line
       style="fill:none;stroke:#ff0000;stroke-width:300"
       id="line3656"
       y2="701326"
       x2="880431"
       y1="772036"
       x1="851142"
       class="fil0 str0" /><line
       style="fill:none;stroke:#ff0000;stroke-width:300"
       id="line3658"
       y2="658786"
       x2="964392"
       y1="688075"
       x1="893681"
       class="fil0 str0" /></g><g
     id="_684057680"><polygon
       style="fill:none;stroke:#ff0000;stroke-width:300"
       id="polygon3661"
       points="853496,931812 875682,985376 897869,1038939 875682,1092501 853496,1146065 799931,1168252 746369,1190439 692806,1168252 639242,1146065 617056,1092501 594869,1038939 617056,985376 639242,931812 692806,909625 746369,887439 799931,909625 "
       class="fil0 str0" /><circle
       style="fill:none;stroke:#ff0000;stroke-width:300"
       sodipodi:ry="75000"
       sodipodi:rx="75000"
       sodipodi:cy="1038939"
       sodipodi:cx="746369"
       id="circle3663"
       r="75000"
       cy="1038939"
       cx="746369"
       class="fil0 str0" /><polygon
       style="fill:#000000"
       id="polygon3665"
       points="675658,968228 711014,953583 746369,938939 737000,916320 666289,945609 "
       class="fil1" /><polygon
       style="fill:#000000"
       id="polygon3667"
       points="781724,953583 817080,968228 826449,945609 755738,916320 746369,938939 "
       class="fil1" /><polygon
       style="fill:#000000"
       id="polygon3669"
       points="846369,1038939 868988,1029570 839699,958859 817080,968228 831724,1003584 "
       class="fil1" /><polygon
       style="fill:#000000"
       id="polygon3671"
       points="817080,1109649 839699,1119019 868988,1048308 846369,1038939 831724,1074293 "
       class="fil1" /><polygon
       style="fill:#000000"
       id="polygon3673"
       points="746369,1138939 755738,1161558 826449,1132269 817080,1109649 781724,1124294 "
       class="fil1" /><polygon
       style="fill:#000000"
       id="polygon3675"
       points="675658,1109649 666289,1132269 737000,1161558 746369,1138939 711014,1124294 "
       class="fil1" /><polygon
       style="fill:#000000"
       id="polygon3677"
       points="646369,1038939 623750,1048308 653039,1119019 675658,1109649 661013,1074293 "
       class="fil1" /><polygon
       style="fill:#000000"
       id="polygon3679"
       points="675658,968228 653039,958859 623750,1029570 646369,1038939 661013,1003584 "
       class="fil1" /></g><g
     id="_685007072"><rect
       style="fill:none;stroke:#ff0000;stroke-width:300"
       id="rect3682"
       height="65000"
       width="176000"
       y="933651"
       x="902431"
       class="fil0 str0" /><rect
       style="fill:none;stroke:#ff0000;stroke-width:300"
       id="rect3684"
       height="41667"
       width="6250"
       y="945318"
       x="1024806"
       class="fil0 str0" /><rect
       style="fill:none;stroke:#ff0000;stroke-width:300"
       id="rect3686"
       height="41667"
       width="6250"
       y="945318"
       x="1062306"
       class="fil0 str0" /><rect
       style="fill:none;stroke:#ff0000;stroke-width:300"
       id="rect3688"
       height="41667"
       width="6250"
       y="945318"
       x="1049806"
       class="fil0 str0" /><rect
       style="fill:none;stroke:#ff0000;stroke-width:300"
       id="rect3690"
       height="41667"
       width="6250"
       y="945318"
       x="1037306"
       class="fil0 str0" /><rect
       style="fill:none;stroke:#ff0000;stroke-width:300"
       id="rect3692"
       height="41667"
       width="6250"
       y="945318"
       x="912306"
       class="fil0 str0" /><rect
       style="fill:none;stroke:#ff0000;stroke-width:300"
       id="rect3694"
       height="41667"
       width="6250"
       y="945318"
       x="1012306"
       class="fil0 str0" /><rect
       style="fill:none;stroke:#ff0000;stroke-width:300"
       id="rect3696"
       height="41667"
       width="6250"
       y="945318"
       x="999806"
       class="fil0 str0" /><rect
       style="fill:none;stroke:#ff0000;stroke-width:300"
       id="rect3698"
       height="41667"
       width="6250"
       y="945318"
       x="987306"
       class="fil0 str0" /><rect
       style="fill:none;stroke:#ff0000;stroke-width:300"
       id="rect3700"
       height="41667"
       width="6250"
       y="945318"
       x="974806"
       class="fil0 str0" /><rect
       style="fill:none;stroke:#ff0000;stroke-width:300"
       id="rect3702"
       height="41667"
       width="6250"
       y="945318"
       x="962306"
       class="fil0 str0" /><rect
       style="fill:none;stroke:#ff0000;stroke-width:300"
       id="rect3704"
       height="41667"
       width="6250"
       y="945318"
       x="949806"
       class="fil0 str0" /><rect
       style="fill:none;stroke:#ff0000;stroke-width:300"
       id="rect3706"
       height="41667"
       width="6250"
       y="945318"
       x="937306"
       class="fil0 str0" /><rect
       style="fill:none;stroke:#ff0000;stroke-width:300"
       id="rect3708"
       height="41667"
       width="6250"
       y="945318"
       x="924806"
       class="fil0 str0" /></g><g
     id="_685069344"><rect
       style="fill:none;stroke:#ff0000;stroke-width:300"
       id="rect3711"
       height="65000"
       width="176000"
       y="998651"
       x="902431"
       class="fil0 str0" /><rect
       style="fill:none;stroke:#ff0000;stroke-width:300"
       id="rect3713"
       height="41667"
       width="6250"
       y="1010318"
       x="1024806"
       class="fil0 str0" /><rect
       style="fill:none;stroke:#ff0000;stroke-width:300"
       id="rect3715"
       height="41667"
       width="6250"
       y="1010318"
       x="1062306"
       class="fil0 str0" /><rect
       style="fill:none;stroke:#ff0000;stroke-width:300"
       id="rect3717"
       height="41667"
       width="6250"
       y="1010318"
       x="1049806"
       class="fil0 str0" /><rect
       style="fill:none;stroke:#ff0000;stroke-width:300"
       id="rect3719"
       height="41667"
       width="6250"
       y="1010318"
       x="1037306"
       class="fil0 str0" /><rect
       style="fill:none;stroke:#ff0000;stroke-width:300"
       id="rect3721"
       height="41667"
       width="6250"
       y="1010318"
       x="912306"
       class="fil0 str0" /><rect
       style="fill:none;stroke:#ff0000;stroke-width:300"
       id="rect3723"
       height="41667"
       width="6250"
       y="1010318"
       x="1012306"
       class="fil0 str0" /><rect
       style="fill:none;stroke:#ff0000;stroke-width:300"
       id="rect3725"
       height="41667"
       width="6250"
       y="1010318"
       x="999806"
       class="fil0 str0" /><rect
       style="fill:none;stroke:#ff0000;stroke-width:300"
       id="rect3727"
       height="41667"
       width="6250"
       y="1010318"
       x="987306"
       class="fil0 str0" /><rect
       style="fill:none;stroke:#ff0000;stroke-width:300"
       id="rect3729"
       height="41667"
       width="6250"
       y="1010318"
       x="974806"
       class="fil0 str0" /><rect
       style="fill:none;stroke:#ff0000;stroke-width:300"
       id="rect3731"
       height="41667"
       width="6250"
       y="1010318"
       x="962306"
       class="fil0 str0" /><rect
       style="fill:none;stroke:#ff0000;stroke-width:300"
       id="rect3733"
       height="41667"
       width="6250"
       y="1010318"
       x="949806"
       class="fil0 str0" /><rect
       style="fill:none;stroke:#ff0000;stroke-width:300"
       id="rect3735"
       height="41667"
       width="6250"
       y="1010318"
       x="937306"
       class="fil0 str0" /><rect
       style="fill:none;stroke:#ff0000;stroke-width:300"
       id="rect3737"
       height="41667"
       width="6250"
       y="1010318"
       x="924806"
       class="fil0 str0" /></g><g
     id="_688478928"><rect
       style="fill:none;stroke:#ff0000;stroke-width:300"
       id="rect3740"
       height="65000"
       width="176000"
       y="1127568"
       x="101262"
       class="fil0 str0" /><rect
       style="fill:none;stroke:#ff0000;stroke-width:300"
       id="rect3742"
       height="41667"
       width="6250"
       y="1139235"
       x="223637"
       class="fil0 str0" /><rect
       style="fill:none;stroke:#ff0000;stroke-width:300"
       id="rect3744"
       height="41667"
       width="6250"
       y="1139235"
       x="261137"
       class="fil0 str0" /><rect
       style="fill:none;stroke:#ff0000;stroke-width:300"
       id="rect3746"
       height="41667"
       width="6250"
       y="1139235"
       x="248637"
       class="fil0 str0" /><rect
       style="fill:none;stroke:#ff0000;stroke-width:300"
       id="rect3748"
       height="41667"
       width="6250"
       y="1139235"
       x="236137"
       class="fil0 str0" /><rect
       style="fill:none;stroke:#ff0000;stroke-width:300"
       id="rect3750"
       height="41667"
       width="6250"
       y="1139235"
       x="111137"
       class="fil0 str0" /><rect
       style="fill:none;stroke:#ff0000;stroke-width:300"
       id="rect3752"
       height="41667"
       width="6250"
       y="1139235"
       x="211137"
       class="fil0 str0" /><rect
       style="fill:none;stroke:#ff0000;stroke-width:300"
       id="rect3754"
       height="41667"
       width="6250"
       y="1139235"
       x="198637"
       class="fil0 str0" /><rect
       style="fill:none;stroke:#ff0000;stroke-width:300"
       id="rect3756"
       height="41667"
       width="6250"
       y="1139235"
       x="186137"
       class="fil0 str0" /><rect
       style="fill:none;stroke:#ff0000;stroke-width:300"
       id="rect3758"
       height="41667"
       width="6250"
       y="1139235"
       x="173637"
       class="fil0 str0" /><rect
       style="fill:none;stroke:#ff0000;stroke-width:300"
       id="rect3760"
       height="41667"
       width="6250"
       y="1139235"
       x="161137"
       class="fil0 str0" /><rect
       style="fill:none;stroke:#ff0000;stroke-width:300"
       id="rect3762"
       height="41667"
       width="6250"
       y="1139235"
       x="148637"
       class="fil0 str0" /><rect
       style="fill:none;stroke:#ff0000;stroke-width:300"
       id="rect3764"
       height="41667"
       width="6250"
       y="1139235"
       x="136137"
       class="fil0 str0" /><rect
       style="fill:none;stroke:#ff0000;stroke-width:300"
       id="rect3766"
       height="41667"
       width="6250"
       y="1139235"
       x="123637"
       class="fil0 str0" /></g><g
     id="_688126512"><rect
       style="fill:none;stroke:#ff0000;stroke-width:300"
       id="rect3769"
       height="65000"
       width="176000"
       y="1127568"
       x="277262"
       class="fil0 str0" /><rect
       style="fill:none;stroke:#ff0000;stroke-width:300"
       id="rect3771"
       height="41667"
       width="6250"
       y="1139235"
       x="399637"
       class="fil0 str0" /><rect
       style="fill:none;stroke:#ff0000;stroke-width:300"
       id="rect3773"
       height="41667"
       width="6250"
       y="1139235"
       x="437137"
       class="fil0 str0" /><rect
       style="fill:none;stroke:#ff0000;stroke-width:300"
       id="rect3775"
       height="41667"
       width="6250"
       y="1139235"
       x="424637"
       class="fil0 str0" /><rect
       style="fill:none;stroke:#ff0000;stroke-width:300"
       id="rect3777"
       height="41667"
       width="6250"
       y="1139235"
       x="412137"
       class="fil0 str0" /><rect
       style="fill:none;stroke:#ff0000;stroke-width:300"
       id="rect3779"
       height="41667"
       width="6250"
       y="1139235"
       x="287137"
       class="fil0 str0" /><rect
       style="fill:none;stroke:#ff0000;stroke-width:300"
       id="rect3781"
       height="41667"
       width="6250"
       y="1139235"
       x="387137"
       class="fil0 str0" /><rect
       style="fill:none;stroke:#ff0000;stroke-width:300"
       id="rect3783"
       height="41667"
       width="6250"
       y="1139235"
       x="374637"
       class="fil0 str0" /><rect
       style="fill:none;stroke:#ff0000;stroke-width:300"
       id="rect3785"
       height="41667"
       width="6250"
       y="1139235"
       x="362137"
       class="fil0 str0" /><rect
       style="fill:none;stroke:#ff0000;stroke-width:300"
       id="rect3787"
       height="41667"
       width="6250"
       y="1139235"
       x="349637"
       class="fil0 str0" /><rect
       style="fill:none;stroke:#ff0000;stroke-width:300"
       id="rect3789"
       height="41667"
       width="6250"
       y="1139235"
       x="337137"
       class="fil0 str0" /><rect
       style="fill:none;stroke:#ff0000;stroke-width:300"
       id="rect3791"
       height="41667"
       width="6250"
       y="1139235"
       x="324637"
       class="fil0 str0" /><rect
       style="fill:none;stroke:#ff0000;stroke-width:300"
       id="rect3793"
       height="41667"
       width="6250"
       y="1139235"
       x="312137"
       class="fil0 str0" /><rect
       style="fill:none;stroke:#ff0000;stroke-width:300"
       id="rect3795"
       height="41667"
       width="6250"
       y="1139235"
       x="299637"
       class="fil0 str0" /></g><g
     id="_688394192"><rect
       style="fill:none;stroke:#ff0000;stroke-width:300"
       id="rect3798"
       height="65000"
       width="176000"
       y="1062568"
       x="427476"
       class="fil0 str0" /><rect
       style="fill:none;stroke:#ff0000;stroke-width:300"
       id="rect3800"
       height="41667"
       width="6250"
       y="1074235"
       x="549851"
       class="fil0 str0" /><rect
       style="fill:none;stroke:#ff0000;stroke-width:300"
       id="rect3802"
       height="41667"
       width="6250"
       y="1074235"
       x="587351"
       class="fil0 str0" /><rect
       style="fill:none;stroke:#ff0000;stroke-width:300"
       id="rect3804"
       height="41667"
       width="6250"
       y="1074235"
       x="574851"
       class="fil0 str0" /><rect
       style="fill:none;stroke:#ff0000;stroke-width:300"
       id="rect3806"
       height="41667"
       width="6250"
       y="1074235"
       x="562351"
       class="fil0 str0" /><rect
       style="fill:none;stroke:#ff0000;stroke-width:300"
       id="rect3808"
       height="41667"
       width="6250"
       y="1074235"
       x="437351"
       class="fil0 str0" /><rect
       style="fill:none;stroke:#ff0000;stroke-width:300"
       id="rect3810"
       height="41667"
       width="6250"
       y="1074235"
       x="537351"
       class="fil0 str0" /><rect
       style="fill:none;stroke:#ff0000;stroke-width:300"
       id="rect3812"
       height="41667"
       width="6250"
       y="1074235"
       x="524851"
       class="fil0 str0" /><rect
       style="fill:none;stroke:#ff0000;stroke-width:300"
       id="rect3814"
       height="41667"
       width="6250"
       y="1074235"
       x="512351"
       class="fil0 str0" /><rect
       style="fill:none;stroke:#ff0000;stroke-width:300"
       id="rect3816"
       height="41667"
       width="6250"
       y="1074235"
       x="499851"
       class="fil0 str0" /><rect
       style="fill:none;stroke:#ff0000;stroke-width:300"
       id="rect3818"
       height="41667"
       width="6250"
       y="1074235"
       x="487351"
       class="fil0 str0" /><rect
       style="fill:none;stroke:#ff0000;stroke-width:300"
       id="rect3820"
       height="41667"
       width="6250"
       y="1074235"
       x="474851"
       class="fil0 str0" /><rect
       style="fill:none;stroke:#ff0000;stroke-width:300"
       id="rect3822"
       height="41667"
       width="6250"
       y="1074235"
       x="462351"
       class="fil0 str0" /><rect
       style="fill:none;stroke:#ff0000;stroke-width:300"
       id="rect3824"
       height="41667"
       width="6250"
       y="1074235"
       x="449851"
       class="fil0 str0" /></g><g
     id="_688394032"><rect
       style="fill:none;stroke:#ff0000;stroke-width:300"
       id="rect3827"
       height="65000"
       width="176000"
       y="1127568"
       x="453262"
       class="fil0 str0" /><rect
       style="fill:none;stroke:#ff0000;stroke-width:300"
       id="rect3829"
       height="41667"
       width="6250"
       y="1139235"
       x="575637"
       class="fil0 str0" /><rect
       style="fill:none;stroke:#ff0000;stroke-width:300"
       id="rect3831"
       height="41667"
       width="6250"
       y="1139235"
       x="613137"
       class="fil0 str0" /><rect
       style="fill:none;stroke:#ff0000;stroke-width:300"
       id="rect3833"
       height="41667"
       width="6250"
       y="1139235"
       x="600637"
       class="fil0 str0" /><rect
       style="fill:none;stroke:#ff0000;stroke-width:300"
       id="rect3835"
       height="41667"
       width="6250"
       y="1139235"
       x="588137"
       class="fil0 str0" /><rect
       style="fill:none;stroke:#ff0000;stroke-width:300"
       id="rect3837"
       height="41667"
       width="6250"
       y="1139235"
       x="463137"
       class="fil0 str0" /><rect
       style="fill:none;stroke:#ff0000;stroke-width:300"
       id="rect3839"
       height="41667"
       width="6250"
       y="1139235"
       x="563137"
       class="fil0 str0" /><rect
       style="fill:none;stroke:#ff0000;stroke-width:300"
       id="rect3841"
       height="41667"
       width="6250"
       y="1139235"
       x="550637"
       class="fil0 str0" /><rect
       style="fill:none;stroke:#ff0000;stroke-width:300"
       id="rect3843"
       height="41667"
       width="6250"
       y="1139235"
       x="538137"
       class="fil0 str0" /><rect
       style="fill:none;stroke:#ff0000;stroke-width:300"
       id="rect3845"
       height="41667"
       width="6250"
       y="1139235"
       x="525637"
       class="fil0 str0" /><rect
       style="fill:none;stroke:#ff0000;stroke-width:300"
       id="rect3847"
       height="41667"
       width="6250"
       y="1139235"
       x="513137"
       class="fil0 str0" /><rect
       style="fill:none;stroke:#ff0000;stroke-width:300"
       id="rect3849"
       height="41667"
       width="6250"
       y="1139235"
       x="500637"
       class="fil0 str0" /><rect
       style="fill:none;stroke:#ff0000;stroke-width:300"
       id="rect3851"
       height="41667"
       width="6250"
       y="1139235"
       x="488137"
       class="fil0 str0" /><rect
       style="fill:none;stroke:#ff0000;stroke-width:300"
       id="rect3853"
       height="41667"
       width="6250"
       y="1139235"
       x="475637"
       class="fil0 str0" /></g><g
     id="_686521648"><rect
       style="fill:none;stroke:#ff0000;stroke-width:300"
       id="rect3856"
       height="65000"
       width="176000"
       y="1128651"
       x="902431"
       class="fil0 str0" /><rect
       style="fill:none;stroke:#ff0000;stroke-width:300"
       id="rect3858"
       height="41667"
       width="6250"
       y="1140318"
       x="1024806"
       class="fil0 str0" /><rect
       style="fill:none;stroke:#ff0000;stroke-width:300"
       id="rect3860"
       height="41667"
       width="6250"
       y="1140318"
       x="1062306"
       class="fil0 str0" /><rect
       style="fill:none;stroke:#ff0000;stroke-width:300"
       id="rect3862"
       height="41667"
       width="6250"
       y="1140318"
       x="1049806"
       class="fil0 str0" /><rect
       style="fill:none;stroke:#ff0000;stroke-width:300"
       id="rect3864"
       height="41667"
       width="6250"
       y="1140318"
       x="1037306"
       class="fil0 str0" /><rect
       style="fill:none;stroke:#ff0000;stroke-width:300"
       id="rect3866"
       height="41667"
       width="6250"
       y="1140318"
       x="912306"
       class="fil0 str0" /><rect
       style="fill:none;stroke:#ff0000;stroke-width:300"
       id="rect3868"
       height="41667"
       width="6250"
       y="1140318"
       x="1012306"
       class="fil0 str0" /><rect
       style="fill:none;stroke:#ff0000;stroke-width:300"
       id="rect3870"
       height="41667"
       width="6250"
       y="1140318"
       x="999806"
       class="fil0 str0" /><rect
       style="fill:none;stroke:#ff0000;stroke-width:300"
       id="rect3872"
       height="41667"
       width="6250"
       y="1140318"
       x="987306"
       class="fil0 str0" /><rect
       style="fill:none;stroke:#ff0000;stroke-width:300"
       id="rect3874"
       height="41667"
       width="6250"
       y="1140318"
       x="974806"
       class="fil0 str0" /><rect
       style="fill:none;stroke:#ff0000;stroke-width:300"
       id="rect3876"
       height="41667"
       width="6250"
       y="1140318"
       x="962306"
       class="fil0 str0" /><rect
       style="fill:none;stroke:#ff0000;stroke-width:300"
       id="rect3878"
       height="41667"
       width="6250"
       y="1140318"
       x="949806"
       class="fil0 str0" /><rect
       style="fill:none;stroke:#ff0000;stroke-width:300"
       id="rect3880"
       height="41667"
       width="6250"
       y="1140318"
       x="937306"
       class="fil0 str0" /><rect
       style="fill:none;stroke:#ff0000;stroke-width:300"
       id="rect3882"
       height="41667"
       width="6250"
       y="1140318"
       x="924806"
       class="fil0 str0" /></g><g
     id="_686522256"><rect
       style="fill:none;stroke:#ff0000;stroke-width:300"
       id="rect3885"
       height="65000"
       width="176000"
       y="1063651"
       x="902431"
       class="fil0 str0" /><rect
       style="fill:none;stroke:#ff0000;stroke-width:300"
       id="rect3887"
       height="41667"
       width="6250"
       y="1075318"
       x="1024806"
       class="fil0 str0" /><rect
       style="fill:none;stroke:#ff0000;stroke-width:300"
       id="rect3889"
       height="41667"
       width="6250"
       y="1075318"
       x="1062306"
       class="fil0 str0" /><rect
       style="fill:none;stroke:#ff0000;stroke-width:300"
       id="rect3891"
       height="41667"
       width="6250"
       y="1075318"
       x="1049806"
       class="fil0 str0" /><rect
       style="fill:none;stroke:#ff0000;stroke-width:300"
       id="rect3893"
       height="41667"
       width="6250"
       y="1075318"
       x="1037306"
       class="fil0 str0" /><rect
       style="fill:none;stroke:#ff0000;stroke-width:300"
       id="rect3895"
       height="41667"
       width="6250"
       y="1075318"
       x="912306"
       class="fil0 str0" /><rect
       style="fill:none;stroke:#ff0000;stroke-width:300"
       id="rect3897"
       height="41667"
       width="6250"
       y="1075318"
       x="1012306"
       class="fil0 str0" /><rect
       style="fill:none;stroke:#ff0000;stroke-width:300"
       id="rect3899"
       height="41667"
       width="6250"
       y="1075318"
       x="999806"
       class="fil0 str0" /><rect
       style="fill:none;stroke:#ff0000;stroke-width:300"
       id="rect3901"
       height="41667"
       width="6250"
       y="1075318"
       x="987306"
       class="fil0 str0" /><rect
       style="fill:none;stroke:#ff0000;stroke-width:300"
       id="rect3903"
       height="41667"
       width="6250"
       y="1075318"
       x="974806"
       class="fil0 str0" /><rect
       style="fill:none;stroke:#ff0000;stroke-width:300"
       id="rect3905"
       height="41667"
       width="6250"
       y="1075318"
       x="962306"
       class="fil0 str0" /><rect
       style="fill:none;stroke:#ff0000;stroke-width:300"
       id="rect3907"
       height="41667"
       width="6250"
       y="1075318"
       x="949806"
       class="fil0 str0" /><rect
       style="fill:none;stroke:#ff0000;stroke-width:300"
       id="rect3909"
       height="41667"
       width="6250"
       y="1075318"
       x="937306"
       class="fil0 str0" /><rect
       style="fill:none;stroke:#ff0000;stroke-width:300"
       id="rect3911"
       height="41667"
       width="6250"
       y="1075318"
       x="924806"
       class="fil0 str0" /></g></svg>