<?xml version="1.0" encoding="UTF-8"?>
<!DOCTYPE svg PUBLIC "-//W3C//DTD SVG 1.0//EN" "http://www.w3.org/TR/2001/REC-SVG-20010904/DTD/svg10.dtd">
<!-- Creator: CorelDRAW X7 -->
<svg xmlns="http://www.w3.org/2000/svg" xml:space="preserve" width="24in" height="12in" version="1.0" style="shape-rendering:geometricPrecision; text-rendering:geometricPrecision; image-rendering:optimizeQuality; fill-rule:evenodd; clip-rule:evenodd"
viewBox="0 0 2400000 1200000"
 xmlns:xlink="http://www.w3.org/1999/xlink">
 <defs>
  <style type="text/css">
   <![CDATA[
    .str3 {stroke:aqua;stroke-width:694.488}
    .str2 {stroke:red;stroke-width:694.488}
    .str1 {stroke:black;stroke-width:300}
    .str0 {stroke:black;stroke-width:300}
    .str8 {stroke:black;stroke-width:300}
    .str7 {stroke:lime;stroke-width:300}
    .str6 {stroke:lime;stroke-width:300}
    .str5 {stroke:red;stroke-width:300}
    .str4 {stroke:red;stroke-width:300}
    .fil1 {fill:none}
    .fil0 {fill:none;fill-rule:nonzero}
    .fil2 {fill:black;fill-rule:nonzero}
   ]]>
  </style>
 </defs>
 <g id="Layer_x0020_1">
  <metadata id="CorelCorpID_0Corel-Layer"/>
  <g id="_702923968">
   <line class="fil0 str0" x1="2401694" y1="1338381" x2="3001694" y2= "1338381" />
   <line class="fil0 str0" x1="2401695" y1="1038381" x2="2458059" y2= "1038381" />
   <line class="fil0 str0" x1="2458059" y1="1038381" x2="2458059" y2= "1058381" />
   <line class="fil0 str0" x1="2458059" y1="1058381" x2="2514423" y2= "1058381" />
   <line class="fil0 str0" x1="2514423" y1="1038381" x2="2514423" y2= "1058381" />
   <line class="fil0 str0" x1="2514423" y1="1038381" x2="2570787" y2= "1038381" />
   <line class="fil0 str0" x1="2570787" y1="1038381" x2="2570787" y2= "1058381" />
   <line class="fil0 str0" x1="2570787" y1="1058381" x2="2627150" y2= "1058381" />
   <line class="fil0 str0" x1="2627150" y1="1038381" x2="2627150" y2= "1058381" />
   <line class="fil0 str0" x1="2627150" y1="1038381" x2="2683514" y2= "1038381" />
   <line class="fil0 str0" x1="2683514" y1="1038381" x2="2683514" y2= "1058381" />
   <line class="fil0 str0" x1="2683514" y1="1058381" x2="2739877" y2= "1058381" />
   <line class="fil0 str0" x1="2739877" y1="1038381" x2="2739877" y2= "1058381" />
   <line class="fil0 str0" x1="2739877" y1="1038381" x2="2796241" y2= "1038381" />
   <line class="fil0 str0" x1="2796241" y1="1038381" x2="2796241" y2= "1058381" />
   <line class="fil0 str0" x1="2796241" y1="1058381" x2="2852604" y2= "1058381" />
   <line class="fil0 str0" x1="2852604" y1="1038381" x2="2852604" y2= "1058381" />
   <line class="fil0 str0" x1="2852604" y1="1038381" x2="2908968" y2= "1038381" />
   <line class="fil0 str0" x1="2908968" y1="1038381" x2="2908968" y2= "1058381" />
   <line class="fil0 str0" x1="2908968" y1="1058381" x2="2965331" y2= "1058381" />
   <line class="fil0 str0" x1="2965331" y1="1038381" x2="2965331" y2= "1058381" />
   <line class="fil0 str0" x1="2965331" y1="1038381" x2="3001695" y2= "1038381" />
   <line class="fil0 str0" x1="2401695" y1="1338381" x2="2401695" y2= "1278381" />
   <line class="fil0 str0" x1="2421695" y1="1278381" x2="2401695" y2= "1278381" />
   <line class="fil0 str0" x1="2421695" y1="1278381" x2="2421695" y2= "1218381" />
   <line class="fil0 str0" x1="2421695" y1="1218381" x2="2401695" y2= "1218381" />
   <line class="fil0 str0" x1="2401695" y1="1218381" x2="2401695" y2= "1158381" />
   <line class="fil0 str0" x1="2421695" y1="1158381" x2="2401695" y2= "1158381" />
   <line class="fil0 str0" x1="2421695" y1="1158381" x2="2421695" y2= "1098381" />
   <line class="fil0 str0" x1="2421695" y1="1098381" x2="2401695" y2= "1098381" />
   <line class="fil0 str0" x1="2401695" y1="1098381" x2="2401695" y2= "1038381" />
   <line class="fil0 str0" x1="3001695" y1="1338381" x2="3001695" y2= "1278381" />
   <line class="fil0 str0" x1="3021695" y1="1278381" x2="3001695" y2= "1278381" />
   <line class="fil0 str0" x1="3021695" y1="1278381" x2="3021695" y2= "1218381" />
   <line class="fil0 str0" x1="3021695" y1="1218381" x2="3001695" y2= "1218381" />
   <line class="fil0 str0" x1="3001695" y1="1218381" x2="3001695" y2= "1158381" />
   <line class="fil0 str0" x1="3021695" y1="1158381" x2="3001695" y2= "1158381" />
   <line class="fil0 str0" x1="3021695" y1="1158381" x2="3021695" y2= "1098381" />
   <line class="fil0 str0" x1="3021695" y1="1098381" x2="3001695" y2= "1098381" />
   <line class="fil0 str0" x1="3001695" y1="1098381" x2="3001695" y2= "1038381" />
  </g>
  <g id="_1394066048">
   <line class="fil0 str0" x1="2430809" y1="950898" x2="2467173" y2= "950898" />
   <line class="fil0 str0" x1="2467173" y1="950898" x2="2467173" y2= "970898" />
   <line class="fil0 str0" x1="2467173" y1="970898" x2="2523537" y2= "970898" />
   <line class="fil0 str0" x1="2523537" y1="950898" x2="2523537" y2= "970898" />
   <line class="fil0 str0" x1="2523537" y1="950898" x2="2579900" y2= "950898" />
   <line class="fil0 str0" x1="2579900" y1="950898" x2="2579900" y2= "970898" />
   <line class="fil0 str0" x1="2579900" y1="970898" x2="2636264" y2= "970898" />
   <line class="fil0 str0" x1="2636264" y1="950898" x2="2636264" y2= "970898" />
   <line class="fil0 str0" x1="2636264" y1="950898" x2="2692628" y2= "950898" />
   <line class="fil0 str0" x1="2692628" y1="950898" x2="2692628" y2= "970898" />
   <line class="fil0 str0" x1="2692628" y1="970898" x2="2748991" y2= "970898" />
   <line class="fil0 str0" x1="2748991" y1="950898" x2="2748991" y2= "970898" />
   <line class="fil0 str0" x1="2748991" y1="950898" x2="2805355" y2= "950898" />
   <line class="fil0 str0" x1="2805355" y1="950898" x2="2805355" y2= "970898" />
   <line class="fil0 str0" x1="2805355" y1="970898" x2="2861718" y2= "970898" />
   <line class="fil0 str0" x1="2861718" y1="950898" x2="2861718" y2= "970898" />
   <line class="fil0 str0" x1="2861718" y1="950898" x2="2918081" y2= "950898" />
   <line class="fil0 str0" x1="2918081" y1="950898" x2="2918081" y2= "970898" />
   <line class="fil0 str0" x1="2918081" y1="970898" x2="2974445" y2= "970898" />
   <line class="fil0 str0" x1="2974445" y1="950898" x2="2974445" y2= "970898" />
   <line class="fil0 str0" x1="2974445" y1="950898" x2="3010809" y2= "950898" />
   <line class="fil0 str0" x1="2523537" y1="370899" x2="2579900" y2= "370899" />
   <line class="fil0 str0" x1="2636264" y1="370899" x2="2692628" y2= "370899" />
   <line class="fil0 str0" x1="2748991" y1="370899" x2="2805355" y2= "370899" />
   <line class="fil0 str0" x1="2861718" y1="370899" x2="2918081" y2= "370899" />
   <line class="fil0 str0" x1="2430809" y1="950898" x2="2430809" y2= "914535" />
   <line class="fil0 str0" x1="2430809" y1="914535" x2="2410809" y2= "914535" />
   <line class="fil0 str0" x1="2410809" y1="914535" x2="2410809" y2= "858171" />
   <line class="fil0 str0" x1="2430809" y1="858171" x2="2410809" y2= "858171" />
   <line class="fil0 str0" x1="2430809" y1="858171" x2="2430809" y2= "801807" />
   <line class="fil0 str0" x1="2430809" y1="801807" x2="2410809" y2= "801807" />
   <line class="fil0 str0" x1="2410809" y1="801807" x2="2410809" y2= "745444" />
   <line class="fil0 str0" x1="2430809" y1="745444" x2="2410809" y2= "745444" />
   <line class="fil0 str0" x1="2430809" y1="745444" x2="2430809" y2= "689080" />
   <line class="fil0 str0" x1="2430809" y1="689080" x2="2410809" y2= "689080" />
   <line class="fil0 str0" x1="2410809" y1="689080" x2="2410809" y2= "632717" />
   <line class="fil0 str0" x1="2430809" y1="632717" x2="2410809" y2= "632717" />
   <line class="fil0 str0" x1="2430809" y1="632717" x2="2430809" y2= "576353" />
   <line class="fil0 str0" x1="2430809" y1="576353" x2="2410809" y2= "576353" />
   <line class="fil0 str0" x1="2410809" y1="576353" x2="2410809" y2= "519989" />
   <line class="fil0 str0" x1="2430809" y1="519989" x2="2410809" y2= "519989" />
   <line class="fil0 str0" x1="2430809" y1="519989" x2="2430809" y2= "463626" />
   <line class="fil0 str0" x1="2430809" y1="463626" x2="2410809" y2= "463626" />
   <line class="fil0 str0" x1="2410809" y1="463626" x2="2410809" y2= "407263" />
   <line class="fil0 str0" x1="2430809" y1="407263" x2="2410809" y2= "407263" />
   <line class="fil0 str0" x1="3010809" y1="950898" x2="3010809" y2= "914535" />
   <line class="fil0 str0" x1="3030809" y1="914535" x2="3010809" y2= "914535" />
   <line class="fil0 str0" x1="3030809" y1="914535" x2="3030809" y2= "858171" />
   <line class="fil0 str0" x1="3030809" y1="858171" x2="3010809" y2= "858171" />
   <line class="fil0 str0" x1="3010809" y1="858171" x2="3010809" y2= "801807" />
   <line class="fil0 str0" x1="3030809" y1="801807" x2="3010809" y2= "801807" />
   <line class="fil0 str0" x1="3030809" y1="801807" x2="3030809" y2= "745444" />
   <line class="fil0 str0" x1="3030809" y1="745444" x2="3010809" y2= "745444" />
   <line class="fil0 str0" x1="3010809" y1="745444" x2="3010809" y2= "689080" />
   <line class="fil0 str0" x1="3030809" y1="689080" x2="3010809" y2= "689080" />
   <line class="fil0 str0" x1="3030809" y1="689080" x2="3030809" y2= "632717" />
   <line class="fil0 str0" x1="3030809" y1="632717" x2="3010809" y2= "632717" />
   <line class="fil0 str0" x1="3010809" y1="632717" x2="3010809" y2= "576353" />
   <line class="fil0 str0" x1="3030809" y1="576353" x2="3010809" y2= "576353" />
   <line class="fil0 str0" x1="3030809" y1="576353" x2="3030809" y2= "519989" />
   <line class="fil0 str0" x1="3030809" y1="519989" x2="3010809" y2= "519989" />
   <line class="fil0 str0" x1="3010809" y1="519989" x2="3010809" y2= "463626" />
   <line class="fil0 str0" x1="3030809" y1="463626" x2="3010809" y2= "463626" />
   <line class="fil0 str0" x1="3030809" y1="463626" x2="3030809" y2= "407263" />
   <line class="fil0 str0" x1="3030809" y1="407263" x2="3010809" y2= "407263" />
   <line class="fil0 str0" x1="3010809" y1="407262" x2="3010809" y2= "314535" />
   <line class="fil0 str0" x1="2523537" y1="350899" x2="2523537" y2= "370899" />
   <line class="fil0 str0" x1="2523537" y1="350899" x2="2579900" y2= "350899" />
   <line class="fil0 str0" x1="2579900" y1="350899" x2="2579900" y2= "370899" />
   <line class="fil0 str0" x1="2636264" y1="350899" x2="2636264" y2= "370899" />
   <line class="fil0 str0" x1="2636264" y1="350899" x2="2692628" y2= "350899" />
   <line class="fil0 str0" x1="2692628" y1="350899" x2="2692628" y2= "370899" />
   <line class="fil0 str0" x1="2748991" y1="350899" x2="2748991" y2= "370899" />
   <line class="fil0 str0" x1="2748991" y1="350899" x2="2805355" y2= "350899" />
   <line class="fil0 str0" x1="2805355" y1="350899" x2="2805355" y2= "370899" />
   <line class="fil0 str0" x1="2861718" y1="350899" x2="2861718" y2= "370899" />
   <line class="fil0 str0" x1="2861718" y1="350899" x2="2918081" y2= "350899" />
   <line class="fil0 str0" x1="2918081" y1="350899" x2="2918081" y2= "370899" />
   <line class="fil0 str0" x1="2430809" y1="-229101" x2="2467173" y2= "-229101" />
   <line class="fil0 str0" x1="2467173" y1="-249101" x2="2467173" y2= "-229101" />
   <line class="fil0 str0" x1="2467173" y1="-249101" x2="2523537" y2= "-249101" />
   <line class="fil0 str0" x1="2523537" y1="-249101" x2="2523537" y2= "-229101" />
   <line class="fil0 str0" x1="2523537" y1="-229101" x2="2579900" y2= "-229101" />
   <line class="fil0 str0" x1="2579900" y1="-249101" x2="2579900" y2= "-229101" />
   <line class="fil0 str0" x1="2579900" y1="-249101" x2="2636264" y2= "-249101" />
   <line class="fil0 str0" x1="2636264" y1="-249101" x2="2636264" y2= "-229101" />
   <line class="fil0 str0" x1="2636264" y1="-229101" x2="2692628" y2= "-229101" />
   <line class="fil0 str0" x1="2692628" y1="-249101" x2="2692628" y2= "-229101" />
   <line class="fil0 str0" x1="2692628" y1="-249101" x2="2748991" y2= "-249101" />
   <line class="fil0 str0" x1="2748991" y1="-249101" x2="2748991" y2= "-229101" />
   <line class="fil0 str0" x1="2748991" y1="-229101" x2="2805355" y2= "-229101" />
   <line class="fil0 str0" x1="2805355" y1="-249101" x2="2805355" y2= "-229101" />
   <line class="fil0 str0" x1="2805355" y1="-249101" x2="2861718" y2= "-249101" />
   <line class="fil0 str0" x1="2861718" y1="-249101" x2="2861718" y2= "-229101" />
   <line class="fil0 str0" x1="2861718" y1="-229101" x2="2918081" y2= "-229101" />
   <line class="fil0 str0" x1="2918081" y1="-249101" x2="2918081" y2= "-229101" />
   <line class="fil0 str0" x1="2918081" y1="-249101" x2="2974445" y2= "-249101" />
   <line class="fil0 str0" x1="2974445" y1="-249101" x2="2974445" y2= "-229101" />
   <line class="fil0 str0" x1="2974445" y1="-229101" x2="3010809" y2= "-229101" />
   <line class="fil0 str0" x1="2430809" y1="407263" x2="2430809" y2= "314535" />
   <line class="fil0 str0" x1="2430809" y1="314535" x2="2410809" y2= "314535" />
   <line class="fil0 str0" x1="2410809" y1="314535" x2="2410809" y2= "258172" />
   <line class="fil0 str0" x1="2430809" y1="258172" x2="2410809" y2= "258172" />
   <line class="fil0 str0" x1="2430809" y1="258172" x2="2430809" y2= "201808" />
   <line class="fil0 str0" x1="2430809" y1="201808" x2="2410809" y2= "201808" />
   <line class="fil0 str0" x1="2410809" y1="201808" x2="2410809" y2= "145444" />
   <line class="fil0 str0" x1="2430809" y1="145444" x2="2410809" y2= "145444" />
   <line class="fil0 str0" x1="2430809" y1="145444" x2="2430809" y2= "89081" />
   <line class="fil0 str0" x1="2430809" y1="89081" x2="2410809" y2= "89081" />
   <line class="fil0 str0" x1="2410809" y1="89081" x2="2410809" y2= "32717" />
   <line class="fil0 str0" x1="2430809" y1="32717" x2="2410809" y2= "32717" />
   <line class="fil0 str0" x1="2430809" y1="32717" x2="2430809" y2= "-23646" />
   <line class="fil0 str0" x1="2430809" y1="-23646" x2="2410809" y2= "-23646" />
   <line class="fil0 str0" x1="2410809" y1="-23646" x2="2410809" y2= "-80010" />
   <line class="fil0 str0" x1="2430809" y1="-80010" x2="2410809" y2= "-80010" />
   <line class="fil0 str0" x1="2430809" y1="-80010" x2="2430809" y2= "-136374" />
   <line class="fil0 str0" x1="2430809" y1="-136374" x2="2410809" y2= "-136374" />
   <line class="fil0 str0" x1="2410809" y1="-136374" x2="2410809" y2= "-192737" />
   <line class="fil0 str0" x1="2430809" y1="-192737" x2="2410809" y2= "-192737" />
   <line class="fil0 str0" x1="2430809" y1="-192737" x2="2430809" y2= "-229101" />
   <line class="fil0 str0" x1="3030809" y1="314535" x2="3010809" y2= "314535" />
   <line class="fil0 str0" x1="3030809" y1="314535" x2="3030809" y2= "258172" />
   <line class="fil0 str0" x1="3030809" y1="258172" x2="3010809" y2= "258172" />
   <line class="fil0 str0" x1="3010809" y1="258172" x2="3010809" y2= "201808" />
   <line class="fil0 str0" x1="3030809" y1="201808" x2="3010809" y2= "201808" />
   <line class="fil0 str0" x1="3030809" y1="201808" x2="3030809" y2= "145444" />
   <line class="fil0 str0" x1="3030809" y1="145444" x2="3010809" y2= "145444" />
   <line class="fil0 str0" x1="3010809" y1="145444" x2="3010809" y2= "89081" />
   <line class="fil0 str0" x1="3030809" y1="89081" x2="3010809" y2= "89081" />
   <line class="fil0 str0" x1="3030809" y1="89081" x2="3030809" y2= "32717" />
   <line class="fil0 str0" x1="3030809" y1="32717" x2="3010809" y2= "32717" />
   <line class="fil0 str0" x1="3010809" y1="32717" x2="3010809" y2= "-23646" />
   <line class="fil0 str0" x1="3030809" y1="-23646" x2="3010809" y2= "-23646" />
   <line class="fil0 str0" x1="3030809" y1="-23646" x2="3030809" y2= "-80010" />
   <line class="fil0 str0" x1="3030809" y1="-80010" x2="3010809" y2= "-80010" />
   <line class="fil0 str0" x1="3010809" y1="-80010" x2="3010809" y2= "-136374" />
   <line class="fil0 str0" x1="3030809" y1="-136374" x2="3010809" y2= "-136374" />
   <line class="fil0 str0" x1="3030809" y1="-136374" x2="3030809" y2= "-192737" />
   <line class="fil0 str0" x1="3030809" y1="-192737" x2="3010809" y2= "-192737" />
   <line class="fil0 str0" x1="3010809" y1="-192737" x2="3010809" y2= "-229101" />
  </g>
  <g id="_1393527904">
   <line class="fil0 str0" x1="3370179" y1="970896" x2="3370179" y2= "350899" />
   <line class="fil0 str0" x1="3070179" y1="970898" x2="3070179" y2= "914535" />
   <line class="fil0 str0" x1="3070179" y1="914535" x2="3090179" y2= "914535" />
   <line class="fil0 str0" x1="3090179" y1="914535" x2="3090179" y2= "858171" />
   <line class="fil0 str0" x1="3070179" y1="858171" x2="3090179" y2= "858171" />
   <line class="fil0 str0" x1="3070179" y1="858171" x2="3070179" y2= "801807" />
   <line class="fil0 str0" x1="3070179" y1="801807" x2="3090179" y2= "801807" />
   <line class="fil0 str0" x1="3090179" y1="801807" x2="3090179" y2= "745443" />
   <line class="fil0 str0" x1="3070179" y1="745443" x2="3090179" y2= "745443" />
   <line class="fil0 str0" x1="3070179" y1="745443" x2="3070179" y2= "689081" />
   <line class="fil0 str0" x1="3070179" y1="689081" x2="3090179" y2= "689081" />
   <line class="fil0 str0" x1="3090179" y1="689081" x2="3090179" y2= "632717" />
   <line class="fil0 str0" x1="3070179" y1="632717" x2="3090179" y2= "632717" />
   <line class="fil0 str0" x1="3070179" y1="632717" x2="3070179" y2= "576353" />
   <line class="fil0 str0" x1="3070179" y1="576353" x2="3090179" y2= "576353" />
   <line class="fil0 str0" x1="3090179" y1="576353" x2="3090179" y2= "519989" />
   <line class="fil0 str0" x1="3070179" y1="519989" x2="3090179" y2= "519989" />
   <line class="fil0 str0" x1="3070179" y1="519989" x2="3070179" y2= "463625" />
   <line class="fil0 str0" x1="3070179" y1="463625" x2="3090179" y2= "463625" />
   <line class="fil0 str0" x1="3090179" y1="463625" x2="3090179" y2= "407261" />
   <line class="fil0 str0" x1="3070179" y1="407261" x2="3090179" y2= "407261" />
   <line class="fil0 str0" x1="3070179" y1="407261" x2="3070179" y2= "370899" />
   <line class="fil0 str0" x1="3370179" y1="970898" x2="3310179" y2= "970898" />
   <line class="fil0 str0" x1="3310179" y1="950898" x2="3310179" y2= "970898" />
   <line class="fil0 str0" x1="3310179" y1="950898" x2="3250179" y2= "950898" />
   <line class="fil0 str0" x1="3250179" y1="950898" x2="3250179" y2= "970898" />
   <line class="fil0 str0" x1="3250179" y1="970898" x2="3190179" y2= "970898" />
   <line class="fil0 str0" x1="3190179" y1="950898" x2="3190179" y2= "970898" />
   <line class="fil0 str0" x1="3190179" y1="950898" x2="3130179" y2= "950898" />
   <line class="fil0 str0" x1="3130179" y1="950898" x2="3130179" y2= "970898" />
   <line class="fil0 str0" x1="3130179" y1="970898" x2="3070179" y2= "970898" />
   <line class="fil0 str0" x1="3126542" y1="350899" x2="3126542" y2= "370899" />
   <line class="fil0 str0" x1="3126542" y1="350899" x2="3182906" y2= "350899" />
   <line class="fil0 str0" x1="3182906" y1="350899" x2="3182906" y2= "370899" />
   <line class="fil0 str0" x1="3239270" y1="350899" x2="3239270" y2= "370899" />
   <line class="fil0 str0" x1="3239270" y1="350899" x2="3295634" y2= "350899" />
   <line class="fil0 str0" x1="3295634" y1="350899" x2="3295634" y2= "370899" />
   <line class="fil0 str0" x1="3370179" y1="350899" x2="3408360" y2= "350899" />
   <line class="fil0 str0" x1="3408360" y1="350899" x2="3408360" y2= "370899" />
   <line class="fil0 str0" x1="3408360" y1="370899" x2="3464724" y2= "370899" />
   <line class="fil0 str0" x1="3464724" y1="350899" x2="3464724" y2= "370899" />
   <line class="fil0 str0" x1="3464724" y1="350899" x2="3521088" y2= "350899" />
   <line class="fil0 str0" x1="3521088" y1="350899" x2="3521088" y2= "370899" />
   <line class="fil0 str0" x1="3521088" y1="370899" x2="3577452" y2= "370899" />
   <line class="fil0 str0" x1="3577452" y1="350899" x2="3577452" y2= "370899" />
   <line class="fil0 str0" x1="3577452" y1="350899" x2="3633816" y2= "350899" />
   <line class="fil0 str0" x1="3633816" y1="350899" x2="3633816" y2= "370899" />
   <line class="fil0 str0" x1="3633816" y1="370899" x2="3690178" y2= "370899" />
   <line class="fil0 str0" x1="3070179" y1="-249101" x2="3126542" y2= "-249101" />
   <line class="fil0 str0" x1="3126542" y1="-249101" x2="3126542" y2= "-229101" />
   <line class="fil0 str0" x1="3126542" y1="-229101" x2="3182906" y2= "-229101" />
   <line class="fil0 str0" x1="3182906" y1="-249101" x2="3182906" y2= "-229101" />
   <line class="fil0 str0" x1="3182906" y1="-249101" x2="3239270" y2= "-249101" />
   <line class="fil0 str0" x1="3239270" y1="-249101" x2="3239270" y2= "-229101" />
   <line class="fil0 str0" x1="3239270" y1="-229101" x2="3295634" y2= "-229101" />
   <line class="fil0 str0" x1="3295634" y1="-249101" x2="3295634" y2= "-229101" />
   <line class="fil0 str0" x1="3295634" y1="-249101" x2="3351996" y2= "-249101" />
   <line class="fil0 str0" x1="3351996" y1="-249101" x2="3351996" y2= "-229101" />
   <line class="fil0 str0" x1="3351996" y1="-229101" x2="3408360" y2= "-229101" />
   <line class="fil0 str0" x1="3408360" y1="-249101" x2="3408360" y2= "-229101" />
   <line class="fil0 str0" x1="3408360" y1="-249101" x2="3464724" y2= "-249101" />
   <line class="fil0 str0" x1="3464724" y1="-249101" x2="3464724" y2= "-229101" />
   <line class="fil0 str0" x1="3464724" y1="-229101" x2="3521088" y2= "-229101" />
   <line class="fil0 str0" x1="3521088" y1="-249101" x2="3521088" y2= "-229101" />
   <line class="fil0 str0" x1="3521088" y1="-249101" x2="3577452" y2= "-249101" />
   <line class="fil0 str0" x1="3577452" y1="-249101" x2="3577452" y2= "-229101" />
   <line class="fil0 str0" x1="3577452" y1="-229101" x2="3633816" y2= "-229101" />
   <line class="fil0 str0" x1="3633816" y1="-249101" x2="3633816" y2= "-229101" />
   <line class="fil0 str0" x1="3633816" y1="-249101" x2="3690178" y2= "-249101" />
   <line class="fil0 str0" x1="3070179" y1="370899" x2="3070179" y2= "314535" />
   <line class="fil0 str0" x1="3090179" y1="314535" x2="3070179" y2= "314535" />
   <line class="fil0 str0" x1="3090179" y1="314535" x2="3090179" y2= "258172" />
   <line class="fil0 str0" x1="3090179" y1="258172" x2="3070179" y2= "258172" />
   <line class="fil0 str0" x1="3070179" y1="258172" x2="3070179" y2= "201808" />
   <line class="fil0 str0" x1="3090179" y1="201808" x2="3070179" y2= "201808" />
   <line class="fil0 str0" x1="3090179" y1="201808" x2="3090179" y2= "145444" />
   <line class="fil0 str0" x1="3090179" y1="145444" x2="3070179" y2= "145444" />
   <line class="fil0 str0" x1="3070179" y1="145444" x2="3070179" y2= "89081" />
   <line class="fil0 str0" x1="3090179" y1="89081" x2="3070179" y2= "89081" />
   <line class="fil0 str0" x1="3090179" y1="89081" x2="3090179" y2= "32717" />
   <line class="fil0 str0" x1="3090179" y1="32717" x2="3070179" y2= "32717" />
   <line class="fil0 str0" x1="3070179" y1="32717" x2="3070179" y2= "-23646" />
   <line class="fil0 str0" x1="3090179" y1="-23646" x2="3070179" y2= "-23646" />
   <line class="fil0 str0" x1="3090179" y1="-23646" x2="3090179" y2= "-80010" />
   <line class="fil0 str0" x1="3090179" y1="-80010" x2="3070179" y2= "-80010" />
   <line class="fil0 str0" x1="3070179" y1="-80010" x2="3070179" y2= "-136374" />
   <line class="fil0 str0" x1="3090179" y1="-136374" x2="3070179" y2= "-136374" />
   <line class="fil0 str0" x1="3090179" y1="-136374" x2="3090179" y2= "-192737" />
   <line class="fil0 str0" x1="3090179" y1="-192737" x2="3070179" y2= "-192737" />
   <line class="fil0 str0" x1="3070179" y1="-192737" x2="3070179" y2= "-249101" />
   <line class="fil0 str0" x1="3690178" y1="370899" x2="3690178" y2= "314535" />
   <line class="fil0 str0" x1="3690178" y1="314535" x2="3690178" y2= "-249100" />
   <line class="fil1 str1" x1="3126542" y1="370899" x2="3182906" y2= "370899" />
   <line class="fil1 str1" x1="3239270" y1="370899" x2="3295634" y2= "370899" />
  </g>
  <rect class="fil1 str2" x="3370179" y="-80009" width="20000" height="56363"/>
  <rect class="fil1 str2" x="3370179" y="145445" width="20000" height="56364"/>
  <g id="_1393314976">
   <line class="fil0 str0" x1="3344752" y1="-423131" x2="3924752" y2= "-423131" />
   <line class="fil0 str0" x1="3344752" y1="-1003131" x2="3924752" y2= "-1003131" />
   <line class="fil0 str0" x1="3344752" y1="-423131" x2="3344752" y2= "-572221" />
   <line class="fil0 str0" x1="3344752" y1="-572221" x2="3324752" y2= "-572221" />
   <line class="fil0 str0" x1="3324752" y1="-572221" x2="3324752" y2= "-628585" />
   <line class="fil0 str0" x1="3344752" y1="-628585" x2="3324752" y2= "-628585" />
   <line class="fil0 str0" x1="3344752" y1="-628585" x2="3344752" y2= "-797676" />
   <line class="fil0 str0" x1="3344752" y1="-797676" x2="3324752" y2= "-797676" />
   <line class="fil0 str0" x1="3324752" y1="-797676" x2="3324752" y2= "-854039" />
   <line class="fil0 str0" x1="3344752" y1="-854039" x2="3324752" y2= "-854039" />
   <line class="fil0 str0" x1="3344752" y1="-854039" x2="3344752" y2= "-1003131" />
   <line class="fil0 str0" x1="3924752" y1="-423131" x2="3924752" y2= "-572221" />
   <line class="fil0 str0" x1="3944752" y1="-572221" x2="3924752" y2= "-572221" />
   <line class="fil0 str0" x1="3944752" y1="-572221" x2="3944752" y2= "-628585" />
   <line class="fil0 str0" x1="3944752" y1="-628585" x2="3924752" y2= "-628585" />
   <line class="fil0 str0" x1="3924752" y1="-628585" x2="3924752" y2= "-797676" />
   <line class="fil0 str0" x1="3944752" y1="-797676" x2="3924752" y2= "-797676" />
   <line class="fil0 str0" x1="3944752" y1="-797676" x2="3944752" y2= "-854039" />
   <line class="fil0 str0" x1="3944752" y1="-854039" x2="3924752" y2= "-854039" />
   <line class="fil0 str0" x1="3924752" y1="-854039" x2="3924752" y2= "-1003131" />
   <rect class="fil1 str3" x="3469752" y="-878131" width="330000" height="330000"/>
  </g>
  <rect class="fil1 str3" x="3670000" y="500000" width="80000" height="80000"/>
  <g id="_1392834464">
   <line class="fil0 str0" x1="2427475" y1="-428472" x2="2483839" y2= "-428472" />
   <line class="fil0 str0" x1="2483839" y1="-448472" x2="2483839" y2= "-428472" />
   <line class="fil0 str0" x1="2483839" y1="-448472" x2="2540202" y2= "-448472" />
   <line class="fil0 str0" x1="2540202" y1="-448472" x2="2540202" y2= "-428472" />
   <line class="fil0 str0" x1="2540202" y1="-428472" x2="2596566" y2= "-428472" />
   <line class="fil0 str0" x1="2596566" y1="-448472" x2="2596566" y2= "-428472" />
   <line class="fil0 str0" x1="2596566" y1="-448472" x2="2652930" y2= "-448472" />
   <line class="fil0 str0" x1="2652930" y1="-448472" x2="2652930" y2= "-428472" />
   <line class="fil0 str0" x1="2652930" y1="-428472" x2="2709293" y2= "-428472" />
   <line class="fil0 str0" x1="2709293" y1="-448472" x2="2709293" y2= "-428472" />
   <line class="fil0 str0" x1="2709293" y1="-448472" x2="2765657" y2= "-448472" />
   <line class="fil0 str0" x1="2765657" y1="-448472" x2="2765657" y2= "-428472" />
   <line class="fil0 str0" x1="2765657" y1="-428472" x2="2822020" y2= "-428472" />
   <line class="fil0 str0" x1="2822020" y1="-448472" x2="2822020" y2= "-428472" />
   <line class="fil0 str0" x1="2822020" y1="-448472" x2="2878384" y2= "-448472" />
   <line class="fil0 str0" x1="2878384" y1="-448472" x2="2878384" y2= "-428472" />
   <line class="fil0 str0" x1="2878384" y1="-428472" x2="2934747" y2= "-428472" />
   <line class="fil0 str0" x1="2934747" y1="-448472" x2="2934747" y2= "-428472" />
   <line class="fil0 str0" x1="2934747" y1="-448472" x2="2991111" y2= "-448472" />
   <line class="fil0 str0" x1="2991111" y1="-448472" x2="2991111" y2= "-428472" />
   <line class="fil0 str0" x1="2991111" y1="-428472" x2="3027474" y2= "-428472" />
   <line class="fil0 str4" x1="2427474" y1="-1048472" x2="3027473" y2= "-1048472" />
   <line class="fil0 str0" x1="2427475" y1="-428472" x2="2427475" y2= "-484836" />
   <line class="fil0 str0" x1="2447475" y1="-484836" x2="2427475" y2= "-484836" />
   <line class="fil0 str0" x1="2447475" y1="-484836" x2="2447475" y2= "-541200" />
   <line class="fil0 str0" x1="2447475" y1="-541200" x2="2427475" y2= "-541200" />
   <line class="fil0 str0" x1="2427475" y1="-541200" x2="2427475" y2= "-597564" />
   <line class="fil0 str0" x1="2447475" y1="-597564" x2="2427475" y2= "-597564" />
   <line class="fil0 str0" x1="2447475" y1="-597564" x2="2447475" y2= "-653927" />
   <line class="fil0 str0" x1="2447475" y1="-653927" x2="2427475" y2= "-653927" />
   <line class="fil0 str0" x1="2427475" y1="-653927" x2="2427475" y2= "-710290" />
   <line class="fil0 str0" x1="2447475" y1="-710290" x2="2427475" y2= "-710290" />
   <line class="fil0 str0" x1="2447475" y1="-710290" x2="2447475" y2= "-766654" />
   <line class="fil0 str0" x1="2447475" y1="-766654" x2="2427475" y2= "-766654" />
   <line class="fil0 str0" x1="2427475" y1="-766654" x2="2427475" y2= "-823017" />
   <line class="fil0 str0" x1="2447475" y1="-823017" x2="2427475" y2= "-823017" />
   <line class="fil0 str0" x1="2447475" y1="-823017" x2="2447475" y2= "-879381" />
   <line class="fil0 str0" x1="2447475" y1="-879381" x2="2427475" y2= "-879381" />
   <line class="fil0 str0" x1="2427475" y1="-879381" x2="2427475" y2= "-935745" />
   <line class="fil0 str0" x1="2447475" y1="-935745" x2="2427475" y2= "-935745" />
   <line class="fil0 str0" x1="2447475" y1="-935745" x2="2447475" y2= "-992109" />
   <line class="fil0 str4" x1="2447475" y1="-992109" x2="2427475" y2= "-992109" />
   <line class="fil0 str4" x1="2427475" y1="-992109" x2="2427475" y2= "-1048472" />
   <line class="fil0 str0" x1="3027474" y1="-428472" x2="3027474" y2= "-484836" />
   <line class="fil0 str0" x1="3047474" y1="-484836" x2="3027474" y2= "-484836" />
   <line class="fil0 str0" x1="3047474" y1="-484836" x2="3047474" y2= "-541200" />
   <line class="fil0 str0" x1="3047474" y1="-541200" x2="3027474" y2= "-541200" />
   <line class="fil0 str0" x1="3027474" y1="-541200" x2="3027474" y2= "-597564" />
   <line class="fil0 str0" x1="3047474" y1="-597564" x2="3027474" y2= "-597564" />
   <line class="fil0 str0" x1="3047474" y1="-597564" x2="3047474" y2= "-653927" />
   <line class="fil0 str0" x1="3047474" y1="-653927" x2="3027474" y2= "-653927" />
   <line class="fil0 str0" x1="3027474" y1="-653927" x2="3027474" y2= "-710290" />
   <line class="fil0 str0" x1="3047474" y1="-710290" x2="3027474" y2= "-710290" />
   <line class="fil0 str0" x1="3047474" y1="-710290" x2="3047474" y2= "-766654" />
   <line class="fil0 str0" x1="3047474" y1="-766654" x2="3027474" y2= "-766654" />
   <line class="fil0 str0" x1="3027474" y1="-766654" x2="3027474" y2= "-823017" />
   <line class="fil0 str0" x1="3047474" y1="-823017" x2="3027474" y2= "-823017" />
   <line class="fil0 str0" x1="3047474" y1="-823017" x2="3047474" y2= "-879381" />
   <line class="fil0 str0" x1="3047474" y1="-879381" x2="3027474" y2= "-879381" />
   <line class="fil0 str0" x1="3027474" y1="-879381" x2="3027474" y2= "-935745" />
   <line class="fil0 str0" x1="3047474" y1="-935745" x2="3027474" y2= "-935745" />
   <line class="fil0 str0" x1="3047474" y1="-935745" x2="3047474" y2= "-992109" />
   <line class="fil0 str4" x1="3047474" y1="-992109" x2="3027474" y2= "-992109" />
   <line class="fil0 str4" x1="3027474" y1="-992109" x2="3027474" y2= "-1048472" />
   <rect class="fil1 str2" x="2934747" y="-968472" width="56364" height="20000"/>
   <rect class="fil1 str2" x="2822021" y="-968472" width="56363" height="20000"/>
   <rect class="fil1 str2" x="2709294" y="-968472" width="56363" height="20000"/>
   <rect class="fil1 str2" x="2596567" y="-968472" width="56363" height="20000"/>
   <rect class="fil1 str2" x="2483839" y="-968472" width="56364" height="20000"/>
  </g>
  <g id="_1132067584">
   <g>
    <line class="fil0 str4" x1="3875000" y1="563334" x2="3911363" y2= "563334" />
    <line class="fil0 str4" x1="3911363" y1="563334" x2="3911363" y2= "583334" />
    <line class="fil0 str4" x1="3911363" y1="583334" x2="3967727" y2= "583334" />
    <line class="fil0 str4" x1="3967727" y1="563334" x2="3967727" y2= "583334" />
    <line class="fil0 str4" x1="3967727" y1="563334" x2="4024091" y2= "563334" />
    <line class="fil0 str4" x1="4024091" y1="563334" x2="4024091" y2= "583334" />
    <line class="fil0 str4" x1="4024091" y1="583334" x2="4080454" y2= "583334" />
    <line class="fil0 str4" x1="4080454" y1="563334" x2="4080454" y2= "583334" />
    <line class="fil0 str4" x1="4080454" y1="563334" x2="4136818" y2= "563334" />
    <line class="fil0 str4" x1="4136818" y1="563334" x2="4136818" y2= "583334" />
    <line class="fil0 str4" x1="4136818" y1="583334" x2="4193181" y2= "583334" />
    <line class="fil0 str4" x1="4193181" y1="563334" x2="4193181" y2= "583334" />
    <line class="fil0 str4" x1="4193181" y1="563334" x2="4249545" y2= "563334" />
    <line class="fil0 str4" x1="4249545" y1="563334" x2="4249545" y2= "583334" />
    <line class="fil0 str4" x1="4249545" y1="583334" x2="4305909" y2= "583334" />
    <line class="fil0 str4" x1="4305909" y1="563334" x2="4305909" y2= "583334" />
    <line class="fil0 str4" x1="4305909" y1="563334" x2="4362272" y2= "563334" />
    <line class="fil0 str4" x1="4362272" y1="563334" x2="4362272" y2= "583334" />
    <line class="fil0 str4" x1="4362272" y1="583334" x2="4418636" y2= "583334" />
    <line class="fil0 str4" x1="4418636" y1="563334" x2="4418636" y2= "583334" />
    <line class="fil0 str4" x1="4418636" y1="563334" x2="4454999" y2= "563334" />
    <line class="fil0 str4" x1="3875000" y1="-16666" x2="3911363" y2= "-16666" />
    <line class="fil0 str4" x1="3911363" y1="-36666" x2="3911363" y2= "-16666" />
    <line class="fil0 str4" x1="3911363" y1="-36666" x2="3967727" y2= "-36666" />
    <line class="fil0 str4" x1="3967727" y1="-36666" x2="3967727" y2= "-16666" />
    <line class="fil0 str4" x1="3967727" y1="-16666" x2="4024091" y2= "-16666" />
    <line class="fil0 str4" x1="4024091" y1="-36666" x2="4024091" y2= "-16666" />
    <line class="fil0 str4" x1="4024091" y1="-36666" x2="4080454" y2= "-36666" />
    <line class="fil0 str4" x1="4080454" y1="-36666" x2="4080454" y2= "-16666" />
    <line class="fil0 str4" x1="4080454" y1="-16666" x2="4136818" y2= "-16666" />
    <line class="fil0 str4" x1="4136818" y1="-36666" x2="4136818" y2= "-16666" />
    <line class="fil0 str4" x1="4136818" y1="-36666" x2="4193181" y2= "-36666" />
    <line class="fil0 str4" x1="4193181" y1="-36666" x2="4193181" y2= "-16666" />
    <line class="fil0 str4" x1="4193181" y1="-16666" x2="4249545" y2= "-16666" />
    <line class="fil0 str4" x1="4249545" y1="-36666" x2="4249545" y2= "-16666" />
    <line class="fil0 str4" x1="4249545" y1="-36666" x2="4305909" y2= "-36666" />
    <line class="fil0 str4" x1="4305909" y1="-36666" x2="4305909" y2= "-16666" />
    <line class="fil0 str4" x1="4305909" y1="-16666" x2="4362272" y2= "-16666" />
    <line class="fil0 str4" x1="4362272" y1="-36666" x2="4362272" y2= "-16666" />
    <line class="fil0 str4" x1="4362272" y1="-36666" x2="4418636" y2= "-36666" />
    <line class="fil0 str4" x1="4418636" y1="-36666" x2="4418636" y2= "-16666" />
    <line class="fil0 str4" x1="4418636" y1="-16666" x2="4454999" y2= "-16666" />
    <line class="fil0 str4" x1="3875000" y1="563334" x2="3875000" y2= "526970" />
    <line class="fil0 str4" x1="3875000" y1="526970" x2="3855000" y2= "526970" />
    <line class="fil0 str4" x1="3855000" y1="526970" x2="3855000" y2= "470608" />
    <line class="fil0 str4" x1="3875000" y1="470608" x2="3855000" y2= "470608" />
    <line class="fil0 str4" x1="3875000" y1="470608" x2="3875000" y2= "414244" />
    <line class="fil0 str4" x1="3875000" y1="414244" x2="3855000" y2= "414244" />
    <line class="fil0 str4" x1="3855000" y1="414244" x2="3855000" y2= "357880" />
    <line class="fil0 str4" x1="3875000" y1="357880" x2="3855000" y2= "357880" />
    <line class="fil0 str4" x1="3875000" y1="357880" x2="3875000" y2= "301517" />
    <line class="fil0 str4" x1="3875000" y1="301517" x2="3855000" y2= "301517" />
    <line class="fil0 str4" x1="3855000" y1="301517" x2="3855000" y2= "245152" />
    <line class="fil0 str4" x1="3875000" y1="245152" x2="3855000" y2= "245152" />
    <line class="fil0 str4" x1="3875000" y1="245152" x2="3875000" y2= "188789" />
    <line class="fil0 str4" x1="3875000" y1="188789" x2="3855000" y2= "188789" />
    <line class="fil0 str4" x1="3855000" y1="188789" x2="3855000" y2= "132426" />
    <line class="fil0 str4" x1="3875000" y1="132426" x2="3855000" y2= "132426" />
    <line class="fil0 str4" x1="3875000" y1="132426" x2="3875000" y2= "76062" />
    <line class="fil0 str4" x1="3875000" y1="76062" x2="3855000" y2= "76062" />
    <line class="fil0 str4" x1="3855000" y1="76062" x2="3855000" y2= "19698" />
    <line class="fil0 str4" x1="3875000" y1="19698" x2="3855000" y2= "19698" />
    <line class="fil0 str4" x1="3875000" y1="19698" x2="3875000" y2= "-16666" />
    <line class="fil0 str4" x1="4454999" y1="563334" x2="4454999" y2= "526970" />
    <line class="fil0 str4" x1="4474999" y1="526970" x2="4454999" y2= "526970" />
    <line class="fil0 str4" x1="4474999" y1="526970" x2="4474999" y2= "470608" />
    <line class="fil0 str4" x1="4474999" y1="470608" x2="4454999" y2= "470608" />
    <line class="fil0 str4" x1="4454999" y1="470608" x2="4454999" y2= "414244" />
    <line class="fil0 str4" x1="4474999" y1="414244" x2="4454999" y2= "414244" />
    <line class="fil0 str4" x1="4474999" y1="414244" x2="4474999" y2= "357880" />
    <line class="fil0 str4" x1="4474999" y1="357880" x2="4454999" y2= "357880" />
    <line class="fil0 str4" x1="4454999" y1="357880" x2="4454999" y2= "301517" />
    <line class="fil0 str4" x1="4474999" y1="301517" x2="4454999" y2= "301517" />
    <line class="fil0 str4" x1="4474999" y1="301517" x2="4474999" y2= "245152" />
    <line class="fil0 str4" x1="4474999" y1="245152" x2="4454999" y2= "245152" />
    <line class="fil0 str4" x1="4454999" y1="245152" x2="4454999" y2= "188789" />
    <line class="fil0 str4" x1="4474999" y1="188789" x2="4454999" y2= "188789" />
    <line class="fil0 str4" x1="4474999" y1="188789" x2="4474999" y2= "132426" />
    <line class="fil0 str4" x1="4474999" y1="132426" x2="4454999" y2= "132426" />
    <line class="fil0 str4" x1="4454999" y1="132426" x2="4454999" y2= "76062" />
    <line class="fil0 str4" x1="4474999" y1="76062" x2="4454999" y2= "76062" />
    <line class="fil0 str4" x1="4474999" y1="76062" x2="4474999" y2= "19698" />
    <line class="fil0 str4" x1="4474999" y1="19698" x2="4454999" y2= "19698" />
    <line class="fil0 str4" x1="4454999" y1="19698" x2="4454999" y2= "-16666" />
   </g>
   <path class="fil2" d="M4170809 23334l-2733 0 0 -23867 2933 0 0 8517c1239,-1544 2817,-2317 4739,-2317 1061,0 2072,212 3022,639 950,428 1728,1034 2345,1806 611,778 1094,1711 1439,2806 350,1088 522,2261 522,3505 0,2956 -733,5245 -2195,6856 -1466,1616 -3222,2422 -5272,2422 -2039,0 -3639,-850 -4800,-2545l0 2178zm-33 -8778c0,2067 283,3562 844,4484 923,1505 2167,2261 3739,2261 1284,0 2389,-556 3317,-1667 933,-1111 1400,-2766 1400,-4966 0,-2256 -445,-3917 -1339,-4989 -894,-1073 -1978,-1611 -3244,-1611 -1284,0 -2389,555 -3317,1666 -933,1111 -1400,2717 -1400,4822z"/>
   <path id="1" class="fil2" d="M4197948 21168c-1089,927 -2139,1577 -3144,1961 -1006,383 -2084,572 -3239,572 -1900,0 -3361,-461 -4384,-1389 -1022,-922 -1533,-2106 -1533,-3544 0,-845 195,-1617 578,-2317 389,-700 894,-1256 1517,-1678 627,-422 1327,-744 2111,-961 577,-150 1450,-294 2611,-439 2366,-278 4116,-617 5233,-1005 11,-400 17,-656 17,-762 0,-1188 -278,-2027 -834,-2516 -750,-661 -1866,-989 -3344,-989 -1383,0 -2406,244 -3061,728 -661,483 -1145,1339 -1461,2572l-2867 -400c261,-1228 689,-2222 1289,-2978 600,-755 1467,-1333 2600,-1744 1128,-406 2444,-612 3933,-612 1478,0 2684,173 3611,523 923,350 1606,783 2039,1311 434,528 739,1194 917,2000 94,500 144,1400 144,2694l0 3889c0,2717 62,4434 184,5161 116,728 361,1423 716,2089l-3066 0c-295,-616 -484,-1339 -567,-2166zm-233 -6500c-1067,433 -2667,800 -4800,1100 -1211,172 -2067,366 -2567,583 -500,217 -883,533 -1155,944 -273,417 -412,878 -412,1389 0,772 295,1422 889,1939 595,517 1461,778 2600,778 1128,0 2134,-245 3017,-739 878,-489 1528,-1161 1939,-2011 317,-661 472,-1633 472,-2917l17 -1066z"/>
   <path id="2" class="fil2" d="M4216487 17001l2867 400c-317,1972 -1117,3511 -2411,4628 -1295,1116 -2889,1672 -4773,1672 -2361,0 -4261,-772 -5694,-2317 -1439,-1544 -2156,-3755 -2156,-6633 0,-1867 311,-3495 928,-4895 617,-1394 1556,-2444 2822,-3138 1261,-701 2634,-1051 4123,-1051 1872,0 3411,473 4600,1423 1194,950 1961,2300 2294,4044l-2833 434c-273,-1162 -750,-2034 -1445,-2623 -689,-583 -1522,-877 -2500,-877 -1478,0 -2678,527 -3605,1583 -923,1061 -1384,2728 -1384,5017 0,2322 445,4005 1334,5055 894,1050 2055,1578 3483,1578 1156,0 2117,-350 2883,-1056 773,-700 1261,-1783 1467,-3244z"/>
   <polygon id="3" class="fil2" points="4221865,23334 4221865,-533 4224798,-533 4224798,13062 4231732,6034 4235520,6034 4228920,12462 4236187,23334 4232576,23334 4226832,14495 4224798,16473 4224798,23334 "/>
   <path id="4" class="fil0 str5" d="M4170809 23334l-2733 0 0 -23867 2933 0 0 8517c1239,-1544 2817,-2317 4739,-2317 1061,0 2072,212 3022,639 950,428 1728,1034 2345,1806 611,778 1094,1711 1439,2806 350,1088 522,2261 522,3505 0,2956 -733,5245 -2195,6856 -1466,1616 -3222,2422 -5272,2422 -2039,0 -3639,-850 -4800,-2545l0 2178zm-33 -8778c0,2067 283,3562 844,4484 923,1505 2167,2261 3739,2261 1284,0 2389,-556 3317,-1667 933,-1111 1400,-2766 1400,-4966 0,-2256 -445,-3917 -1339,-4989 -894,-1073 -1978,-1611 -3244,-1611 -1284,0 -2389,555 -3317,1666 -933,1111 -1400,2717 -1400,4822z"/>
   <path id="5" class="fil0 str5" d="M4197948 21168c-1089,927 -2139,1577 -3144,1961 -1006,383 -2084,572 -3239,572 -1900,0 -3361,-461 -4384,-1389 -1022,-922 -1533,-2106 -1533,-3544 0,-845 195,-1617 578,-2317 389,-700 894,-1256 1517,-1678 627,-422 1327,-744 2111,-961 577,-150 1450,-294 2611,-439 2366,-278 4116,-617 5233,-1005 11,-400 17,-656 17,-762 0,-1188 -278,-2027 -834,-2516 -750,-661 -1866,-989 -3344,-989 -1383,0 -2406,244 -3061,728 -661,483 -1145,1339 -1461,2572l-2867 -400c261,-1228 689,-2222 1289,-2978 600,-755 1467,-1333 2600,-1744 1128,-406 2444,-612 3933,-612 1478,0 2684,173 3611,523 923,350 1606,783 2039,1311 434,528 739,1194 917,2000 94,500 144,1400 144,2694l0 3889c0,2717 62,4434 184,5161 116,728 361,1423 716,2089l-3066 0c-295,-616 -484,-1339 -567,-2166zm-233 -6500c-1067,433 -2667,800 -4800,1100 -1211,172 -2067,366 -2567,583 -500,217 -883,533 -1155,944 -273,417 -412,878 -412,1389 0,772 295,1422 889,1939 595,517 1461,778 2600,778 1128,0 2134,-245 3017,-739 878,-489 1528,-1161 1939,-2011 317,-661 472,-1633 472,-2917l17 -1066z"/>
   <path id="6" class="fil0 str5" d="M4216487 17001l2867 400c-317,1972 -1117,3511 -2411,4628 -1295,1116 -2889,1672 -4773,1672 -2361,0 -4261,-772 -5694,-2317 -1439,-1544 -2156,-3755 -2156,-6633 0,-1867 311,-3495 928,-4895 617,-1394 1556,-2444 2822,-3138 1261,-701 2634,-1051 4123,-1051 1872,0 3411,473 4600,1423 1194,950 1961,2300 2294,4044l-2833 434c-273,-1162 -750,-2034 -1445,-2623 -689,-583 -1522,-877 -2500,-877 -1478,0 -2678,527 -3605,1583 -923,1061 -1384,2728 -1384,5017 0,2322 445,4005 1334,5055 894,1050 2055,1578 3483,1578 1156,0 2117,-350 2883,-1056 773,-700 1261,-1783 1467,-3244z"/>
   <polygon id="7" class="fil0 str5" points="4221865,23334 4221865,-533 4224798,-533 4224798,13062 4231732,6034 4235520,6034 4228920,12462 4236187,23334 4232576,23334 4226832,14495 4224798,16473 4224798,23334 "/>
  </g>
  <g id="_1129747760">
   <g>
    <g>
     <line class="fil0 str0" x1="2084980" y1="349657" x2="2084980" y2= "949518" />
     <line class="fil0 str0" x1="2384980" y1="369659" x2="2384980" y2= "405883" />
     <line class="fil0 str0" x1="2384980" y1="405883" x2="2364980" y2= "405883" />
     <line class="fil0 str0" x1="2364980" y1="405883" x2="2364980" y2= "462246" />
     <line class="fil0 str0" x1="2384980" y1="462246" x2="2364980" y2= "462246" />
     <line class="fil0 str0" x1="2384980" y1="462246" x2="2384980" y2= "518610" />
     <line class="fil0 str0" x1="2384980" y1="518610" x2="2364980" y2= "518610" />
     <line class="fil0 str0" x1="2364980" y1="518610" x2="2364980" y2= "574974" />
     <line class="fil0 str0" x1="2384980" y1="574974" x2="2364980" y2= "574974" />
     <line class="fil0 str0" x1="2384980" y1="574974" x2="2384980" y2= "631337" />
     <line class="fil0 str0" x1="2384980" y1="631337" x2="2364980" y2= "631337" />
     <line class="fil0 str0" x1="2364980" y1="631337" x2="2364980" y2= "687701" />
     <line class="fil0 str0" x1="2384980" y1="687701" x2="2364980" y2= "687701" />
     <line class="fil0 str0" x1="2384980" y1="687701" x2="2384980" y2= "744065" />
     <line class="fil0 str0" x1="2384980" y1="744065" x2="2364980" y2= "744065" />
     <line class="fil0 str0" x1="2364980" y1="744065" x2="2364980" y2= "800428" />
     <line class="fil0 str0" x1="2384980" y1="800428" x2="2364980" y2= "800428" />
     <line class="fil0 str0" x1="2384980" y1="800428" x2="2384980" y2= "856792" />
     <line class="fil0 str0" x1="2384980" y1="856792" x2="2364980" y2= "856792" />
     <line class="fil0 str0" x1="2364980" y1="856792" x2="2364980" y2= "913156" />
     <line class="fil0 str0" x1="2384980" y1="913156" x2="2364980" y2= "913156" />
     <line class="fil0 str0" x1="2384980" y1="913156" x2="2384980" y2= "949519" />
     <line class="fil0 str0" x1="2084980" y1="949519" x2="2144980" y2= "949519" />
     <line class="fil0 str0" x1="2144980" y1="969519" x2="2144980" y2= "949519" />
     <line class="fil0 str0" x1="2144980" y1="969519" x2="2204980" y2= "969519" />
     <line class="fil0 str0" x1="2204980" y1="969519" x2="2204980" y2= "949519" />
     <line class="fil0 str0" x1="2204980" y1="949519" x2="2264980" y2= "949519" />
     <line class="fil0 str0" x1="2264980" y1="969519" x2="2264980" y2= "949519" />
     <line class="fil0 str0" x1="2264980" y1="969519" x2="2324980" y2= "969519" />
     <line class="fil0 str0" x1="2324980" y1="969519" x2="2324980" y2= "949519" />
     <line class="fil0 str0" x1="2324980" y1="949519" x2="2384980" y2= "949519" />
     <line class="fil0 str0" x1="2384980" y1="369659" x2="2384980" y2= "313296" />
     <line class="fil0 str0" x1="2364980" y1="313296" x2="2384980" y2= "313296" />
     <line class="fil0 str0" x1="2364980" y1="313296" x2="2364980" y2= "256932" />
     <line class="fil0 str0" x1="2364980" y1="256932" x2="2384980" y2= "256932" />
     <line class="fil0 str0" x1="2384980" y1="256932" x2="2384980" y2= "200569" />
     <line class="fil0 str0" x1="2364980" y1="200569" x2="2384980" y2= "200569" />
     <line class="fil0 str0" x1="2364980" y1="200569" x2="2364980" y2= "144205" />
     <line class="fil0 str0" x1="2364980" y1="144205" x2="2384980" y2= "144205" />
     <line class="fil0 str0" x1="2384980" y1="144205" x2="2384980" y2= "87841" />
     <line class="fil0 str0" x1="2364980" y1="87841" x2="2384980" y2= "87841" />
     <line class="fil0 str0" x1="2364980" y1="87841" x2="2364980" y2= "31478" />
     <line class="fil0 str0" x1="2364980" y1="31478" x2="2384980" y2= "31478" />
     <line class="fil0 str0" x1="2384980" y1="31478" x2="2384980" y2= "-24886" />
     <line class="fil0 str0" x1="2364980" y1="-24886" x2="2384980" y2= "-24886" />
     <line class="fil0 str0" x1="2364980" y1="-24886" x2="2364980" y2= "-81250" />
     <line class="fil0 str0" x1="2364980" y1="-81250" x2="2384980" y2= "-81250" />
     <line class="fil0 str0" x1="2384980" y1="-81250" x2="2384980" y2= "-137613" />
     <line class="fil0 str0" x1="2364980" y1="-137613" x2="2384980" y2= "-137613" />
     <line class="fil0 str0" x1="2364980" y1="-137613" x2="2364980" y2= "-193977" />
     <line class="fil0 str0" x1="2364980" y1="-193977" x2="2384980" y2= "-193977" />
     <line class="fil0 str0" x1="2384980" y1="-193977" x2="2384980" y2= "-230341" />
     <line class="fil0 str0" x1="1764980" y1="369659" x2="1764980" y2= "-230341" />
     <line class="fil0 str0" x1="2328616" y1="349659" x2="2328616" y2= "369659" />
     <line class="fil0 str0" x1="2328616" y1="349659" x2="2272253" y2= "349659" />
     <line class="fil0 str0" x1="2272253" y1="349659" x2="2272253" y2= "369659" />
     <line class="fil0 str0" x1="2215889" y1="349659" x2="2215889" y2= "369659" />
     <line class="fil0 str0" x1="2215889" y1="349659" x2="2159525" y2= "349659" />
     <line class="fil0 str0" x1="2159525" y1="349659" x2="2159525" y2= "369659" />
     <line class="fil0 str0" x1="2084980" y1="349659" x2="2046798" y2= "349659" />
     <line class="fil0 str0" x1="2046798" y1="349659" x2="2046798" y2= "369659" />
     <line class="fil0 str0" x1="2046798" y1="369659" x2="1990435" y2= "369659" />
     <line class="fil0 str0" x1="1990435" y1="349659" x2="1990435" y2= "369659" />
     <line class="fil0 str0" x1="1990435" y1="349659" x2="1934071" y2= "349659" />
     <line class="fil0 str0" x1="1934071" y1="349659" x2="1934071" y2= "369659" />
     <line class="fil0 str0" x1="1934071" y1="369659" x2="1877707" y2= "369659" />
     <line class="fil0 str0" x1="1877707" y1="349659" x2="1877707" y2= "369659" />
     <line class="fil0 str0" x1="1877707" y1="349659" x2="1821344" y2= "349659" />
     <line class="fil0 str0" x1="1821344" y1="349659" x2="1821344" y2= "369659" />
     <line class="fil0 str0" x1="1821344" y1="369659" x2="1764980" y2= "369659" />
     <line class="fil0 str0" x1="2384980" y1="-230341" x2="2328616" y2= "-230341" />
     <line class="fil0 str0" x1="2328616" y1="-250341" x2="2328616" y2= "-230341" />
     <line class="fil0 str0" x1="2328616" y1="-250341" x2="2272253" y2= "-250341" />
     <line class="fil0 str0" x1="2272253" y1="-250341" x2="2272253" y2= "-230341" />
     <line class="fil0 str0" x1="2272253" y1="-230341" x2="2215889" y2= "-230341" />
     <line class="fil0 str0" x1="2215889" y1="-250341" x2="2215889" y2= "-230341" />
     <line class="fil0 str0" x1="2215889" y1="-250341" x2="2159525" y2= "-250341" />
     <line class="fil0 str0" x1="2159525" y1="-250341" x2="2159525" y2= "-230341" />
     <line class="fil0 str0" x1="2159525" y1="-230341" x2="2103162" y2= "-230341" />
     <line class="fil0 str0" x1="2103162" y1="-250341" x2="2103162" y2= "-230341" />
     <line class="fil0 str0" x1="2103162" y1="-250341" x2="2046798" y2= "-250341" />
     <line class="fil0 str0" x1="2046798" y1="-250341" x2="2046798" y2= "-230341" />
     <line class="fil0 str0" x1="2046798" y1="-230341" x2="1990435" y2= "-230341" />
     <line class="fil0 str0" x1="1990435" y1="-250341" x2="1990435" y2= "-230341" />
     <line class="fil0 str0" x1="1990435" y1="-250341" x2="1934071" y2= "-250341" />
     <line class="fil0 str0" x1="1934071" y1="-250341" x2="1934071" y2= "-230341" />
     <line class="fil0 str0" x1="1934071" y1="-230341" x2="1877707" y2= "-230341" />
     <line class="fil0 str0" x1="1877707" y1="-250341" x2="1877707" y2= "-230341" />
     <line class="fil0 str0" x1="1877707" y1="-250341" x2="1821344" y2= "-250341" />
     <line class="fil0 str0" x1="1821344" y1="-250341" x2="1821344" y2= "-230341" />
     <line class="fil0 str0" x1="1821344" y1="-230341" x2="1764980" y2= "-230341" />
     <line class="fil1 str1" x1="2159525" y1="369659" x2="2215889" y2= "369659" />
     <line class="fil1 str1" x1="2272253" y1="369659" x2="2328616" y2= "369659" />
    </g>
    <polygon class="fil1 str2" points="2084980,-81250 2064980,-81250 2064980,-24888 2084980,-24888 "/>
    <line class="fil1 str2" x1="2064980" y1="144204" x2="2064980" y2= "200568" />
    <polyline class="fil1 str2" points="2084980,200568 2084980,144204 2064980,144204 "/>
    <line class="fil1 str2" x1="2064980" y1="200568" x2="2084980" y2= "200568" />
   </g>
   <rect class="fil1 str2" x="1844980" y="-193977" width="20000" height="56364"/>
   <rect class="fil1 str2" x="1844980" y="-81249" width="20000" height="56363"/>
   <rect class="fil1 str2" x="1844980" y="31477" width="20000" height="56364"/>
   <rect class="fil1 str2" x="1844980" y="144205" width="20000" height="56364"/>
   <rect class="fil1 str2" x="1844980" y="256933" width="20000" height="56363"/>
  </g>
  <rect class="fil1 str2" x="3590178" y="-192737" width="20000" height="56364"/>
  <rect class="fil1 str2" x="3590178" y="-80009" width="20000" height="56363"/>
  <rect class="fil1 str2" x="3590178" y="32717" width="20000" height="56364"/>
  <rect class="fil1 str2" x="3590178" y="145445" width="20000" height="56364"/>
  <rect class="fil1 str2" x="3590178" y="258172" width="20000" height="56363"/>
  <g id="_1137734512">
   <g>
    <line class="fil0 str6" x1="1207272" y1="1040000" x2="1300000" y2= "1040000" />
    <line class="fil0 str6" x1="1300000" y1="1040000" x2="1300000" y2= "1060000" />
    <line class="fil0 str6" x1="1300000" y1="1060000" x2="1356364" y2= "1060000" />
    <line class="fil0 str6" x1="1356364" y1="1040000" x2="1356364" y2= "1060000" />
    <line class="fil0 str6" x1="1356364" y1="1040000" x2="1412727" y2= "1040000" />
    <line class="fil0 str6" x1="1412727" y1="1040000" x2="1412727" y2= "1060000" />
    <line class="fil0 str6" x1="1412727" y1="1060000" x2="1469091" y2= "1060000" />
    <line class="fil0 str6" x1="1469091" y1="1040000" x2="1469091" y2= "1060000" />
    <line class="fil0 str6" x1="1469091" y1="1040000" x2="1525454" y2= "1040000" />
    <line class="fil0 str6" x1="1525454" y1="1040000" x2="1525454" y2= "1060000" />
    <line class="fil0 str6" x1="1525454" y1="1060000" x2="1581818" y2= "1060000" />
    <line class="fil0 str6" x1="1581818" y1="1040000" x2="1581818" y2= "1060000" />
    <line class="fil0 str6" x1="1581818" y1="1040000" x2="1638181" y2= "1040000" />
    <line class="fil0 str6" x1="1638181" y1="1040000" x2="1638181" y2= "1060000" />
    <line class="fil0 str6" x1="1638181" y1="1060000" x2="1694545" y2= "1060000" />
    <line class="fil0 str6" x1="1694545" y1="1040000" x2="1694545" y2= "1060000" />
    <line class="fil0 str6" x1="1694545" y1="1040000" x2="1787272" y2= "1040000" />
    <line class="fil0 str6" x1="1207271" y1="440000" x2="1787271" y2= "440000" />
    <line class="fil0 str6" x1="1207272" y1="1003636" x2="1187272" y2= "1003636" />
    <line class="fil0 str6" x1="1787272" y1="1040000" x2="1787272" y2= "1003636" />
    <line class="fil0 str6" x1="1807272" y1="1003636" x2="1787272" y2= "1003636" />
    <line class="fil0 str6" x1="1807272" y1="1003636" x2="1807272" y2= "947272" />
    <line class="fil0 str6" x1="1807272" y1="947272" x2="1787272" y2= "947272" />
    <line class="fil0 str6" x1="1787272" y1="947272" x2="1787272" y2= "890909" />
    <line class="fil0 str6" x1="1807272" y1="890909" x2="1787272" y2= "890909" />
    <line class="fil0 str6" x1="1807272" y1="890909" x2="1807272" y2= "834545" />
    <line class="fil0 str6" x1="1807272" y1="834545" x2="1787272" y2= "834545" />
    <line class="fil0 str6" x1="1787272" y1="834545" x2="1787272" y2= "760000" />
    <line class="fil0 str6" x1="1807272" y1="760000" x2="1787272" y2= "760000" />
    <line class="fil0 str6" x1="1807272" y1="760000" x2="1807272" y2= "721818" />
    <line class="fil0 str6" x1="1807272" y1="721818" x2="1787272" y2= "721818" />
    <line class="fil0 str6" x1="1787272" y1="721818" x2="1787272" y2= "665454" />
    <line class="fil0 str6" x1="1807272" y1="665454" x2="1787272" y2= "665454" />
    <line class="fil0 str6" x1="1807272" y1="665454" x2="1807272" y2= "609091" />
    <line class="fil0 str6" x1="1807272" y1="609091" x2="1787272" y2= "609091" />
    <line class="fil0 str6" x1="1787272" y1="609091" x2="1787272" y2= "552727" />
    <line class="fil0 str6" x1="1807272" y1="552727" x2="1787272" y2= "552727" />
    <line class="fil0 str6" x1="1807272" y1="552727" x2="1807272" y2= "496363" />
    <line class="fil0 str6" x1="1807272" y1="496363" x2="1787272" y2= "496363" />
    <line class="fil0 str6" x1="1787272" y1="496363" x2="1787272" y2= "440000" />
    <path class="fil2" d="M1493591 677962l0 -6666 5866 0 0 6666 -5866 0zm0 41067l0 -34600 5866 0 0 34600 -5866 0z"/>
    <path id="1" class="fil2" d="M1508402 719029l0 -34600 5266 0 0 4911c2534,-3767 6200,-5644 10989,-5644 2089,0 4000,377 5745,1122 1744,744 3055,1733 3922,2944 867,1211 1478,2656 1822,4322 211,1089 322,2989 322,5700l0 21245 -5866 0 0 -21022c0,-2389 -223,-4178 -678,-5356 -456,-1178 -1267,-2122 -2422,-2833 -1156,-700 -2523,-1056 -4078,-1056 -2489,0 -4633,789 -6445,2378 -1811,1578 -2711,4589 -2711,9011l0 18878 -5866 0z"/>
    <path id="2" class="fil2" d="M1543146 708695l5800 -933c322,2322 1233,4100 2722,5345 1489,1233 3578,1855 6245,1855 2700,0 4700,-544 6011,-1644 1300,-1089 1955,-2378 1955,-3856 0,-1322 -589,-2367 -1755,-3122 -823,-522 -2823,-1178 -6000,-1989 -4289,-1078 -7256,-2011 -8923,-2800 -1655,-800 -2911,-1889 -3766,-3289 -856,-1389 -1289,-2933 -1289,-4622 0,-1545 355,-2967 1055,-4278 712,-1311 1667,-2400 2878,-3267 911,-666 2156,-1233 3722,-1699 1578,-467 3256,-700 5056,-700 2711,0 5089,388 7133,1177 2056,778 3567,1845 4545,3178 966,1344 1644,3133 2011,5378l-5733 800c-256,-1800 -1012,-3211 -2256,-4222 -1244,-1012 -3000,-1512 -5278,-1512 -2678,0 -4600,445 -5744,1334 -1145,889 -1722,1933 -1722,3122 0,756 233,1444 711,2056 477,622 1222,1144 2244,1555 589,222 2300,722 5167,1500 4133,1100 7022,2011 8666,2711 1645,700 2934,1734 3867,3067 945,1344 1411,3011 1411,5011 0,1944 -566,3778 -1711,5500 -1144,1722 -2789,3056 -4933,4000 -2156,944 -4589,1411 -7300,1411 -4489,0 -7922,-933 -10278,-2789 -2356,-1866 -3856,-4622 -4511,-8278z"/>
    <path id="3" class="fil2" d="M1578813 677962l0 -6666 5866 0 0 6666 -5866 0zm0 41067l0 -34600 5866 0 0 34600 -5866 0z"/>
    <path id="4" class="fil2" d="M1615957 719029l0 -4389c-2189,3411 -5411,5122 -9667,5122 -2755,0 -5289,-755 -7588,-2278 -2312,-1511 -4100,-3633 -5378,-6344 -1267,-2722 -1900,-5845 -1900,-9378 0,-3444 578,-6567 1722,-9378 1156,-2800 2878,-4955 5178,-6444 2289,-1500 4866,-2244 7700,-2244 2089,0 3944,444 5566,1322 1623,877 2945,2033 3967,3444l0 -17166 5867 0 0 47733 -5467 0zm-18533 -17256c0,4422 933,7722 2811,9911 1866,2189 4078,3278 6622,3278 2567,0 4744,-1044 6544,-3133 1789,-2089 2689,-5278 2689,-9567 0,-4711 -911,-8178 -2744,-10389 -1822,-2211 -4078,-3311 -6756,-3311 -2611,0 -4789,1056 -6544,3178 -1744,2122 -2622,5467 -2622,10033z"/>
    <path id="5" class="fil2" d="M1654301 707829l6067 800c-945,3522 -2711,6266 -5289,8211 -2578,1944 -5867,2922 -9878,2922 -5044,0 -9044,-1555 -12000,-4667 -2955,-3100 -4433,-7466 -4433,-13077 0,-5800 1489,-10311 4478,-13511 2989,-3212 6866,-4811 11633,-4811 4611,0 8378,1566 11300,4711 2922,3144 4389,7566 4389,13266 0,345 -11,867 -34,1556l-25766 0c222,3789 1289,6700 3222,8711 1922,2011 4333,3022 7211,3022 2145,0 3978,-567 5489,-1700 1522,-1133 2722,-2944 3611,-5433zm-19200 -9400l19267 0c-256,-2911 -1000,-5089 -2211,-6545 -1856,-2255 -4278,-3389 -7245,-3389 -2689,0 -4944,900 -6777,2700 -1823,1800 -2834,4212 -3034,7234z"/>
    <path id="6" class="fil0 str7" d="M1493591 677962l0 -6666 5866 0 0 6666 -5866 0zm0 41067l0 -34600 5866 0 0 34600 -5866 0z"/>
    <path id="7" class="fil0 str7" d="M1508402 719029l0 -34600 5266 0 0 4911c2534,-3767 6200,-5644 10989,-5644 2089,0 4000,377 5745,1122 1744,744 3055,1733 3922,2944 867,1211 1478,2656 1822,4322 211,1089 322,2989 322,5700l0 21245 -5866 0 0 -21022c0,-2389 -223,-4178 -678,-5356 -456,-1178 -1267,-2122 -2422,-2833 -1156,-700 -2523,-1056 -4078,-1056 -2489,0 -4633,789 -6445,2378 -1811,1578 -2711,4589 -2711,9011l0 18878 -5866 0z"/>
    <path id="8" class="fil0 str7" d="M1543146 708695l5800 -933c322,2322 1233,4100 2722,5345 1489,1233 3578,1855 6245,1855 2700,0 4700,-544 6011,-1644 1300,-1089 1955,-2378 1955,-3856 0,-1322 -589,-2367 -1755,-3122 -823,-522 -2823,-1178 -6000,-1989 -4289,-1078 -7256,-2011 -8923,-2800 -1655,-800 -2911,-1889 -3766,-3289 -856,-1389 -1289,-2933 -1289,-4622 0,-1545 355,-2967 1055,-4278 712,-1311 1667,-2400 2878,-3267 911,-666 2156,-1233 3722,-1699 1578,-467 3256,-700 5056,-700 2711,0 5089,388 7133,1177 2056,778 3567,1845 4545,3178 966,1344 1644,3133 2011,5378l-5733 800c-256,-1800 -1012,-3211 -2256,-4222 -1244,-1012 -3000,-1512 -5278,-1512 -2678,0 -4600,445 -5744,1334 -1145,889 -1722,1933 -1722,3122 0,756 233,1444 711,2056 477,622 1222,1144 2244,1555 589,222 2300,722 5167,1500 4133,1100 7022,2011 8666,2711 1645,700 2934,1734 3867,3067 945,1344 1411,3011 1411,5011 0,1944 -566,3778 -1711,5500 -1144,1722 -2789,3056 -4933,4000 -2156,944 -4589,1411 -7300,1411 -4489,0 -7922,-933 -10278,-2789 -2356,-1866 -3856,-4622 -4511,-8278z"/>
    <path id="9" class="fil0 str7" d="M1578813 677962l0 -6666 5866 0 0 6666 -5866 0zm0 41067l0 -34600 5866 0 0 34600 -5866 0z"/>
    <path id="10" class="fil0 str7" d="M1615957 719029l0 -4389c-2189,3411 -5411,5122 -9667,5122 -2755,0 -5289,-755 -7588,-2278 -2312,-1511 -4100,-3633 -5378,-6344 -1267,-2722 -1900,-5845 -1900,-9378 0,-3444 578,-6567 1722,-9378 1156,-2800 2878,-4955 5178,-6444 2289,-1500 4866,-2244 7700,-2244 2089,0 3944,444 5566,1322 1623,877 2945,2033 3967,3444l0 -17166 5867 0 0 47733 -5467 0zm-18533 -17256c0,4422 933,7722 2811,9911 1866,2189 4078,3278 6622,3278 2567,0 4744,-1044 6544,-3133 1789,-2089 2689,-5278 2689,-9567 0,-4711 -911,-8178 -2744,-10389 -1822,-2211 -4078,-3311 -6756,-3311 -2611,0 -4789,1056 -6544,3178 -1744,2122 -2622,5467 -2622,10033z"/>
    <path id="11" class="fil0 str7" d="M1654301 707829l6067 800c-945,3522 -2711,6266 -5289,8211 -2578,1944 -5867,2922 -9878,2922 -5044,0 -9044,-1555 -12000,-4667 -2955,-3100 -4433,-7466 -4433,-13077 0,-5800 1489,-10311 4478,-13511 2989,-3212 6866,-4811 11633,-4811 4611,0 8378,1566 11300,4711 2922,3144 4389,7566 4389,13266 0,345 -11,867 -34,1556l-25766 0c222,3789 1289,6700 3222,8711 1922,2011 4333,3022 7211,3022 2145,0 3978,-567 5489,-1700 1522,-1133 2722,-2944 3611,-5433zm-19200 -9400l19267 0c-256,-2911 -1000,-5089 -2211,-6545 -1856,-2255 -4278,-3389 -7245,-3389 -2689,0 -4944,900 -6777,2700 -1823,1800 -2834,4212 -3034,7234z"/>
    <line class="fil1 str2" x1="1207272" y1="1003636" x2="1207272" y2= "1040000" />
    <polyline class="fil1 str2" points="1207272,1003636 1187272,1003636 1187272,947272 1207272,947272 1207272,890909 1187272,890909 1187272,834545 1207272,834545 1207272,760000 "/>
    <polyline class="fil1 str2" points="1207272,440000 1207272,496363 1187272,496363 1187272,552727 1207272,552727 1207272,609091 1187272,609091 1187272,665454 1207272,665454 1207272,721818 1187272,721818 1187272,760000 1207272,760000 "/>
   </g>
   <rect class="fil1 str2" x="1243636" y="520000" width="56364" height="20000"/>
   <rect class="fil1 str2" x="1356364" y="520000" width="56363" height="20000"/>
   <rect class="fil1 str2" x="1469091" y="520000" width="56363" height="20000"/>
   <rect class="fil1 str2" x="1581818" y="520000" width="56363" height="20000"/>
   <rect class="fil1 str2" x="1694545" y="520000" width="56364" height="20000"/>
  </g>
  <line class="fil1 str8" x1="1807272" y1="740000" x2="1187272" y2= "740000" />
 </g>
</svg>
